<svg width="703" height="304" viewBox="0 0 703 304" fill="none" xmlns="http://www.w3.org/2000/svg">
<rect x="11.6549" y="-63" width="341" height="89" rx="43.2892" fill="#27ACA1"/>
<path d="M0 26.0001C15.2649 14.6603 13.3198 -7.29932 13.3198 -7.29932L31.6344 14.3453C21.9935 21.9052 6.02561 25.3701 0 26.0001Z" fill="#27ACA1"/>
<rect x="11.6548" y="214.888" width="637" height="89" rx="43.2892" fill="#27ACA1"/>
<path d="M42.2942 269.888V248.092H44.9336V257.798H56.5552V248.092H59.1946V269.888H56.5552V260.14H44.9336V269.888H42.2942ZM70.779 270.229C69.3033 270.229 68.0084 269.878 66.8945 269.175C65.7877 268.473 64.9221 267.49 64.2977 266.227C63.6804 264.964 63.3718 263.488 63.3718 261.8C63.3718 260.097 63.6804 258.611 64.2977 257.341C64.9221 256.071 65.7877 255.084 66.8945 254.382C68.0084 253.68 69.3033 253.328 70.779 253.328C72.2548 253.328 73.5461 253.68 74.6529 254.382C75.7669 255.084 76.6325 256.071 77.2497 257.341C77.8741 258.611 78.1863 260.097 78.1863 261.8C78.1863 263.488 77.8741 264.964 77.2497 266.227C76.6325 267.49 75.7669 268.473 74.6529 269.175C73.5461 269.878 72.2548 270.229 70.779 270.229ZM70.779 267.973C71.9001 267.973 72.8224 267.685 73.5461 267.11C74.2698 266.536 74.8055 265.78 75.1531 264.844C75.5008 263.907 75.6746 262.892 75.6746 261.8C75.6746 260.707 75.5008 259.689 75.1531 258.745C74.8055 257.802 74.2698 257.039 73.5461 256.457C72.8224 255.875 71.9001 255.585 70.779 255.585C69.658 255.585 68.7357 255.875 68.012 256.457C67.2883 257.039 66.7526 257.802 66.4049 258.745C66.0573 259.689 65.8835 260.707 65.8835 261.8C65.8835 262.892 66.0573 263.907 66.4049 264.844C66.7526 265.78 67.2883 266.536 68.012 267.11C68.7357 267.685 69.658 267.973 70.779 267.973ZM82.0203 269.888V253.541H88.7038C90.4634 253.541 91.8611 253.939 92.897 254.733C93.9328 255.528 94.4508 256.578 94.4508 257.883C94.4508 258.877 94.1563 259.646 93.5674 260.193C92.9786 260.732 92.2229 261.097 91.3006 261.289C91.9037 261.374 92.489 261.587 93.0566 261.928C93.6313 262.268 94.1067 262.736 94.4827 263.332C94.8587 263.921 95.0468 264.645 95.0468 265.503C95.0468 266.341 94.8339 267.089 94.4082 267.749C93.9825 268.409 93.3723 268.93 92.5777 269.313C91.783 269.697 90.8323 269.888 89.7255 269.888H82.0203ZM84.4042 267.589H89.7255C90.5911 267.589 91.2686 267.384 91.7582 266.972C92.2478 266.561 92.4925 266 92.4925 265.291C92.4925 264.446 92.2478 263.783 91.7582 263.3C91.2686 262.811 90.5911 262.566 89.7255 262.566H84.4042V267.589ZM84.4042 260.395H88.7038C89.3778 260.395 89.9561 260.303 90.4385 260.118C90.921 259.927 91.2899 259.657 91.5454 259.309C91.8079 258.955 91.9391 258.536 91.9391 258.054C91.9391 257.365 91.6518 256.826 91.0771 256.436C90.5024 256.039 89.7113 255.84 88.7038 255.84H84.4042V260.395ZM101.02 259.458H105.703C107.618 259.458 109.083 259.944 110.098 260.916C111.113 261.889 111.62 263.12 111.62 264.609C111.62 265.589 111.393 266.479 110.939 267.281C110.485 268.075 109.818 268.71 108.938 269.186C108.058 269.654 106.98 269.888 105.703 269.888H98.8488V253.541H101.36V267.547H105.703C106.696 267.547 107.512 267.284 108.15 266.759C108.789 266.234 109.108 265.56 109.108 264.737C109.108 263.872 108.789 263.166 108.15 262.619C107.512 262.073 106.696 261.8 105.703 261.8H101.02V259.458ZM114.217 269.888V253.541H116.728V269.888H114.217ZM123.838 266.185L131.713 253.541H134.608V269.888H132.096V257.245L124.263 269.888H121.326V253.541H123.838V266.185ZM130.053 248.092H132.394C132.394 249.242 131.997 250.182 131.202 250.912C130.408 251.643 129.329 252.009 127.967 252.009C126.626 252.009 125.558 251.643 124.763 250.912C123.976 250.182 123.582 249.242 123.582 248.092H125.924C125.924 248.646 126.076 249.132 126.381 249.55C126.693 249.969 127.222 250.178 127.967 250.178C128.712 250.178 129.244 249.969 129.563 249.55C129.89 249.132 130.053 248.646 130.053 248.092ZM147.637 269.888V253.541H150.149V260.65H151.809L157.684 253.541H160.919L154.321 261.417L161.004 269.888H157.769L152.405 262.992H150.149V269.888H147.637ZM165.352 276.018C164.926 276.018 164.546 275.983 164.213 275.912C163.879 275.848 163.649 275.784 163.521 275.72L164.16 273.507C164.77 273.663 165.309 273.72 165.777 273.677C166.246 273.634 166.661 273.425 167.022 273.049C167.391 272.68 167.728 272.081 168.033 271.25L168.502 269.973L162.457 253.541H165.181L169.694 266.568H169.864L174.376 253.541H177.101L170.162 272.272C169.85 273.116 169.463 273.815 169.002 274.369C168.541 274.929 168.005 275.344 167.395 275.614C166.792 275.883 166.111 276.018 165.352 276.018ZM180.416 276.018V253.541H182.843V256.138H183.141C183.325 255.854 183.581 255.492 183.907 255.052C184.24 254.605 184.716 254.208 185.333 253.86C185.957 253.506 186.802 253.328 187.866 253.328C189.242 253.328 190.456 253.672 191.506 254.361C192.556 255.049 193.375 256.024 193.964 257.287C194.553 258.55 194.847 260.04 194.847 261.757C194.847 263.488 194.553 264.989 193.964 266.259C193.375 267.522 192.559 268.501 191.516 269.196C190.473 269.885 189.271 270.229 187.908 270.229C186.858 270.229 186.018 270.055 185.386 269.707C184.755 269.353 184.269 268.952 183.928 268.505C183.588 268.051 183.325 267.675 183.141 267.377H182.928V276.018H180.416ZM182.885 261.715C182.885 262.949 183.066 264.038 183.428 264.982C183.79 265.919 184.318 266.653 185.014 267.185C185.709 267.71 186.56 267.973 187.568 267.973C188.618 267.973 189.494 267.696 190.197 267.142C190.906 266.582 191.438 265.83 191.793 264.886C192.155 263.935 192.336 262.878 192.336 261.715C192.336 260.565 192.158 259.529 191.804 258.607C191.456 257.678 190.927 256.943 190.218 256.404C189.516 255.858 188.632 255.585 187.568 255.585C186.546 255.585 185.688 255.844 184.992 256.361C184.297 256.872 183.772 257.589 183.417 258.511C183.063 259.427 182.885 260.494 182.885 261.715ZM205.32 270.229C203.787 270.229 202.468 269.867 201.361 269.143C200.254 268.42 199.402 267.423 198.806 266.153C198.21 264.883 197.913 263.432 197.913 261.8C197.913 260.14 198.218 258.674 198.828 257.404C199.445 256.127 200.304 255.13 201.403 254.414C202.51 253.69 203.801 253.328 205.277 253.328C206.427 253.328 207.462 253.541 208.385 253.967C209.307 254.393 210.063 254.989 210.652 255.755C211.241 256.521 211.606 257.415 211.748 258.437H209.236C209.045 257.692 208.619 257.032 207.959 256.457C207.306 255.875 206.427 255.585 205.32 255.585C204.341 255.585 203.482 255.84 202.744 256.351C202.013 256.855 201.442 257.568 201.031 258.49C200.626 259.405 200.424 260.48 200.424 261.715C200.424 262.978 200.623 264.077 201.02 265.014C201.425 265.95 201.992 266.678 202.723 267.196C203.461 267.714 204.326 267.973 205.32 267.973C205.972 267.973 206.565 267.859 207.097 267.632C207.629 267.405 208.08 267.079 208.449 266.653C208.818 266.227 209.08 265.716 209.236 265.12H211.748C211.606 266.085 211.255 266.954 210.694 267.728C210.141 268.494 209.406 269.104 208.491 269.558C207.583 270.005 206.526 270.229 205.32 270.229ZM222.103 274.571V267.547H223.465C223.799 267.199 224.086 266.823 224.327 266.419C224.569 266.014 224.778 265.535 224.955 264.982C225.14 264.421 225.296 263.74 225.424 262.939C225.551 262.13 225.665 261.154 225.764 260.012L226.318 253.541H236.705V267.547H239.216V274.571H236.705V269.888H224.615V274.571H222.103ZM226.318 267.547H234.193V255.883H228.659L228.233 260.012C228.056 261.722 227.836 263.215 227.573 264.492C227.311 265.77 226.892 266.788 226.318 267.547ZM241.103 269.888V267.547H241.699C242.188 267.547 242.596 267.451 242.923 267.259C243.249 267.061 243.511 266.717 243.71 266.227C243.916 265.73 244.072 265.042 244.178 264.162C244.292 263.276 244.374 262.147 244.423 260.778L244.721 253.541H255.619V269.888H253.108V255.883H247.105L246.85 261.715C246.793 263.056 246.672 264.237 246.488 265.259C246.31 266.273 246.037 267.125 245.668 267.813C245.307 268.501 244.824 269.019 244.221 269.367C243.618 269.714 242.862 269.888 241.954 269.888H241.103ZM270.061 269.888V255.84H265.719C264.74 255.84 263.97 256.067 263.41 256.521C262.849 256.975 262.569 257.6 262.569 258.394C262.569 259.175 262.821 259.788 263.324 260.235C263.835 260.682 264.534 260.906 265.421 260.906H270.7V263.247H265.421C264.314 263.247 263.36 263.052 262.558 262.662C261.756 262.272 261.139 261.715 260.706 260.991C260.274 260.26 260.057 259.395 260.057 258.394C260.057 257.387 260.284 256.521 260.738 255.797C261.192 255.074 261.842 254.517 262.686 254.127C263.537 253.736 264.548 253.541 265.719 253.541H272.445V269.888H270.061ZM259.163 269.888L263.803 261.757H266.528L261.888 269.888H259.163ZM297.617 247.411L298.895 248.944C298.398 249.426 297.823 249.763 297.17 249.955C296.518 250.146 295.78 250.263 294.957 250.306C294.134 250.348 293.218 250.391 292.211 250.434C291.076 250.476 290.136 250.753 289.391 251.264C288.646 251.775 288.071 252.512 287.667 253.477C287.262 254.442 287.003 255.627 286.89 257.032H287.103C287.656 256.01 288.422 255.258 289.401 254.776C290.38 254.293 291.431 254.052 292.552 254.052C293.829 254.052 294.978 254.35 296 254.946C297.021 255.542 297.83 256.425 298.426 257.596C299.022 258.767 299.32 260.211 299.32 261.928C299.32 263.637 299.015 265.113 298.405 266.355C297.802 267.596 296.954 268.554 295.861 269.228C294.776 269.895 293.502 270.229 292.041 270.229C290.579 270.229 289.298 269.885 288.199 269.196C287.099 268.501 286.244 267.472 285.634 266.11C285.024 264.741 284.719 263.049 284.719 261.034V259.288C284.719 255.648 285.336 252.888 286.57 251.008C287.812 249.128 289.678 248.156 292.168 248.092C293.048 248.064 293.832 248.057 294.52 248.071C295.209 248.085 295.808 248.053 296.319 247.975C296.83 247.897 297.263 247.709 297.617 247.411ZM292.041 267.973C293.027 267.973 293.875 267.724 294.584 267.228C295.301 266.731 295.851 266.032 296.234 265.131C296.617 264.223 296.809 263.155 296.809 261.928C296.809 260.736 296.613 259.721 296.223 258.884C295.84 258.047 295.29 257.408 294.574 256.968C293.857 256.528 292.999 256.308 291.998 256.308C291.267 256.308 290.611 256.432 290.029 256.681C289.447 256.929 288.951 257.294 288.539 257.777C288.128 258.259 287.809 258.848 287.581 259.544C287.362 260.239 287.244 261.034 287.23 261.928C287.23 263.758 287.66 265.223 288.518 266.323C289.377 267.423 290.551 267.973 292.041 267.973ZM304.78 276.018C304.354 276.018 303.975 275.983 303.641 275.912C303.308 275.848 303.077 275.784 302.949 275.72L303.588 273.507C304.198 273.663 304.737 273.72 305.206 273.677C305.674 273.634 306.089 273.425 306.451 273.049C306.82 272.68 307.157 272.081 307.462 271.25L307.93 269.973L301.885 253.541H304.61L309.122 266.568H309.292L313.805 253.541H316.529L309.59 272.272C309.278 273.116 308.891 273.815 308.43 274.369C307.969 274.929 307.433 275.344 306.823 275.614C306.22 275.883 305.539 276.018 304.78 276.018ZM321.718 253.541L325.634 260.225L329.55 253.541H332.445L327.167 261.715L332.445 269.888H329.55L325.634 263.545L321.718 269.888H318.823L324.016 261.715L318.823 253.541H321.718ZM346.118 253.541V255.883H338.541V269.888H336.029V253.541H346.118ZM353.746 270.271C352.71 270.271 351.77 270.076 350.926 269.686C350.082 269.289 349.411 268.718 348.915 267.973C348.418 267.22 348.17 266.312 348.17 265.248C348.17 264.311 348.354 263.552 348.723 262.971C349.092 262.382 349.585 261.92 350.202 261.587C350.82 261.254 351.501 261.005 352.246 260.842C352.998 260.672 353.753 260.537 354.513 260.438C355.506 260.31 356.311 260.214 356.928 260.15C357.553 260.079 358.007 259.962 358.291 259.799C358.582 259.636 358.727 259.352 358.727 258.948V258.862C358.727 257.812 358.44 256.996 357.865 256.415C357.297 255.833 356.435 255.542 355.279 255.542C354.08 255.542 353.14 255.805 352.459 256.33C351.777 256.855 351.299 257.415 351.022 258.011L348.638 257.16C349.064 256.166 349.631 255.393 350.341 254.84C351.057 254.279 351.838 253.889 352.682 253.669C353.533 253.442 354.371 253.328 355.194 253.328C355.719 253.328 356.322 253.392 357.003 253.52C357.691 253.641 358.355 253.892 358.993 254.276C359.639 254.659 360.174 255.237 360.6 256.01C361.026 256.784 361.239 257.82 361.239 259.118V269.888H358.727V267.675H358.599C358.429 268.029 358.145 268.409 357.748 268.813C357.351 269.218 356.822 269.562 356.162 269.846C355.502 270.129 354.697 270.271 353.746 270.271ZM354.129 268.015C355.123 268.015 355.96 267.82 356.641 267.43C357.329 267.04 357.847 266.536 358.195 265.919C358.55 265.301 358.727 264.652 358.727 263.971V261.672C358.621 261.8 358.386 261.917 358.025 262.023C357.67 262.123 357.258 262.211 356.79 262.289C356.329 262.36 355.878 262.424 355.438 262.481C355.006 262.531 354.654 262.573 354.385 262.609C353.732 262.694 353.122 262.832 352.554 263.024C351.994 263.208 351.54 263.488 351.192 263.864C350.852 264.233 350.681 264.737 350.681 265.376C350.681 266.248 351.004 266.908 351.65 267.355C352.302 267.795 353.129 268.015 354.129 268.015ZM364.376 269.888V267.547H364.972C365.461 267.547 365.869 267.451 366.195 267.259C366.522 267.061 366.784 266.717 366.983 266.227C367.189 265.73 367.345 265.042 367.451 264.162C367.565 263.276 367.646 262.147 367.696 260.778L367.994 253.541H378.892V269.888H376.38V255.883H370.378L370.123 261.715C370.066 263.056 369.945 264.237 369.761 265.259C369.583 266.273 369.31 267.125 368.941 267.813C368.579 268.501 368.097 269.019 367.494 269.367C366.891 269.714 366.135 269.888 365.227 269.888H364.376ZM381.276 255.883V253.541H394.558V255.883H389.194V269.888H386.682V255.883H381.276ZM404.227 270.229C402.652 270.229 401.293 269.881 400.151 269.186C399.015 268.483 398.139 267.504 397.522 266.248C396.912 264.986 396.607 263.517 396.607 261.842C396.607 260.168 396.912 258.692 397.522 257.415C398.139 256.131 398.998 255.13 400.097 254.414C401.204 253.69 402.495 253.328 403.971 253.328C404.823 253.328 405.663 253.47 406.494 253.754C407.324 254.038 408.079 254.499 408.76 255.138C409.442 255.769 409.984 256.606 410.389 257.649C410.793 258.692 410.995 259.976 410.995 261.502V262.566H398.395V260.395H408.441C408.441 259.473 408.257 258.65 407.888 257.926C407.526 257.202 407.008 256.631 406.334 256.212C405.667 255.794 404.879 255.585 403.971 255.585C402.971 255.585 402.105 255.833 401.374 256.33C400.651 256.819 400.094 257.458 399.704 258.245C399.313 259.033 399.118 259.877 399.118 260.778V262.226C399.118 263.46 399.331 264.507 399.757 265.365C400.19 266.216 400.789 266.866 401.555 267.313C402.322 267.753 403.212 267.973 404.227 267.973C404.887 267.973 405.482 267.88 406.015 267.696C406.554 267.504 407.019 267.22 407.409 266.844C407.799 266.461 408.101 265.986 408.313 265.418L410.74 266.099C410.485 266.922 410.055 267.646 409.452 268.271C408.849 268.888 408.104 269.37 407.217 269.718C406.33 270.058 405.334 270.229 404.227 270.229ZM414.816 276.018V253.541H417.243V256.138H417.541C417.725 255.854 417.98 255.492 418.307 255.052C418.64 254.605 419.116 254.208 419.733 253.86C420.357 253.506 421.202 253.328 422.266 253.328C423.642 253.328 424.856 253.672 425.906 254.361C426.956 255.049 427.775 256.024 428.364 257.287C428.953 258.55 429.247 260.04 429.247 261.757C429.247 263.488 428.953 264.989 428.364 266.259C427.775 267.522 426.959 268.501 425.916 269.196C424.873 269.885 423.671 270.229 422.308 270.229C421.258 270.229 420.418 270.055 419.786 269.707C419.155 269.353 418.669 268.952 418.328 268.505C417.988 268.051 417.725 267.675 417.541 267.377H417.328V276.018H414.816ZM417.285 261.715C417.285 262.949 417.466 264.038 417.828 264.982C418.19 265.919 418.718 266.653 419.414 267.185C420.109 267.71 420.96 267.973 421.968 267.973C423.018 267.973 423.894 267.696 424.597 267.142C425.306 266.582 425.838 265.83 426.193 264.886C426.555 263.935 426.736 262.878 426.736 261.715C426.736 260.565 426.558 259.529 426.204 258.607C425.856 257.678 425.327 256.943 424.618 256.404C423.915 255.858 423.032 255.585 421.968 255.585C420.946 255.585 420.088 255.844 419.392 256.361C418.697 256.872 418.172 257.589 417.817 258.511C417.462 259.427 417.285 260.494 417.285 261.715ZM439.72 270.229C438.244 270.229 436.949 269.878 435.835 269.175C434.728 268.473 433.863 267.49 433.238 266.227C432.621 264.964 432.312 263.488 432.312 261.8C432.312 260.097 432.621 258.611 433.238 257.341C433.863 256.071 434.728 255.084 435.835 254.382C436.949 253.68 438.244 253.328 439.72 253.328C441.195 253.328 442.487 253.68 443.594 254.382C444.707 255.084 445.573 256.071 446.19 257.341C446.815 258.611 447.127 260.097 447.127 261.8C447.127 263.488 446.815 264.964 446.19 266.227C445.573 267.49 444.707 268.473 443.594 269.175C442.487 269.878 441.195 270.229 439.72 270.229ZM439.72 267.973C440.841 267.973 441.763 267.685 442.487 267.11C443.21 266.536 443.746 265.78 444.094 264.844C444.441 263.907 444.615 262.892 444.615 261.8C444.615 260.707 444.441 259.689 444.094 258.745C443.746 257.802 443.21 257.039 442.487 256.457C441.763 255.875 440.841 255.585 439.72 255.585C438.599 255.585 437.676 255.875 436.953 256.457C436.229 257.039 435.693 257.802 435.346 258.745C434.998 259.689 434.824 260.707 434.824 261.8C434.824 262.892 434.998 263.907 435.346 264.844C435.693 265.78 436.229 266.536 436.953 267.11C437.676 267.685 438.599 267.973 439.72 267.973ZM450.961 269.888V253.541H457.644C459.404 253.541 460.802 253.939 461.838 254.733C462.873 255.528 463.391 256.578 463.391 257.883C463.391 258.877 463.097 259.646 462.508 260.193C461.919 260.732 461.164 261.097 460.241 261.289C460.844 261.374 461.43 261.587 461.997 261.928C462.572 262.268 463.047 262.736 463.423 263.332C463.799 263.921 463.987 264.645 463.987 265.503C463.987 266.341 463.774 267.089 463.349 267.749C462.923 268.409 462.313 268.93 461.518 269.313C460.724 269.697 459.773 269.888 458.666 269.888H450.961ZM453.345 267.589H458.666C459.532 267.589 460.209 267.384 460.699 266.972C461.188 266.561 461.433 266 461.433 265.291C461.433 264.446 461.188 263.783 460.699 263.3C460.209 262.811 459.532 262.566 458.666 262.566H453.345V267.589ZM453.345 260.395H457.644C458.318 260.395 458.897 260.303 459.379 260.118C459.862 259.927 460.231 259.657 460.486 259.309C460.748 258.955 460.88 258.536 460.88 258.054C460.88 257.365 460.592 256.826 460.018 256.436C459.443 256.039 458.652 255.84 457.644 255.84H453.345V260.395ZM474.771 269.888V267.547H475.367C475.856 267.547 476.264 267.451 476.591 267.259C476.917 267.061 477.18 266.717 477.378 266.227C477.584 265.73 477.74 265.042 477.847 264.162C477.96 263.276 478.042 262.147 478.091 260.778L478.389 253.541H489.287V269.888H486.776V255.883H480.773L480.518 261.715C480.461 263.056 480.341 264.237 480.156 265.259C479.979 266.273 479.706 267.125 479.337 267.813C478.975 268.501 478.492 269.019 477.889 269.367C477.286 269.714 476.531 269.888 475.622 269.888H474.771ZM500.537 270.229C499.061 270.229 497.766 269.878 496.652 269.175C495.545 268.473 494.68 267.49 494.055 266.227C493.438 264.964 493.129 263.488 493.129 261.8C493.129 260.097 493.438 258.611 494.055 257.341C494.68 256.071 495.545 255.084 496.652 254.382C497.766 253.68 499.061 253.328 500.537 253.328C502.012 253.328 503.304 253.68 504.41 254.382C505.524 255.084 506.39 256.071 507.007 257.341C507.632 258.611 507.944 260.097 507.944 261.8C507.944 263.488 507.632 264.964 507.007 266.227C506.39 267.49 505.524 268.473 504.41 269.175C503.304 269.878 502.012 270.229 500.537 270.229ZM500.537 267.973C501.658 267.973 502.58 267.685 503.304 267.11C504.027 266.536 504.563 265.78 504.911 264.844C505.258 263.907 505.432 262.892 505.432 261.8C505.432 260.707 505.258 259.689 504.911 258.745C504.563 257.802 504.027 257.039 503.304 256.457C502.58 255.875 501.658 255.585 500.537 255.585C499.416 255.585 498.493 255.875 497.77 256.457C497.046 257.039 496.51 257.802 496.162 258.745C495.815 259.689 495.641 260.707 495.641 261.8C495.641 262.892 495.815 263.907 496.162 264.844C496.51 265.78 497.046 266.536 497.77 267.11C498.493 267.685 499.416 267.973 500.537 267.973ZM520.718 266.483L526.422 253.541H528.806L521.739 269.888H519.696L512.757 253.541H515.098L520.718 266.483ZM514.289 253.541V269.888H511.778V253.541H514.289ZM527.146 269.888V253.541H529.657V269.888H527.146ZM546.387 247.411L547.665 248.944C547.168 249.426 546.593 249.763 545.94 249.955C545.288 250.146 544.55 250.263 543.727 250.306C542.904 250.348 541.989 250.391 540.981 250.434C539.846 250.476 538.906 250.753 538.161 251.264C537.416 251.775 536.841 252.512 536.437 253.477C536.032 254.442 535.773 255.627 535.66 257.032H535.873C536.426 256.01 537.192 255.258 538.171 254.776C539.15 254.293 540.201 254.052 541.322 254.052C542.599 254.052 543.748 254.35 544.77 254.946C545.791 255.542 546.6 256.425 547.196 257.596C547.792 258.767 548.09 260.211 548.09 261.928C548.09 263.637 547.785 265.113 547.175 266.355C546.572 267.596 545.724 268.554 544.631 269.228C543.546 269.895 542.272 270.229 540.811 270.229C539.349 270.229 538.068 269.885 536.969 269.196C535.869 268.501 535.014 267.472 534.404 266.11C533.794 264.741 533.489 263.049 533.489 261.034V259.288C533.489 255.648 534.106 252.888 535.34 251.008C536.582 249.128 538.448 248.156 540.938 248.092C541.818 248.064 542.602 248.057 543.29 248.071C543.979 248.085 544.578 248.053 545.089 247.975C545.6 247.897 546.033 247.709 546.387 247.411ZM540.811 267.973C541.797 267.973 542.645 267.724 543.354 267.228C544.071 266.731 544.621 266.032 545.004 265.131C545.387 264.223 545.579 263.155 545.579 261.928C545.579 260.736 545.383 259.721 544.993 258.884C544.61 258.047 544.06 257.408 543.344 256.968C542.627 256.528 541.769 256.308 540.768 256.308C540.037 256.308 539.381 256.432 538.799 256.681C538.217 256.929 537.721 257.294 537.309 257.777C536.898 258.259 536.579 258.848 536.351 259.544C536.132 260.239 536.014 261.034 536 261.928C536 263.758 536.43 265.223 537.288 266.323C538.147 267.423 539.321 267.973 540.811 267.973ZM556.743 270.271C555.707 270.271 554.767 270.076 553.922 269.686C553.078 269.289 552.408 268.718 551.911 267.973C551.414 267.22 551.166 266.312 551.166 265.248C551.166 264.311 551.35 263.552 551.719 262.971C552.088 262.382 552.581 261.92 553.199 261.587C553.816 261.254 554.497 261.005 555.242 260.842C555.994 260.672 556.75 260.537 557.509 260.438C558.502 260.31 559.308 260.214 559.925 260.15C560.549 260.079 561.003 259.962 561.287 259.799C561.578 259.636 561.723 259.352 561.723 258.948V258.862C561.723 257.812 561.436 256.996 560.861 256.415C560.294 255.833 559.432 255.542 558.275 255.542C557.076 255.542 556.136 255.805 555.455 256.33C554.774 256.855 554.295 257.415 554.018 258.011L551.634 257.16C552.06 256.166 552.628 255.393 553.337 254.84C554.054 254.279 554.834 253.889 555.678 253.669C556.53 253.442 557.367 253.328 558.19 253.328C558.715 253.328 559.318 253.392 559.999 253.52C560.688 253.641 561.351 253.892 561.989 254.276C562.635 254.659 563.171 255.237 563.596 256.01C564.022 256.784 564.235 257.82 564.235 259.118V269.888H561.723V267.675H561.596C561.425 268.029 561.142 268.409 560.744 268.813C560.347 269.218 559.818 269.562 559.159 269.846C558.499 270.129 557.693 270.271 556.743 270.271ZM557.126 268.015C558.119 268.015 558.956 267.82 559.637 267.43C560.326 267.04 560.844 266.536 561.191 265.919C561.546 265.301 561.723 264.652 561.723 263.971V261.672C561.617 261.8 561.383 261.917 561.021 262.023C560.666 262.123 560.255 262.211 559.786 262.289C559.325 262.36 558.875 262.424 558.435 262.481C558.002 262.531 557.651 262.573 557.381 262.609C556.728 262.694 556.118 262.832 555.551 263.024C554.99 263.208 554.536 263.488 554.188 263.864C553.848 264.233 553.678 264.737 553.678 265.376C553.678 266.248 554 266.908 554.646 267.355C555.299 267.795 556.125 268.015 557.126 268.015ZM568.819 276.018V253.541H571.246V256.138H571.544C571.728 255.854 571.984 255.492 572.31 255.052C572.644 254.605 573.119 254.208 573.736 253.86C574.361 253.506 575.205 253.328 576.269 253.328C577.646 253.328 578.859 253.672 579.909 254.361C580.959 255.049 581.778 256.024 582.367 257.287C582.956 258.55 583.251 260.04 583.251 261.757C583.251 263.488 582.956 264.989 582.367 266.259C581.778 267.522 580.962 268.501 579.92 269.196C578.877 269.885 577.674 270.229 576.312 270.229C575.262 270.229 574.421 270.055 573.789 269.707C573.158 269.353 572.672 268.952 572.331 268.505C571.991 268.051 571.728 267.675 571.544 267.377H571.331V276.018H568.819ZM571.288 261.715C571.288 262.949 571.469 264.038 571.831 264.982C572.193 265.919 572.722 266.653 573.417 267.185C574.112 267.71 574.964 267.973 575.971 267.973C577.021 267.973 577.897 267.696 578.6 267.142C579.309 266.582 579.841 265.83 580.196 264.886C580.558 263.935 580.739 262.878 580.739 261.715C580.739 260.565 580.562 259.529 580.207 258.607C579.859 257.678 579.331 256.943 578.621 256.404C577.919 255.858 577.035 255.585 575.971 255.585C574.949 255.585 574.091 255.844 573.396 256.361C572.7 256.872 572.175 257.589 571.821 258.511C571.466 259.427 571.288 260.494 571.288 261.715ZM585.337 274.571V267.547H586.699C587.032 267.199 587.32 266.823 587.561 266.419C587.802 266.014 588.011 265.535 588.189 264.982C588.373 264.421 588.529 263.74 588.657 262.939C588.785 262.13 588.898 261.154 588.998 260.012L589.551 253.541H599.938V267.547H602.45V274.571H599.938V269.888H587.848V274.571H585.337ZM589.551 267.547H597.427V255.883H591.892L591.467 260.012C591.289 261.722 591.069 263.215 590.807 264.492C590.544 265.77 590.126 266.788 589.551 267.547ZM610.594 270.271C609.558 270.271 608.618 270.076 607.774 269.686C606.929 269.289 606.259 268.718 605.762 267.973C605.266 267.22 605.017 266.312 605.017 265.248C605.017 264.311 605.202 263.552 605.571 262.971C605.94 262.382 606.433 261.92 607.05 261.587C607.667 261.254 608.348 261.005 609.093 260.842C609.846 260.672 610.601 260.537 611.36 260.438C612.354 260.31 613.159 260.214 613.776 260.15C614.401 260.079 614.855 259.962 615.138 259.799C615.429 259.636 615.575 259.352 615.575 258.948V258.862C615.575 257.812 615.287 256.996 614.713 256.415C614.145 255.833 613.283 255.542 612.127 255.542C610.928 255.542 609.987 255.805 609.306 256.33C608.625 256.855 608.146 257.415 607.87 258.011L605.486 257.16C605.911 256.166 606.479 255.393 607.188 254.84C607.905 254.279 608.685 253.889 609.53 253.669C610.381 253.442 611.218 253.328 612.041 253.328C612.566 253.328 613.17 253.392 613.851 253.52C614.539 253.641 615.202 253.892 615.841 254.276C616.486 254.659 617.022 255.237 617.448 256.01C617.874 256.784 618.086 257.82 618.086 259.118V269.888H615.575V267.675H615.447C615.277 268.029 614.993 268.409 614.596 268.813C614.198 269.218 613.67 269.562 613.01 269.846C612.35 270.129 611.545 270.271 610.594 270.271ZM610.977 268.015C611.97 268.015 612.808 267.82 613.489 267.43C614.177 267.04 614.695 266.536 615.043 265.919C615.397 265.301 615.575 264.652 615.575 263.971V261.672C615.468 261.8 615.234 261.917 614.872 262.023C614.518 262.123 614.106 262.211 613.638 262.289C613.177 262.36 612.726 262.424 612.286 262.481C611.853 262.531 611.502 262.573 611.233 262.609C610.58 262.694 609.97 262.832 609.402 263.024C608.842 263.208 608.387 263.488 608.04 263.864C607.699 264.233 607.529 264.737 607.529 265.376C607.529 266.248 607.852 266.908 608.497 267.355C609.15 267.795 609.977 268.015 610.977 268.015Z" fill="white"/>
<path d="M0 303.888C15.2649 292.548 13.3198 270.589 13.3198 270.589L31.6344 292.233C21.9935 299.793 6.02561 303.258 0 303.888Z" fill="#27ACA1"/>
<rect x="11.6548" y="51.0952" width="691" height="136" rx="43.2892" fill="#27ACA1"/>
<path d="M49.5737 84.2992V106.095H46.9344V87.0663H46.8067L41.4854 90.5996V87.9177L46.9344 84.2992H49.5737ZM55.3313 101.625V99.4543L64.9097 84.2992H66.4848V87.6623H65.4205L58.1836 99.1137V99.284H71.0824V101.625H55.3313ZM65.5908 106.095V100.965V99.9545V84.2992H68.1024V106.095H65.5908ZM86.0538 102.392L93.9293 89.7482H96.8241V106.095H94.3124V93.4518L86.4795 106.095H83.5421V89.7482H86.0538V102.392ZM109.257 96.9V99.2414H100.615V96.9H109.257ZM102.744 89.7482V106.095H100.232V89.7482H102.744ZM114.281 106.436C112.805 106.436 111.51 106.085 110.396 105.382C109.289 104.68 108.424 103.697 107.799 102.434C107.182 101.171 106.873 99.6955 106.873 98.0069C106.873 96.3041 107.182 94.8176 107.799 93.5476C108.424 92.2776 109.289 91.2914 110.396 90.589C111.51 89.8866 112.805 89.5354 114.281 89.5354C115.756 89.5354 117.048 89.8866 118.154 90.589C119.268 91.2914 120.134 92.2776 120.751 93.5476C121.376 94.8176 121.688 96.3041 121.688 98.0069C121.688 99.6955 121.376 101.171 120.751 102.434C120.134 103.697 119.268 104.68 118.154 105.382C117.048 106.085 115.756 106.436 114.281 106.436ZM114.281 104.18C115.402 104.18 116.324 103.892 117.048 103.318C117.771 102.743 118.307 101.987 118.655 101.051C119.002 100.114 119.176 99.0995 119.176 98.0069C119.176 96.9142 119.002 95.8961 118.655 94.9524C118.307 94.0088 117.771 93.2461 117.048 92.6643C116.324 92.0825 115.402 91.7916 114.281 91.7916C113.16 91.7916 112.237 92.0825 111.513 92.6643C110.79 93.2461 110.254 94.0088 109.906 94.9524C109.559 95.8961 109.385 96.9142 109.385 98.0069C109.385 99.0995 109.559 100.114 109.906 101.051C110.254 101.987 110.79 102.743 111.513 103.318C112.237 103.892 113.16 104.18 114.281 104.18ZM124.327 106.095V103.754H124.923C125.413 103.754 125.821 103.658 126.147 103.467C126.473 103.268 126.736 102.924 126.935 102.434C127.14 101.938 127.296 101.249 127.403 100.37C127.516 99.4826 127.598 98.3545 127.648 96.9852L127.946 89.7482H138.844V106.095H136.332V92.0896H130.33L130.074 97.9217C130.017 99.2627 129.897 100.444 129.712 101.466C129.535 102.48 129.262 103.332 128.893 104.02C128.531 104.708 128.048 105.226 127.445 105.574C126.842 105.921 126.087 106.095 125.179 106.095H124.327ZM153.286 106.095V92.047H148.943C147.964 92.047 147.194 92.2741 146.634 92.7281C146.073 93.1822 145.793 93.8066 145.793 94.6012C145.793 95.3817 146.045 95.9954 146.549 96.4424C147.06 96.8894 147.759 97.1129 148.645 97.1129H153.924V99.4543H148.645C147.539 99.4543 146.584 99.2591 145.783 98.8689C144.981 98.4787 144.364 97.9217 143.931 97.198C143.498 96.4672 143.282 95.6016 143.282 94.6012C143.282 93.5937 143.509 92.7281 143.963 92.0045C144.417 91.2808 145.066 90.7238 145.91 90.3336C146.762 89.9433 147.773 89.7482 148.943 89.7482H155.669V106.095H153.286ZM142.388 106.095L147.028 97.9643H149.752L145.112 106.095H142.388ZM168.709 106.095V89.7482H175.393C177.152 89.7482 178.55 90.1456 179.586 90.9402C180.622 91.7348 181.14 92.7849 181.14 94.0904C181.14 95.0837 180.845 95.8535 180.256 96.3998C179.668 96.9391 178.912 97.3045 177.99 97.496C178.593 97.5812 179.178 97.794 179.746 98.1346C180.32 98.4751 180.796 98.9434 181.172 99.5394C181.548 100.128 181.736 100.852 181.736 101.71C181.736 102.548 181.523 103.296 181.097 103.956C180.672 104.616 180.061 105.137 179.267 105.521C178.472 105.904 177.521 106.095 176.415 106.095H168.709ZM171.093 103.796H176.415C177.28 103.796 177.958 103.591 178.447 103.179C178.937 102.768 179.182 102.207 179.182 101.498C179.182 100.653 178.937 99.9899 178.447 99.5075C177.958 99.0179 177.28 98.7731 176.415 98.7731H171.093V103.796ZM171.093 96.602H175.393C176.067 96.602 176.645 96.5098 177.128 96.3253C177.61 96.1338 177.979 95.8642 178.234 95.5165C178.497 95.1617 178.628 94.7431 178.628 94.2607C178.628 93.5725 178.341 93.0332 177.766 92.643C177.191 92.2457 176.4 92.047 175.393 92.047H171.093V96.602ZM192.179 106.436C190.646 106.436 189.327 106.074 188.22 105.35C187.113 104.627 186.262 103.63 185.666 102.36C185.07 101.09 184.772 99.6387 184.772 98.0069C184.772 96.3466 185.077 94.8815 185.687 93.6115C186.304 92.3344 187.163 91.3375 188.262 90.6209C189.369 89.8972 190.66 89.5354 192.136 89.5354C193.286 89.5354 194.322 89.7482 195.244 90.1739C196.166 90.5996 196.922 91.1956 197.511 91.9619C198.1 92.7281 198.465 93.6221 198.607 94.6438H196.095C195.904 93.8988 195.478 93.239 194.818 92.6643C194.165 92.0825 193.286 91.7916 192.179 91.7916C191.2 91.7916 190.341 92.047 189.603 92.5579C188.873 93.0616 188.301 93.7747 187.89 94.697C187.485 95.6123 187.283 96.6872 187.283 97.9217C187.283 99.1846 187.482 100.284 187.879 101.221C188.284 102.157 188.851 102.885 189.582 103.403C190.32 103.921 191.186 104.18 192.179 104.18C192.832 104.18 193.424 104.066 193.956 103.839C194.488 103.612 194.939 103.286 195.308 102.86C195.677 102.434 195.939 101.923 196.095 101.327H198.607C198.465 102.292 198.114 103.161 197.553 103.935C197 104.701 196.266 105.311 195.35 105.765C194.442 106.212 193.385 106.436 192.179 106.436ZM200.991 92.0896V89.7482H214.273V92.0896H208.909V106.095H206.397V92.0896H200.991ZM219.554 112.225C219.128 112.225 218.749 112.19 218.415 112.119C218.082 112.055 217.851 111.991 217.724 111.927L218.362 109.714C218.972 109.87 219.512 109.927 219.98 109.884C220.448 109.841 220.863 109.632 221.225 109.256C221.594 108.887 221.931 108.288 222.236 107.457L222.704 106.18L216.659 89.7482H219.384L223.896 102.775H224.067L228.579 89.7482H231.304L224.365 108.479C224.052 109.323 223.666 110.022 223.205 110.576C222.743 111.136 222.208 111.551 221.598 111.821C220.994 112.091 220.313 112.225 219.554 112.225ZM234.619 106.095V89.7482H247.475V106.095H244.963V92.0896H237.13V106.095H234.619ZM254.574 102.392L262.449 89.7482H265.344V106.095H262.832V93.4518L254.999 106.095H252.062V89.7482H254.574V102.392ZM268.497 106.095V103.754H269.093C269.582 103.754 269.99 103.658 270.317 103.467C270.643 103.268 270.905 102.924 271.104 102.434C271.31 101.938 271.466 101.249 271.572 100.37C271.686 99.4826 271.767 98.3545 271.817 96.9852L272.115 89.7482H283.013V106.095H280.501V92.0896H274.499L274.244 97.9217C274.187 99.2627 274.066 100.444 273.882 101.466C273.704 102.48 273.431 103.332 273.062 104.02C272.7 104.708 272.218 105.226 271.615 105.574C271.012 105.921 270.256 106.095 269.348 106.095H268.497ZM292.432 106.478C291.396 106.478 290.456 106.283 289.612 105.893C288.767 105.496 288.097 104.925 287.6 104.18C287.103 103.427 286.855 102.519 286.855 101.455C286.855 100.519 287.04 99.7593 287.409 99.1775C287.777 98.5887 288.271 98.1275 288.888 97.794C289.505 97.4605 290.186 97.2122 290.931 97.049C291.683 96.8788 292.439 96.7439 293.198 96.6446C294.191 96.5169 294.997 96.4211 295.614 96.3573C296.238 96.2863 296.692 96.1692 296.976 96.0061C297.267 95.8429 297.413 95.5591 297.413 95.1547V95.0695C297.413 94.0194 297.125 93.2035 296.55 92.6217C295.983 92.0399 295.121 91.749 293.964 91.749C292.765 91.749 291.825 92.0115 291.144 92.5366C290.463 93.0616 289.984 93.6221 289.707 94.2181L287.323 93.3667C287.749 92.3734 288.317 91.6 289.026 91.0466C289.743 90.4861 290.523 90.0959 291.368 89.8759C292.219 89.6489 293.056 89.5354 293.879 89.5354C294.404 89.5354 295.007 89.5992 295.688 89.7269C296.377 89.8476 297.04 90.0994 297.679 90.4826C298.324 90.8657 298.86 91.4439 299.286 92.2173C299.711 92.9907 299.924 94.0265 299.924 95.3249V106.095H297.413V103.882H297.285C297.115 104.236 296.831 104.616 296.433 105.02C296.036 105.425 295.508 105.769 294.848 106.053C294.188 106.336 293.383 106.478 292.432 106.478ZM292.815 104.222C293.808 104.222 294.645 104.027 295.327 103.637C296.015 103.247 296.533 102.743 296.88 102.126C297.235 101.508 297.413 100.859 297.413 100.178V97.8792C297.306 98.0069 297.072 98.1239 296.71 98.2304C296.355 98.3297 295.944 98.4184 295.476 98.4964C295.014 98.5674 294.564 98.6312 294.124 98.688C293.691 98.7377 293.34 98.7802 293.07 98.8157C292.418 98.9008 291.807 99.0392 291.24 99.2308C290.679 99.4152 290.225 99.6955 289.878 100.072C289.537 100.44 289.367 100.944 289.367 101.583C289.367 102.455 289.69 103.115 290.335 103.562C290.988 104.002 291.815 104.222 292.815 104.222ZM312.937 106.095V89.7482H319.621C321.38 89.7482 322.778 90.1456 323.814 90.9402C324.85 91.7348 325.368 92.7849 325.368 94.0904C325.368 95.0837 325.073 95.8535 324.485 96.3998C323.896 96.9391 323.14 97.3045 322.218 97.496C322.821 97.5812 323.406 97.794 323.974 98.1346C324.548 98.4751 325.024 98.9434 325.4 99.5394C325.776 100.128 325.964 100.852 325.964 101.71C325.964 102.548 325.751 103.296 325.325 103.956C324.9 104.616 324.289 105.137 323.495 105.521C322.7 105.904 321.749 106.095 320.643 106.095H312.937ZM315.321 103.796H320.643C321.508 103.796 322.186 103.591 322.675 103.179C323.165 102.768 323.41 102.207 323.41 101.498C323.41 100.653 323.165 99.9899 322.675 99.5075C322.186 99.0179 321.508 98.7731 320.643 98.7731H315.321V103.796ZM315.321 96.602H319.621C320.295 96.602 320.873 96.5098 321.356 96.3253C321.838 96.1338 322.207 95.8642 322.462 95.5165C322.725 95.1617 322.856 94.7431 322.856 94.2607C322.856 93.5725 322.569 93.0332 321.994 92.643C321.42 92.2457 320.628 92.047 319.621 92.047H315.321V96.602ZM344.836 106.436C343.303 106.436 341.984 106.074 340.877 105.35C339.77 104.627 338.919 103.63 338.323 102.36C337.727 101.09 337.429 99.6387 337.429 98.0069C337.429 96.3466 337.734 94.8815 338.344 93.6115C338.961 92.3344 339.82 91.3375 340.919 90.6209C342.026 89.8972 343.317 89.5354 344.793 89.5354C345.943 89.5354 346.979 89.7482 347.901 90.1739C348.823 90.5996 349.579 91.1956 350.168 91.9619C350.757 92.7281 351.122 93.6221 351.264 94.6438H348.752C348.561 93.8988 348.135 93.239 347.475 92.6643C346.822 92.0825 345.943 91.7916 344.836 91.7916C343.857 91.7916 342.998 92.047 342.26 92.5579C341.53 93.0616 340.958 93.7747 340.547 94.697C340.142 95.6123 339.94 96.6872 339.94 97.9217C339.94 99.1846 340.139 100.284 340.536 101.221C340.941 102.157 341.508 102.885 342.239 103.403C342.977 103.921 343.843 104.18 344.836 104.18C345.489 104.18 346.081 104.066 346.613 103.839C347.145 103.612 347.596 103.286 347.965 102.86C348.334 102.434 348.596 101.923 348.752 101.327H351.264C351.122 102.292 350.771 103.161 350.21 103.935C349.657 104.701 348.923 105.311 348.007 105.765C347.099 106.212 346.042 106.436 344.836 106.436ZM357.447 102.392L365.323 89.7482H368.218V106.095H365.706V93.4518L357.873 106.095H354.936V89.7482H357.447V102.392ZM371.37 106.095V103.754H371.966C372.456 103.754 372.864 103.658 373.19 103.467C373.517 103.268 373.779 102.924 373.978 102.434C374.184 101.938 374.34 101.249 374.446 100.37C374.56 99.4826 374.641 98.3545 374.691 96.9852L374.989 89.7482H385.887V106.095H383.375V92.0896H377.373L377.117 97.9217C377.061 99.2627 376.94 100.444 376.756 101.466C376.578 102.48 376.305 103.332 375.936 104.02C375.574 104.708 375.092 105.226 374.489 105.574C373.886 105.921 373.13 106.095 372.222 106.095H371.37ZM391.527 112.225C391.102 112.225 390.722 112.19 390.389 112.119C390.055 112.055 389.825 111.991 389.697 111.927L390.335 109.714C390.946 109.87 391.485 109.927 391.953 109.884C392.421 109.841 392.836 109.632 393.198 109.256C393.567 108.887 393.904 108.288 394.209 107.457L394.678 106.18L388.633 89.7482H391.357L395.87 102.775H396.04L400.552 89.7482H403.277L396.338 108.479C396.026 109.323 395.639 110.022 395.178 110.576C394.717 111.136 394.181 111.551 393.571 111.821C392.968 112.091 392.287 112.225 391.527 112.225ZM425.961 96.7723V99.1137H416.937V96.7723H425.961ZM417.533 89.7482V106.095H415.021V89.7482H417.533ZM427.877 89.7482V106.095H425.365V89.7482H427.877ZM439.105 106.436C437.629 106.436 436.334 106.085 435.221 105.382C434.114 104.68 433.248 103.697 432.624 102.434C432.006 101.171 431.698 99.6955 431.698 98.0069C431.698 96.3041 432.006 94.8176 432.624 93.5476C433.248 92.2776 434.114 91.2914 435.221 90.589C436.334 89.8866 437.629 89.5354 439.105 89.5354C440.581 89.5354 441.872 89.8866 442.979 90.589C444.093 91.2914 444.958 92.2776 445.576 93.5476C446.2 94.8176 446.512 96.3041 446.512 98.0069C446.512 99.6955 446.2 101.171 445.576 102.434C444.958 103.697 444.093 104.68 442.979 105.382C441.872 106.085 440.581 106.436 439.105 106.436ZM439.105 104.18C440.226 104.18 441.148 103.892 441.872 103.318C442.596 102.743 443.131 101.987 443.479 101.051C443.827 100.114 444.001 99.0995 444.001 98.0069C444.001 96.9142 443.827 95.8961 443.479 94.9524C443.131 94.0088 442.596 93.2461 441.872 92.6643C441.148 92.0825 440.226 91.7916 439.105 91.7916C437.984 91.7916 437.062 92.0825 436.338 92.6643C435.614 93.2461 435.079 94.0088 434.731 94.9524C434.383 95.8961 434.209 96.9142 434.209 98.0069C434.209 99.0995 434.383 100.114 434.731 101.051C435.079 101.987 435.614 102.743 436.338 103.318C437.062 103.892 437.984 104.18 439.105 104.18ZM450.346 106.095V89.7482H457.03C458.789 89.7482 460.187 90.1456 461.223 90.9402C462.259 91.7348 462.777 92.7849 462.777 94.0904C462.777 95.0837 462.482 95.8535 461.893 96.3998C461.305 96.9391 460.549 97.3045 459.627 97.496C460.23 97.5812 460.815 97.794 461.383 98.1346C461.957 98.4751 462.433 98.9434 462.809 99.5394C463.185 100.128 463.373 100.852 463.373 101.71C463.373 102.548 463.16 103.296 462.734 103.956C462.308 104.616 461.698 105.137 460.904 105.521C460.109 105.904 459.158 106.095 458.051 106.095H450.346ZM452.73 103.796H458.051C458.917 103.796 459.595 103.591 460.084 103.179C460.574 102.768 460.819 102.207 460.819 101.498C460.819 100.653 460.574 99.9899 460.084 99.5075C459.595 99.0179 458.917 98.7731 458.051 98.7731H452.73V103.796ZM452.73 96.602H457.03C457.704 96.602 458.282 96.5098 458.765 96.3253C459.247 96.1338 459.616 95.8642 459.871 95.5165C460.134 95.1617 460.265 94.7431 460.265 94.2607C460.265 93.5725 459.978 93.0332 459.403 92.643C458.828 92.2457 458.037 92.047 457.03 92.047H452.73V96.602ZM471.985 106.478C470.949 106.478 470.009 106.283 469.165 105.893C468.321 105.496 467.65 104.925 467.154 104.18C466.657 103.427 466.409 102.519 466.409 101.455C466.409 100.519 466.593 99.7593 466.962 99.1775C467.331 98.5887 467.824 98.1275 468.441 97.794C469.059 97.4605 469.74 97.2122 470.485 97.049C471.237 96.8788 471.992 96.7439 472.752 96.6446C473.745 96.5169 474.55 96.4211 475.167 96.3573C475.792 96.2863 476.246 96.1692 476.53 96.0061C476.821 95.8429 476.966 95.5591 476.966 95.1547V95.0695C476.966 94.0194 476.679 93.2035 476.104 92.6217C475.536 92.0399 474.674 91.749 473.518 91.749C472.319 91.749 471.379 92.0115 470.697 92.5366C470.016 93.0616 469.537 93.6221 469.261 94.2181L466.877 93.3667C467.303 92.3734 467.87 91.6 468.58 91.0466C469.296 90.4861 470.077 90.0959 470.921 89.8759C471.772 89.6489 472.61 89.5354 473.433 89.5354C473.958 89.5354 474.561 89.5992 475.242 89.7269C475.93 89.8476 476.593 90.0994 477.232 90.4826C477.878 90.8657 478.413 91.4439 478.839 92.2173C479.265 92.9907 479.478 94.0265 479.478 95.3249V106.095H476.966V103.882H476.838C476.668 104.236 476.384 104.616 475.987 105.02C475.59 105.425 475.061 105.769 474.401 106.053C473.741 106.336 472.936 106.478 471.985 106.478ZM472.368 104.222C473.362 104.222 474.199 104.027 474.88 103.637C475.568 103.247 476.086 102.743 476.434 102.126C476.789 101.508 476.966 100.859 476.966 100.178V97.8792C476.86 98.0069 476.625 98.1239 476.264 98.2304C475.909 98.3297 475.497 98.4184 475.029 98.4964C474.568 98.5674 474.117 98.6312 473.677 98.688C473.245 98.7377 472.893 98.7802 472.624 98.8157C471.971 98.9008 471.361 99.0392 470.793 99.2308C470.233 99.4152 469.779 99.6955 469.431 100.072C469.09 100.44 468.92 100.944 468.92 101.583C468.92 102.455 469.243 103.115 469.889 103.562C470.541 104.002 471.368 104.222 472.368 104.222ZM493.896 106.095V92.047H489.553C488.574 92.047 487.805 92.2741 487.244 92.7281C486.684 93.1822 486.403 93.8066 486.403 94.6012C486.403 95.3817 486.655 95.9954 487.159 96.4424C487.67 96.8894 488.369 97.1129 489.255 97.1129H494.534V99.4543H489.255C488.149 99.4543 487.194 99.2591 486.393 98.8689C485.591 98.4787 484.974 97.9217 484.541 97.198C484.108 96.4672 483.892 95.6016 483.892 94.6012C483.892 93.5937 484.119 92.7281 484.573 92.0045C485.027 91.2808 485.676 90.7238 486.52 90.3336C487.372 89.9433 488.383 89.7482 489.553 89.7482H496.28V106.095H493.896ZM482.998 106.095L487.638 97.9643H490.362L485.722 106.095H482.998ZM510.213 95.1972C510.213 92.5153 510.561 90.0498 511.256 87.8006C511.959 85.5444 512.959 83.4691 514.258 81.5747H516.471C515.96 82.2771 515.481 83.1427 515.034 84.1715C514.595 85.1932 514.208 86.3178 513.874 87.5452C513.541 88.7656 513.278 90.0285 513.087 91.334C512.902 92.6395 512.81 93.9272 512.81 95.1972C512.81 96.8858 512.973 98.5993 513.3 100.338C513.626 102.076 514.066 103.69 514.619 105.18C515.173 106.67 515.79 107.883 516.471 108.82H514.258C512.959 106.925 511.959 104.854 511.256 102.604C510.561 100.348 510.213 97.8792 510.213 95.1972ZM527.074 84.0012C527.968 84.0083 528.862 84.1786 529.756 84.5121C530.65 84.8456 531.466 85.399 532.204 86.1723C532.941 86.9386 533.534 87.9851 533.981 89.3119C534.428 90.6387 534.651 92.3024 534.651 94.3032C534.651 96.2402 534.467 97.9607 534.098 99.4649C533.736 100.962 533.211 102.225 532.523 103.254C531.842 104.282 531.012 105.063 530.032 105.595C529.06 106.127 527.961 106.393 526.733 106.393C525.513 106.393 524.424 106.152 523.466 105.67C522.515 105.18 521.735 104.502 521.125 103.637C520.522 102.764 520.135 101.753 519.965 100.604H522.561C522.796 101.604 523.26 102.431 523.956 103.083C524.658 103.729 525.584 104.052 526.733 104.052C528.415 104.052 529.742 103.318 530.714 101.849C531.693 100.38 532.182 98.3049 532.182 95.6229H532.012C531.615 96.2189 531.143 96.7333 530.597 97.1661C530.05 97.5989 529.444 97.9324 528.777 98.1665C528.11 98.4006 527.4 98.5177 526.648 98.5177C525.399 98.5177 524.254 98.2091 523.211 97.5918C522.175 96.9674 521.345 96.1125 520.72 95.0269C520.103 93.9343 519.794 92.6856 519.794 91.2808C519.794 89.9469 520.092 88.7265 520.688 87.6197C521.291 86.5058 522.136 85.6189 523.221 84.9591C524.314 84.2992 525.598 83.98 527.074 84.0012ZM527.074 86.3426C526.18 86.3426 525.375 86.5661 524.658 87.0131C523.948 87.453 523.384 88.049 522.966 88.801C522.554 89.546 522.349 90.3726 522.349 91.2808C522.349 92.1889 522.547 93.0155 522.945 93.7605C523.349 94.4984 523.899 95.0873 524.594 95.5271C525.297 95.9599 526.095 96.1763 526.989 96.1763C527.663 96.1763 528.291 96.0451 528.872 95.7826C529.454 95.513 529.962 95.1476 530.394 94.6864C530.834 94.2181 531.178 93.6895 531.427 93.1006C531.675 92.5047 531.799 91.8838 531.799 91.2382C531.799 90.3868 531.593 89.5886 531.182 88.8436C530.777 88.0986 530.217 87.4956 529.5 87.0344C528.791 86.5732 527.982 86.3426 527.074 86.3426ZM546.201 106.393C544.796 106.393 543.544 106.152 542.444 105.67C541.352 105.187 540.483 104.517 539.837 103.658C539.198 102.792 538.851 101.789 538.794 100.646H541.476C541.533 101.349 541.774 101.955 542.2 102.466C542.625 102.97 543.182 103.36 543.87 103.637C544.559 103.913 545.321 104.052 546.159 104.052C547.095 104.052 547.925 103.889 548.649 103.562C549.373 103.236 549.94 102.782 550.352 102.2C550.763 101.618 550.969 100.944 550.969 100.178C550.969 99.3762 550.77 98.6702 550.373 98.0601C549.976 97.4428 549.394 96.9603 548.628 96.6127C547.861 96.265 546.925 96.0912 545.818 96.0912H544.073V93.7498H545.818C546.684 93.7498 547.443 93.5937 548.096 93.2816C548.755 92.9694 549.27 92.5295 549.639 91.9619C550.015 91.3943 550.203 90.7273 550.203 89.9611C550.203 89.2232 550.04 88.5811 549.713 88.0348C549.387 87.4885 548.926 87.0628 548.33 86.7577C547.741 86.4526 547.046 86.3 546.244 86.3C545.492 86.3 544.782 86.4384 544.115 86.7151C543.455 86.9847 542.916 87.3785 542.498 87.8964C542.079 88.4073 541.852 89.0245 541.816 89.7482H539.262C539.305 88.6059 539.649 87.6055 540.295 86.747C540.94 85.8814 541.785 85.2074 542.828 84.7249C543.878 84.2425 545.031 84.0012 546.286 84.0012C547.634 84.0012 548.791 84.2744 549.756 84.8207C550.721 85.3599 551.462 86.073 551.98 86.9599C552.498 87.8468 552.757 88.8046 552.757 89.8334C552.757 91.0608 552.434 92.1073 551.789 92.9729C551.15 93.8385 550.281 94.4381 549.181 94.7715V94.9418C550.558 95.1688 551.632 95.7542 552.406 96.6978C553.179 97.6344 553.566 98.7944 553.566 100.178C553.566 101.363 553.243 102.427 552.597 103.371C551.959 104.307 551.086 105.045 549.979 105.584C548.872 106.124 547.613 106.393 546.201 106.393ZM567.327 95.5804V97.9217H557.791V95.5804H567.327ZM581.58 106.095V92.047H577.238C576.258 92.047 575.489 92.2741 574.928 92.7281C574.368 93.1822 574.087 93.8066 574.087 94.6012C574.087 95.3817 574.339 95.9954 574.843 96.4424C575.354 96.8894 576.053 97.1129 576.94 97.1129H582.218V99.4543H576.94C575.833 99.4543 574.878 99.2591 574.077 98.8689C573.275 98.4787 572.658 97.9217 572.225 97.198C571.792 96.4672 571.576 95.6016 571.576 94.6012C571.576 93.5937 571.803 92.7281 572.257 92.0045C572.711 91.2808 573.36 90.7238 574.204 90.3336C575.056 89.9433 576.067 89.7482 577.238 89.7482H583.964V106.095H581.58ZM570.682 106.095L575.322 97.9643H578.046L573.406 106.095H570.682ZM593.938 96.9C593.938 99.582 593.587 102.051 592.885 104.307C592.19 106.556 591.193 108.628 589.894 110.523H587.681C588.191 109.82 588.667 108.955 589.107 107.926C589.554 106.904 589.944 105.783 590.277 104.563C590.611 103.335 590.87 102.069 591.054 100.763C591.246 99.4507 591.342 98.163 591.342 96.9C591.342 95.2114 591.178 93.498 590.852 91.7597C590.526 90.0214 590.086 88.4073 589.532 86.9173C588.979 85.4273 588.362 84.2141 587.681 83.2775H589.894C591.193 85.1719 592.19 87.2472 592.885 89.5034C593.587 91.7526 593.938 94.2181 593.938 96.9ZM41.9536 159.225V136.748H44.3801V139.345H44.6781C44.8626 139.061 45.118 138.699 45.4444 138.259C45.7779 137.812 46.2532 137.415 46.8705 137.068C47.4949 136.713 48.3392 136.535 49.4034 136.535C50.7799 136.535 51.9931 136.879 53.0432 137.568C54.0933 138.256 54.9127 139.231 55.5016 140.494C56.0905 141.757 56.385 143.247 56.385 144.964C56.385 146.695 56.0905 148.196 55.5016 149.466C54.9127 150.729 54.0968 151.708 53.0538 152.403C52.0109 153.092 50.8083 153.436 49.446 153.436C48.3959 153.436 47.5552 153.262 46.9237 152.914C46.2923 152.56 45.8063 152.159 45.4657 151.712C45.1251 151.258 44.8626 150.882 44.6781 150.584H44.4653V159.225H41.9536ZM44.4227 144.922C44.4227 146.156 44.6036 147.245 44.9655 148.189C45.3273 149.126 45.8559 149.86 46.5512 150.392C47.2465 150.917 48.098 151.18 49.1054 151.18C50.1555 151.18 51.0318 150.903 51.7342 150.349C52.4437 149.789 52.9758 149.037 53.3305 148.093C53.6924 147.142 53.8733 146.085 53.8733 144.922C53.8733 143.772 53.6959 142.736 53.3412 141.814C52.9935 140.885 52.465 140.15 51.7554 139.611C51.053 139.065 50.1697 138.792 49.1054 138.792C48.0838 138.792 47.2253 139.051 46.5299 139.569C45.8346 140.079 45.3096 140.796 44.9548 141.718C44.6001 142.634 44.4227 143.701 44.4227 144.922ZM67.0701 153.436C65.495 153.436 64.1363 153.088 62.994 152.393C61.8588 151.69 60.9826 150.711 60.3653 149.455C59.7551 148.193 59.45 146.724 59.45 145.049C59.45 143.375 59.7551 141.899 60.3653 140.622C60.9826 139.338 61.8411 138.338 62.9408 137.621C64.0476 136.897 65.3389 136.535 66.8147 136.535C67.6661 136.535 68.5068 136.677 69.337 136.961C70.1671 137.245 70.9227 137.706 71.6038 138.345C72.285 138.976 72.8277 139.813 73.2322 140.856C73.6366 141.899 73.8388 143.183 73.8388 144.709V145.773H61.238V143.602H71.2846C71.2846 142.68 71.1001 141.857 70.7311 141.133C70.3693 140.409 69.8514 139.838 69.1773 139.42C68.5104 139.001 67.7228 138.792 66.8147 138.792C65.8143 138.792 64.9487 139.04 64.2179 139.537C63.4942 140.026 62.9372 140.665 62.547 141.452C62.1568 142.24 61.9617 143.084 61.9617 143.985V145.433C61.9617 146.667 62.1745 147.714 62.6002 148.572C63.033 149.424 63.6326 150.073 64.3988 150.52C65.1651 150.96 66.0555 151.18 67.0701 151.18C67.7299 151.18 68.3259 151.087 68.8581 150.903C69.3973 150.711 69.862 150.427 70.2522 150.051C70.6425 149.668 70.944 149.193 71.1568 148.625L73.5834 149.306C73.3279 150.129 72.8987 150.853 72.2956 151.478C71.6925 152.095 70.9475 152.577 70.0607 152.925C69.1738 153.265 68.1769 153.436 67.0701 153.436ZM75.9141 157.778V150.754H77.2763C77.6098 150.406 77.8971 150.03 78.1384 149.626C78.3796 149.221 78.5889 148.742 78.7663 148.189C78.9508 147.628 79.1068 146.947 79.2346 146.146C79.3623 145.337 79.4758 144.361 79.5751 143.219L80.1285 136.748H90.5157V150.754H93.0273V157.778H90.5157V153.095H78.4257V157.778H75.9141ZM80.1285 150.754H88.004V139.09H82.4699L82.0442 143.219C81.8668 144.929 81.6469 146.422 81.3844 147.699C81.1218 148.977 80.7032 149.995 80.1285 150.754ZM101.172 153.478C100.136 153.478 99.1956 153.283 98.3513 152.893C97.507 152.496 96.8365 151.925 96.3398 151.18C95.8432 150.427 95.5948 149.519 95.5948 148.455C95.5948 147.519 95.7793 146.759 96.1483 146.178C96.5172 145.589 97.0103 145.127 97.6276 144.794C98.2448 144.461 98.926 144.212 99.671 144.049C100.423 143.879 101.179 143.744 101.938 143.645C102.931 143.517 103.736 143.421 104.354 143.357C104.978 143.286 105.432 143.169 105.716 143.006C106.007 142.843 106.152 142.559 106.152 142.155V142.07C106.152 141.019 105.865 140.204 105.29 139.622C104.723 139.04 103.861 138.749 102.704 138.749C101.505 138.749 100.565 139.012 99.8838 139.537C99.2027 140.062 98.7238 140.622 98.4471 141.218L96.0631 140.367C96.4888 139.373 97.0564 138.6 97.7659 138.047C98.4825 137.486 99.263 137.096 100.107 136.876C100.959 136.649 101.796 136.535 102.619 136.535C103.144 136.535 103.747 136.599 104.428 136.727C105.116 136.848 105.78 137.099 106.418 137.483C107.064 137.866 107.6 138.444 108.025 139.217C108.451 139.991 108.664 141.027 108.664 142.325V153.095H106.152V150.882H106.025C105.854 151.236 105.57 151.616 105.173 152.02C104.776 152.425 104.247 152.769 103.587 153.053C102.928 153.336 102.122 153.478 101.172 153.478ZM101.555 151.222C102.548 151.222 103.385 151.027 104.066 150.637C104.755 150.247 105.272 149.743 105.62 149.126C105.975 148.508 106.152 147.859 106.152 147.178V144.879C106.046 145.007 105.812 145.124 105.45 145.23C105.095 145.33 104.684 145.418 104.215 145.496C103.754 145.567 103.304 145.631 102.864 145.688C102.431 145.738 102.08 145.78 101.81 145.816C101.157 145.901 100.547 146.039 99.9796 146.231C99.4191 146.415 98.965 146.695 98.6173 147.072C98.2768 147.44 98.1065 147.944 98.1065 148.583C98.1065 149.455 98.4293 150.115 99.075 150.562C99.7277 151.002 100.554 151.222 101.555 151.222ZM113.248 153.095V136.748H115.76V143.857H117.42L123.295 136.748H126.53L119.932 144.624L126.615 153.095H123.38L118.016 146.199H115.76V153.095H113.248ZM142.201 136.748V150.754H144.5V158.374H141.988V153.095H129.345V136.748H131.857V150.754H139.69V136.748H142.201ZM150.88 149.392L158.756 136.748H161.651V153.095H159.139V140.452L151.306 153.095H148.369V136.748H150.88V149.392ZM176.085 153.095V139.047H171.742C170.763 139.047 169.994 139.274 169.433 139.728C168.872 140.182 168.592 140.807 168.592 141.601C168.592 142.382 168.844 142.995 169.348 143.442C169.859 143.889 170.558 144.113 171.444 144.113H176.723V146.454H171.444C170.338 146.454 169.383 146.259 168.582 145.869C167.78 145.479 167.163 144.922 166.73 144.198C166.297 143.467 166.081 142.602 166.081 141.601C166.081 140.594 166.308 139.728 166.762 139.004C167.216 138.281 167.865 137.724 168.709 137.334C169.561 136.943 170.572 136.748 171.742 136.748H178.469V153.095H176.085ZM165.187 153.095L169.827 144.964H172.551L167.911 153.095H165.187ZM199.341 133.896H202.789C204.407 133.896 205.844 134.258 207.1 134.982C208.356 135.705 209.342 136.713 210.058 138.004C210.775 139.295 211.133 140.792 211.133 142.495C211.133 144.198 210.775 145.699 210.058 146.997C209.342 148.295 208.356 149.31 207.1 150.041C205.844 150.772 204.407 151.137 202.789 151.137H199.341C197.724 151.137 196.287 150.775 195.031 150.051C193.775 149.328 192.789 148.32 192.072 147.029C191.356 145.738 190.998 144.241 190.998 142.538C190.998 140.835 191.356 139.334 192.072 138.036C192.789 136.738 193.775 135.723 195.031 134.992C196.287 134.261 197.724 133.896 199.341 133.896ZM199.341 136.237C198.107 136.237 197.064 136.496 196.212 137.014C195.368 137.532 194.726 138.263 194.286 139.207C193.853 140.15 193.637 141.261 193.637 142.538C193.637 143.801 193.853 144.9 194.286 145.837C194.726 146.774 195.368 147.501 196.212 148.019C197.064 148.537 198.107 148.796 199.341 148.796H202.789C204.024 148.796 205.063 148.537 205.908 148.019C206.759 147.501 207.401 146.77 207.834 145.826C208.274 144.883 208.494 143.772 208.494 142.495C208.494 141.232 208.274 140.133 207.834 139.196C207.401 138.259 206.759 137.532 205.908 137.014C205.063 136.496 204.024 136.237 202.789 136.237H199.341ZM202.406 130.916V153.989H199.767V130.916H202.406ZM222.068 153.436C220.493 153.436 219.135 153.088 217.992 152.393C216.857 151.69 215.981 150.711 215.364 149.455C214.753 148.193 214.448 146.724 214.448 145.049C214.448 143.375 214.753 141.899 215.364 140.622C215.981 139.338 216.839 138.338 217.939 137.621C219.046 136.897 220.337 136.535 221.813 136.535C222.664 136.535 223.505 136.677 224.335 136.961C225.165 137.245 225.921 137.706 226.602 138.345C227.283 138.976 227.826 139.813 228.231 140.856C228.635 141.899 228.837 143.183 228.837 144.709V145.773H216.236V143.602H226.283C226.283 142.68 226.098 141.857 225.73 141.133C225.368 140.409 224.85 139.838 224.176 139.42C223.509 139.001 222.721 138.792 221.813 138.792C220.813 138.792 219.947 139.04 219.216 139.537C218.493 140.026 217.936 140.665 217.545 141.452C217.155 142.24 216.96 143.084 216.96 143.985V145.433C216.96 146.667 217.173 147.714 217.599 148.572C218.031 149.424 218.631 150.073 219.397 150.52C220.163 150.96 221.054 151.18 222.068 151.18C222.728 151.18 223.324 151.087 223.856 150.903C224.396 150.711 224.86 150.427 225.251 150.051C225.641 149.668 225.942 149.193 226.155 148.625L228.582 149.306C228.326 150.129 227.897 150.853 227.294 151.478C226.691 152.095 225.946 152.577 225.059 152.925C224.172 153.265 223.175 153.436 222.068 153.436ZM230.912 157.778V150.754H232.275C232.608 150.406 232.896 150.03 233.137 149.626C233.378 149.221 233.587 148.742 233.765 148.189C233.949 147.628 234.105 146.947 234.233 146.146C234.361 145.337 234.474 144.361 234.573 143.219L235.127 136.748H245.514V150.754H248.026V157.778H245.514V153.095H233.424V157.778H230.912ZM235.127 150.754H243.002V139.09H237.468L237.043 143.219C236.865 144.929 236.645 146.422 236.383 147.699C236.12 148.977 235.702 149.995 235.127 150.754ZM258.213 153.436C256.638 153.436 255.279 153.088 254.137 152.393C253.002 151.69 252.126 150.711 251.508 149.455C250.898 148.193 250.593 146.724 250.593 145.049C250.593 143.375 250.898 141.899 251.508 140.622C252.126 139.338 252.984 138.338 254.084 137.621C255.191 136.897 256.482 136.535 257.958 136.535C258.809 136.535 259.65 136.677 260.48 136.961C261.31 137.245 262.066 137.706 262.747 138.345C263.428 138.976 263.971 139.813 264.375 140.856C264.78 141.899 264.982 143.183 264.982 144.709V145.773H252.381V143.602H262.428C262.428 142.68 262.243 141.857 261.874 141.133C261.512 140.409 260.995 139.838 260.321 139.42C259.654 139.001 258.866 138.792 257.958 138.792C256.957 138.792 256.092 139.04 255.361 139.537C254.637 140.026 254.08 140.665 253.69 141.452C253.3 142.24 253.105 143.084 253.105 143.985V145.433C253.105 146.667 253.318 147.714 253.743 148.572C254.176 149.424 254.776 150.073 255.542 150.52C256.308 150.96 257.199 151.18 258.213 151.18C258.873 151.18 259.469 151.087 260.001 150.903C260.54 150.711 261.005 150.427 261.395 150.051C261.786 149.668 262.087 149.193 262.3 148.625L264.727 149.306C264.471 150.129 264.042 150.853 263.439 151.478C262.836 152.095 262.091 152.577 261.204 152.925C260.317 153.265 259.32 153.436 258.213 153.436ZM268.803 159.225V136.748H271.229V139.345H271.527C271.712 139.061 271.967 138.699 272.293 138.259C272.627 137.812 273.102 137.415 273.72 137.068C274.344 136.713 275.188 136.535 276.252 136.535C277.629 136.535 278.842 136.879 279.892 137.568C280.942 138.256 281.762 139.231 282.351 140.494C282.94 141.757 283.234 143.247 283.234 144.964C283.234 146.695 282.94 148.196 282.351 149.466C281.762 150.729 280.946 151.708 279.903 152.403C278.86 153.092 277.657 153.436 276.295 153.436C275.245 153.436 274.404 153.262 273.773 152.914C273.141 152.56 272.655 152.159 272.315 151.712C271.974 151.258 271.712 150.882 271.527 150.584H271.314V159.225H268.803ZM271.272 144.922C271.272 146.156 271.453 147.245 271.815 148.189C272.176 149.126 272.705 149.86 273.4 150.392C274.096 150.917 274.947 151.18 275.954 151.18C277.005 151.18 277.881 150.903 278.583 150.349C279.293 149.789 279.825 149.037 280.18 148.093C280.541 147.142 280.722 146.085 280.722 144.922C280.722 143.772 280.545 142.736 280.19 141.814C279.843 140.885 279.314 140.15 278.604 139.611C277.902 139.065 277.019 138.792 275.954 138.792C274.933 138.792 274.074 139.051 273.379 139.569C272.684 140.079 272.159 140.796 271.804 141.718C271.449 142.634 271.272 143.701 271.272 144.922ZM291.876 153.478C290.84 153.478 289.9 153.283 289.055 152.893C288.211 152.496 287.541 151.925 287.044 151.18C286.547 150.427 286.299 149.519 286.299 148.455C286.299 147.519 286.484 146.759 286.852 146.178C287.221 145.589 287.715 145.127 288.332 144.794C288.949 144.461 289.63 144.212 290.375 144.049C291.127 143.879 291.883 143.744 292.642 143.645C293.635 143.517 294.441 143.421 295.058 143.357C295.682 143.286 296.136 143.169 296.42 143.006C296.711 142.843 296.856 142.559 296.856 142.155V142.07C296.856 141.019 296.569 140.204 295.994 139.622C295.427 139.04 294.565 138.749 293.408 138.749C292.209 138.749 291.269 139.012 290.588 139.537C289.907 140.062 289.428 140.622 289.151 141.218L286.767 140.367C287.193 139.373 287.761 138.6 288.47 138.047C289.187 137.486 289.967 137.096 290.811 136.876C291.663 136.649 292.5 136.535 293.323 136.535C293.848 136.535 294.451 136.599 295.132 136.727C295.821 136.848 296.484 137.099 297.123 137.483C297.768 137.866 298.304 138.444 298.73 139.217C299.155 139.991 299.368 141.027 299.368 142.325V153.095H296.856V150.882H296.729C296.558 151.236 296.275 151.616 295.877 152.02C295.48 152.425 294.951 152.769 294.292 153.053C293.632 153.336 292.826 153.478 291.876 153.478ZM292.259 151.222C293.252 151.222 294.089 151.027 294.771 150.637C295.459 150.247 295.977 149.743 296.324 149.126C296.679 148.508 296.856 147.859 296.856 147.178V144.879C296.75 145.007 296.516 145.124 296.154 145.23C295.799 145.33 295.388 145.418 294.92 145.496C294.458 145.567 294.008 145.631 293.568 145.688C293.135 145.738 292.784 145.78 292.514 145.816C291.862 145.901 291.251 146.039 290.684 146.231C290.123 146.415 289.669 146.695 289.322 147.072C288.981 147.44 288.811 147.944 288.811 148.583C288.811 149.455 289.134 150.115 289.779 150.562C290.432 151.002 291.258 151.222 292.259 151.222ZM302.505 153.095V150.754H303.101C303.591 150.754 303.999 150.658 304.325 150.467C304.651 150.268 304.914 149.924 305.112 149.434C305.318 148.938 305.474 148.249 305.581 147.37C305.694 146.483 305.776 145.355 305.825 143.985L306.123 136.748H317.021V153.095H314.51V139.09H308.507L308.252 144.922C308.195 146.263 308.075 147.444 307.89 148.466C307.713 149.48 307.44 150.332 307.071 151.02C306.709 151.708 306.226 152.226 305.623 152.574C305.02 152.921 304.265 153.095 303.356 153.095H302.505ZM323.801 142.665H328.484C330.399 142.665 331.864 143.152 332.879 144.124C333.893 145.096 334.401 146.327 334.401 147.817C334.401 148.796 334.174 149.686 333.72 150.488C333.266 151.282 332.599 151.917 331.719 152.393C330.839 152.861 329.761 153.095 328.484 153.095H321.63V136.748H324.141V150.754H328.484C329.477 150.754 330.293 150.491 330.931 149.966C331.57 149.441 331.889 148.767 331.889 147.944C331.889 147.079 331.57 146.373 330.931 145.826C330.293 145.28 329.477 145.007 328.484 145.007H323.801V142.665ZM349.165 143.772V146.114H340.14V143.772H349.165ZM340.736 136.748V153.095H338.224V136.748H340.736ZM351.08 136.748V153.095H348.569V136.748H351.08ZM362.308 153.436C360.832 153.436 359.538 153.085 358.424 152.382C357.317 151.68 356.451 150.697 355.827 149.434C355.21 148.171 354.901 146.695 354.901 145.007C354.901 143.304 355.21 141.818 355.827 140.548C356.451 139.278 357.317 138.291 358.424 137.589C359.538 136.887 360.832 136.535 362.308 136.535C363.784 136.535 365.075 136.887 366.182 137.589C367.296 138.291 368.162 139.278 368.779 140.548C369.403 141.818 369.715 143.304 369.715 145.007C369.715 146.695 369.403 148.171 368.779 149.434C368.162 150.697 367.296 151.68 366.182 152.382C365.075 153.085 363.784 153.436 362.308 153.436ZM362.308 151.18C363.429 151.18 364.352 150.892 365.075 150.318C365.799 149.743 366.335 148.987 366.682 148.051C367.03 147.114 367.204 146.099 367.204 145.007C367.204 143.914 367.03 142.896 366.682 141.952C366.335 141.009 365.799 140.246 365.075 139.664C364.352 139.082 363.429 138.792 362.308 138.792C361.187 138.792 360.265 139.082 359.541 139.664C358.817 140.246 358.282 141.009 357.934 141.952C357.587 142.896 357.413 143.914 357.413 145.007C357.413 146.099 357.587 147.114 357.934 148.051C358.282 148.987 358.817 149.743 359.541 150.318C360.265 150.892 361.187 151.18 362.308 151.18ZM383.639 136.748V139.09H376.061V153.095H373.549V136.748H383.639ZM393.097 153.436C391.621 153.436 390.327 153.085 389.213 152.382C388.106 151.68 387.24 150.697 386.616 149.434C385.999 148.171 385.69 146.695 385.69 145.007C385.69 143.304 385.999 141.818 386.616 140.548C387.24 139.278 388.106 138.291 389.213 137.589C390.327 136.887 391.621 136.535 393.097 136.535C394.573 136.535 395.864 136.887 396.971 137.589C398.085 138.291 398.951 139.278 399.568 140.548C400.192 141.818 400.504 143.304 400.504 145.007C400.504 146.695 400.192 148.171 399.568 149.434C398.951 150.697 398.085 151.68 396.971 152.382C395.864 153.085 394.573 153.436 393.097 153.436ZM393.097 151.18C394.218 151.18 395.141 150.892 395.864 150.318C396.588 149.743 397.124 148.987 397.471 148.051C397.819 147.114 397.993 146.099 397.993 145.007C397.993 143.914 397.819 142.896 397.471 141.952C397.124 141.009 396.588 140.246 395.864 139.664C395.141 139.082 394.218 138.792 393.097 138.792C391.976 138.792 391.054 139.082 390.33 139.664C389.606 140.246 389.071 141.009 388.723 141.952C388.375 142.896 388.202 143.914 388.202 145.007C388.202 146.099 388.375 147.114 388.723 148.051C389.071 148.987 389.606 149.743 390.33 150.318C391.054 150.892 391.976 151.18 393.097 151.18ZM411.746 148.923H414.428C414.484 149.661 414.818 150.222 415.428 150.605C416.045 150.988 416.847 151.18 417.833 151.18C418.841 151.18 419.703 150.974 420.419 150.562C421.136 150.144 421.494 149.47 421.494 148.54C421.494 147.994 421.359 147.519 421.09 147.114C420.82 146.703 420.441 146.383 419.951 146.156C419.462 145.929 418.883 145.816 418.216 145.816H415.407V143.559H418.216C419.217 143.559 419.955 143.332 420.43 142.878C420.912 142.424 421.154 141.857 421.154 141.176C421.154 140.445 420.895 139.859 420.377 139.42C419.859 138.973 419.124 138.749 418.174 138.749C417.216 138.749 416.418 138.965 415.779 139.398C415.141 139.824 414.804 140.374 414.768 141.048H412.129C412.157 140.168 412.427 139.391 412.938 138.717C413.448 138.036 414.144 137.504 415.024 137.121C415.903 136.73 416.911 136.535 418.046 136.535C419.195 136.535 420.192 136.738 421.037 137.142C421.888 137.539 422.544 138.082 423.005 138.77C423.474 139.451 423.708 140.225 423.708 141.09C423.708 142.013 423.449 142.758 422.931 143.325C422.413 143.893 421.764 144.297 420.983 144.539V144.709C421.601 144.751 422.136 144.95 422.59 145.305C423.052 145.653 423.41 146.11 423.665 146.678C423.921 147.238 424.048 147.859 424.048 148.54C424.048 149.534 423.782 150.399 423.25 151.137C422.718 151.868 421.987 152.435 421.058 152.84C420.128 153.237 419.068 153.436 417.876 153.436C416.719 153.436 415.683 153.248 414.768 152.872C413.853 152.489 413.126 151.96 412.586 151.286C412.054 150.605 411.774 149.817 411.746 148.923ZM432.387 153.478C431.351 153.478 430.411 153.283 429.567 152.893C428.722 152.496 428.052 151.925 427.555 151.18C427.059 150.427 426.81 149.519 426.81 148.455C426.81 147.519 426.995 146.759 427.364 146.178C427.733 145.589 428.226 145.127 428.843 144.794C429.46 144.461 430.141 144.212 430.886 144.049C431.638 143.879 432.394 143.744 433.153 143.645C434.146 143.517 434.952 143.421 435.569 143.357C436.193 143.286 436.647 143.169 436.931 143.006C437.222 142.843 437.368 142.559 437.368 142.155V142.07C437.368 141.019 437.08 140.204 436.506 139.622C435.938 139.04 435.076 138.749 433.919 138.749C432.72 138.749 431.78 139.012 431.099 139.537C430.418 140.062 429.939 140.622 429.662 141.218L427.278 140.367C427.704 139.373 428.272 138.6 428.981 138.047C429.698 137.486 430.478 137.096 431.323 136.876C432.174 136.649 433.011 136.535 433.834 136.535C434.359 136.535 434.962 136.599 435.644 136.727C436.332 136.848 436.995 137.099 437.634 137.483C438.279 137.866 438.815 138.444 439.241 139.217C439.666 139.991 439.879 141.027 439.879 142.325V153.095H437.368V150.882H437.24C437.07 151.236 436.786 151.616 436.389 152.02C435.991 152.425 435.463 152.769 434.803 153.053C434.143 153.336 433.338 153.478 432.387 153.478ZM432.77 151.222C433.763 151.222 434.601 151.027 435.282 150.637C435.97 150.247 436.488 149.743 436.836 149.126C437.19 148.508 437.368 147.859 437.368 147.178V144.879C437.261 145.007 437.027 145.124 436.665 145.23C436.31 145.33 435.899 145.418 435.431 145.496C434.97 145.567 434.519 145.631 434.079 145.688C433.646 145.738 433.295 145.78 433.025 145.816C432.373 145.901 431.763 146.039 431.195 146.231C430.634 146.415 430.18 146.695 429.833 147.072C429.492 147.44 429.322 147.944 429.322 148.583C429.322 149.455 429.645 150.115 430.29 150.562C430.943 151.002 431.77 151.222 432.77 151.222ZM444.464 153.095V136.748H446.975V143.857H448.635L454.51 136.748H457.745L451.147 144.624L457.831 153.095H454.595L449.231 146.199H446.975V153.095H444.464ZM466.528 153.436C465.053 153.436 463.758 153.085 462.644 152.382C461.537 151.68 460.671 150.697 460.047 149.434C459.43 148.171 459.121 146.695 459.121 145.007C459.121 143.304 459.43 141.818 460.047 140.548C460.671 139.278 461.537 138.291 462.644 137.589C463.758 136.887 465.053 136.535 466.528 136.535C468.004 136.535 469.295 136.887 470.402 137.589C471.516 138.291 472.382 139.278 472.999 140.548C473.623 141.818 473.936 143.304 473.936 145.007C473.936 146.695 473.623 148.171 472.999 149.434C472.382 150.697 471.516 151.68 470.402 152.382C469.295 153.085 468.004 153.436 466.528 153.436ZM466.528 151.18C467.649 151.18 468.572 150.892 469.295 150.318C470.019 149.743 470.555 148.987 470.902 148.051C471.25 147.114 471.424 146.099 471.424 145.007C471.424 143.914 471.25 142.896 470.902 141.952C470.555 141.009 470.019 140.246 469.295 139.664C468.572 139.082 467.649 138.792 466.528 138.792C465.407 138.792 464.485 139.082 463.761 139.664C463.038 140.246 462.502 141.009 462.154 141.952C461.807 142.896 461.633 143.914 461.633 145.007C461.633 146.099 461.807 147.114 462.154 148.051C462.502 148.987 463.038 149.743 463.761 150.318C464.485 150.892 465.407 151.18 466.528 151.18ZM488.71 143.772V146.114H479.685V143.772H488.71ZM480.281 136.748V153.095H477.769V136.748H480.281ZM490.626 136.748V153.095H488.114V136.748H490.626ZM500.023 153.478C498.987 153.478 498.047 153.283 497.203 152.893C496.359 152.496 495.688 151.925 495.191 151.18C494.695 150.427 494.446 149.519 494.446 148.455C494.446 147.519 494.631 146.759 495 146.178C495.369 145.589 495.862 145.127 496.479 144.794C497.096 144.461 497.778 144.212 498.523 144.049C499.275 143.879 500.03 143.744 500.789 143.645C501.783 143.517 502.588 143.421 503.205 143.357C503.83 143.286 504.284 143.169 504.567 143.006C504.858 142.843 505.004 142.559 505.004 142.155V142.07C505.004 141.019 504.716 140.204 504.142 139.622C503.574 139.04 502.712 138.749 501.556 138.749C500.357 138.749 499.416 139.012 498.735 139.537C498.054 140.062 497.575 140.622 497.299 141.218L494.915 140.367C495.34 139.373 495.908 138.6 496.617 138.047C497.334 137.486 498.115 137.096 498.959 136.876C499.81 136.649 500.647 136.535 501.471 136.535C501.996 136.535 502.599 136.599 503.28 136.727C503.968 136.848 504.631 137.099 505.27 137.483C505.916 137.866 506.451 138.444 506.877 139.217C507.303 139.991 507.515 141.027 507.515 142.325V153.095H505.004V150.882H504.876C504.706 151.236 504.422 151.616 504.025 152.02C503.627 152.425 503.099 152.769 502.439 153.053C501.779 153.336 500.974 153.478 500.023 153.478ZM500.406 151.222C501.4 151.222 502.237 151.027 502.918 150.637C503.606 150.247 504.124 149.743 504.472 149.126C504.826 148.508 505.004 147.859 505.004 147.178V144.879C504.897 145.007 504.663 145.124 504.301 145.23C503.947 145.33 503.535 145.418 503.067 145.496C502.606 145.567 502.155 145.631 501.715 145.688C501.282 145.738 500.931 145.78 500.662 145.816C500.009 145.901 499.399 146.039 498.831 146.231C498.271 146.415 497.817 146.695 497.469 147.072C497.128 147.44 496.958 147.944 496.958 148.583C496.958 149.455 497.281 150.115 497.927 150.562C498.579 151.002 499.406 151.222 500.406 151.222ZM538.153 131.299V153.095H535.599L523.721 135.982H523.509V153.095H520.869V131.299H523.423L535.343 148.455H535.556V131.299H538.153ZM559.143 131.299V153.095H556.503V134.066H556.376L551.054 137.6V134.918L556.503 131.299H559.143ZM573.074 131.299V153.095H570.434V134.066H570.307L564.985 137.6V134.918L570.434 131.299H573.074ZM586.153 153.393C584.905 153.393 583.78 153.145 582.78 152.648C581.779 152.152 580.978 151.47 580.374 150.605C579.771 149.739 579.441 148.753 579.385 147.646H581.939C582.038 148.632 582.485 149.448 583.28 150.094C584.082 150.733 585.039 151.052 586.153 151.052C587.047 151.052 587.842 150.843 588.537 150.424C589.24 150.005 589.79 149.431 590.187 148.7C590.591 147.962 590.794 147.128 590.794 146.199C590.794 145.248 590.584 144.4 590.166 143.655C589.754 142.903 589.187 142.311 588.463 141.878C587.739 141.445 586.913 141.225 585.983 141.218C585.316 141.211 584.632 141.314 583.929 141.527C583.227 141.732 582.648 141.999 582.194 142.325L579.725 142.027L581.045 131.299H592.369V133.641H583.259L582.492 140.069H582.62C583.067 139.714 583.628 139.42 584.302 139.185C584.976 138.951 585.678 138.834 586.409 138.834C587.743 138.834 588.931 139.153 589.974 139.792C591.024 140.423 591.847 141.289 592.443 142.389C593.046 143.489 593.348 144.744 593.348 146.156C593.348 147.547 593.036 148.789 592.411 149.881C591.794 150.967 590.943 151.825 589.857 152.457C588.771 153.081 587.537 153.393 586.153 153.393ZM606.984 141.027V143.368H597.448V141.027H606.984ZM619.236 133.896H622.684C624.302 133.896 625.738 134.258 626.994 134.982C628.25 135.705 629.236 136.713 629.953 138.004C630.67 139.295 631.028 140.792 631.028 142.495C631.028 144.198 630.67 145.699 629.953 146.997C629.236 148.295 628.25 149.31 626.994 150.041C625.738 150.772 624.302 151.137 622.684 151.137H619.236C617.618 151.137 616.181 150.775 614.926 150.051C613.67 149.328 612.684 148.32 611.967 147.029C611.25 145.738 610.892 144.241 610.892 142.538C610.892 140.835 611.25 139.334 611.967 138.036C612.684 136.738 613.67 135.723 614.926 134.992C616.181 134.261 617.618 133.896 619.236 133.896ZM619.236 136.237C618.001 136.237 616.958 136.496 616.107 137.014C615.263 137.532 614.621 138.263 614.181 139.207C613.748 140.15 613.531 141.261 613.531 142.538C613.531 143.801 613.748 144.9 614.181 145.837C614.621 146.774 615.263 147.501 616.107 148.019C616.958 148.537 618.001 148.796 619.236 148.796H622.684C623.919 148.796 624.958 148.537 625.802 148.019C626.654 147.501 627.296 146.77 627.729 145.826C628.169 144.883 628.388 143.772 628.388 142.495C628.388 141.232 628.169 140.133 627.729 139.196C627.296 138.259 626.654 137.532 625.802 137.014C624.958 136.496 623.919 136.237 622.684 136.237H619.236ZM622.301 130.916V153.989H619.662V130.916H622.301ZM642.431 153.393C641.026 153.393 639.774 153.152 638.674 152.67C637.582 152.187 636.713 151.517 636.067 150.658C635.428 149.792 635.081 148.789 635.024 147.646H637.706C637.763 148.349 638.004 148.955 638.43 149.466C638.855 149.97 639.412 150.36 640.101 150.637C640.789 150.913 641.552 151.052 642.389 151.052C643.325 151.052 644.155 150.889 644.879 150.562C645.603 150.236 646.17 149.782 646.582 149.2C646.993 148.618 647.199 147.944 647.199 147.178C647.199 146.376 647.001 145.67 646.603 145.06C646.206 144.443 645.624 143.96 644.858 143.613C644.092 143.265 643.155 143.091 642.048 143.091H640.303V140.75H642.048C642.914 140.75 643.673 140.594 644.326 140.282C644.986 139.969 645.5 139.529 645.869 138.962C646.245 138.394 646.433 137.727 646.433 136.961C646.433 136.223 646.27 135.581 645.943 135.035C645.617 134.488 645.156 134.063 644.56 133.758C643.971 133.453 643.276 133.3 642.474 133.3C641.722 133.3 641.012 133.438 640.345 133.715C639.686 133.985 639.146 134.378 638.728 134.896C638.309 135.407 638.082 136.025 638.047 136.748H635.492C635.535 135.606 635.879 134.606 636.525 133.747C637.17 132.881 638.015 132.207 639.058 131.725C640.108 131.242 641.261 131.001 642.516 131.001C643.865 131.001 645.021 131.274 645.986 131.821C646.951 132.36 647.692 133.073 648.21 133.96C648.728 134.847 648.987 135.805 648.987 136.833C648.987 138.061 648.664 139.107 648.019 139.973C647.38 140.839 646.511 141.438 645.411 141.772V141.942C646.788 142.169 647.863 142.754 648.636 143.698C649.409 144.634 649.796 145.794 649.796 147.178C649.796 148.363 649.473 149.427 648.827 150.371C648.189 151.307 647.316 152.045 646.209 152.584C645.103 153.124 643.843 153.393 642.431 153.393Z" fill="white"/>
<path d="M0 187.095C15.2649 175.755 13.3198 153.795 13.3198 153.795L31.6344 175.44C21.9935 183 6.02561 186.465 0 187.095Z" fill="#27ACA1"/>
</svg>
