<svg width="448" height="214" viewBox="0 0 448 214" fill="none" xmlns="http://www.w3.org/2000/svg">
<rect x="0.368439" y="0.625977" width="447.632" height="264.747" rx="8" fill="white"/>
<path d="M29.6171 46.4952V35.0946H33.4692C34.3636 35.0946 35.0947 35.2561 35.6625 35.579C36.234 35.8981 36.6571 36.3305 36.9317 36.876C37.2063 37.4215 37.3437 38.0302 37.3437 38.7019C37.3437 39.3736 37.2063 39.9841 36.9317 40.5333C36.6608 41.0826 36.2414 41.5205 35.6736 41.847C35.1058 42.1699 34.3785 42.3314 33.4915 42.3314H30.7304V41.1067H33.447C34.0593 41.1067 34.551 41.0009 34.9221 40.7894C35.2933 40.5778 35.5623 40.2921 35.7293 39.9321C35.9 39.5684 35.9854 39.1583 35.9854 38.7019C35.9854 38.2454 35.9 37.8372 35.7293 37.4772C35.5623 37.1172 35.2914 36.8352 34.9166 36.6311C34.5418 36.4232 34.0445 36.3193 33.4247 36.3193H30.9976V46.4952H29.6171ZM42.8825 46.6734C42.0586 46.6734 41.348 46.4915 40.7505 46.1278C40.1567 45.7604 39.6984 45.2483 39.3755 44.5914C39.0563 43.9308 38.8968 43.1626 38.8968 42.2868C38.8968 41.411 39.0563 40.6391 39.3755 39.9711C39.6984 39.2994 40.1474 38.7761 40.7226 38.4013C41.3016 38.0227 41.977 37.8335 42.7489 37.8335C43.1943 37.8335 43.634 37.9077 44.0682 38.0561C44.5024 38.2046 44.8977 38.4458 45.2539 38.7798C45.6102 39.1101 45.8941 39.548 46.1056 40.0935C46.3172 40.6391 46.4229 41.3108 46.4229 42.1087V42.6654H39.832V41.5297H45.0869C45.0869 41.0473 44.9904 40.6168 44.7975 40.2383C44.6082 39.8597 44.3373 39.561 43.9847 39.342C43.6359 39.1231 43.2239 39.0136 42.7489 39.0136C42.2256 39.0136 41.7729 39.1435 41.3906 39.4033C41.0121 39.6593 40.7208 39.9933 40.5167 40.4053C40.3126 40.8172 40.2105 41.2588 40.2105 41.7301V42.4872C40.2105 43.133 40.3218 43.6803 40.5445 44.1294C40.7709 44.5747 41.0845 44.9143 41.4853 45.1481C41.8861 45.3782 42.3518 45.4932 42.8825 45.4932C43.2277 45.4932 43.5394 45.445 43.8177 45.3485C44.0998 45.2483 44.3428 45.0999 44.547 44.9032C44.7511 44.7028 44.9088 44.4541 45.0201 44.1572L46.2893 44.5135C46.1557 44.944 45.9312 45.3225 45.6158 45.6491C45.3003 45.972 44.9106 46.2243 44.4468 46.4062C43.9829 46.5843 43.4615 46.6734 42.8825 46.6734ZM53.6986 37.9448V39.1695H49.7351V46.4952H48.4214V37.9448H53.6986ZM56.9301 44.558L61.0494 37.9448H62.5636V46.4952H61.2498V39.882L57.1527 46.4952H55.6163V37.9448H56.9301V44.558ZM68.4434 46.6734C67.6418 46.6734 66.9515 46.4841 66.3726 46.1056C65.7936 45.727 65.3483 45.2056 65.0366 44.5413C64.7248 43.877 64.569 43.1181 64.569 42.2646C64.569 41.3961 64.7285 40.6298 65.0477 39.9655C65.3706 39.2975 65.8196 38.7761 66.3948 38.4013C66.9738 38.0227 67.6492 37.8335 68.4211 37.8335C69.0223 37.8335 69.5641 37.9448 70.0466 38.1675C70.529 38.3901 70.9243 38.7019 71.2323 39.1027C71.5403 39.5035 71.7314 39.9711 71.8057 40.5055H70.4919C70.3917 40.1158 70.1691 39.7707 69.8239 39.4701C69.4825 39.1658 69.0223 39.0136 68.4434 39.0136C67.9312 39.0136 67.4822 39.1472 67.0962 39.4144C66.714 39.6779 66.4153 40.0509 66.2 40.5333C65.9885 41.012 65.8827 41.5743 65.8827 42.22C65.8827 42.8806 65.9866 43.4558 66.1944 43.9457C66.406 44.4356 66.7029 44.816 67.0851 45.0869C67.4711 45.3578 67.9238 45.4932 68.4434 45.4932C68.7848 45.4932 69.0947 45.4339 69.373 45.3151C69.6514 45.1963 69.887 45.0256 70.08 44.803C70.273 44.5803 70.4103 44.3131 70.4919 44.0014H71.8057C71.7314 44.5061 71.5477 44.9607 71.2546 45.3652C70.9651 45.766 70.581 46.0852 70.1023 46.3227C69.6272 46.5565 69.0743 46.6734 68.4434 46.6734ZM73.0526 39.1695V37.9448H79.9998V39.1695H77.1942V46.4952H75.8805V39.1695H73.0526ZM81.9162 49.7017V37.9448H83.1854V39.3031H83.3413C83.4377 39.1546 83.5713 38.9654 83.7421 38.7353C83.9165 38.5015 84.1651 38.2936 84.488 38.1118C84.8146 37.9262 85.2562 37.8335 85.8129 37.8335C86.5328 37.8335 87.1674 38.0135 87.7167 38.3734C88.2659 38.7334 88.6946 39.2437 89.0026 39.9043C89.3106 40.5649 89.4646 41.3442 89.4646 42.2423C89.4646 43.1478 89.3106 43.9327 89.0026 44.597C88.6946 45.2576 88.2678 45.7697 87.7222 46.1334C87.1767 46.4934 86.5477 46.6734 85.8351 46.6734C85.2859 46.6734 84.8461 46.5825 84.5158 46.4006C84.1855 46.215 83.9313 46.0054 83.7532 45.7716C83.5751 45.5341 83.4377 45.3374 83.3413 45.1815H83.2299V49.7017H81.9162ZM83.2077 42.22C83.2077 42.8658 83.3023 43.4354 83.4916 43.929C83.6808 44.4189 83.9573 44.803 84.321 45.0813C84.6847 45.3559 85.13 45.4932 85.657 45.4932C86.2062 45.4932 86.6646 45.3485 87.032 45.059C87.4031 44.7659 87.6814 44.3725 87.867 43.8789C88.0562 43.3816 88.1509 42.8286 88.1509 42.22C88.1509 41.6188 88.0581 41.077 87.8725 40.5945C87.6907 40.1084 87.4142 39.7243 87.0431 39.4422C86.6757 39.1565 86.2137 39.0136 85.657 39.0136C85.1226 39.0136 84.6735 39.1491 84.3099 39.42C83.9462 39.6872 83.6715 40.062 83.486 40.5444C83.3004 41.0232 83.2077 41.5817 83.2077 42.22ZM93.9848 46.6956C93.4429 46.6956 92.9512 46.5936 92.5096 46.3895C92.068 46.1816 91.7173 45.8829 91.4575 45.4932C91.1977 45.0999 91.0678 44.6248 91.0678 44.0682C91.0678 43.5783 91.1643 43.1812 91.3573 42.8769C91.5503 42.5689 91.8082 42.3276 92.1311 42.1532C92.4539 41.9788 92.8102 41.8489 93.1999 41.7635C93.5932 41.6745 93.9885 41.604 94.3856 41.552C94.9051 41.4852 95.3263 41.4351 95.6492 41.4017C95.9758 41.3646 96.2133 41.3034 96.3618 41.218C96.5139 41.1327 96.59 40.9842 96.59 40.7727V40.7281C96.59 40.1789 96.4397 39.7521 96.1391 39.4478C95.8422 39.1435 95.3913 38.9913 94.7864 38.9913C94.1592 38.9913 93.6675 39.1286 93.3112 39.4033C92.9549 39.6779 92.7044 39.9711 92.5597 40.2828L91.3128 39.8375C91.5354 39.3179 91.8323 38.9134 92.2034 38.6239C92.5783 38.3308 92.9865 38.1266 93.4281 38.0116C93.8734 37.8928 94.3114 37.8335 94.7418 37.8335C95.0165 37.8335 95.3319 37.8669 95.6882 37.9337C96.0482 37.9968 96.3952 38.1285 96.7292 38.3289C97.0669 38.5293 97.3471 38.8318 97.5697 39.2363C97.7924 39.6408 97.9037 40.1826 97.9037 40.8617V46.4952H96.59V45.3374H96.5232C96.4341 45.5229 96.2857 45.7215 96.0778 45.933C95.87 46.1445 95.5935 46.3245 95.2484 46.473C94.9033 46.6214 94.4821 46.6956 93.9848 46.6956ZM94.1852 45.5155C94.7047 45.5155 95.1426 45.4134 95.4989 45.2093C95.8589 45.0052 96.1298 44.7417 96.3117 44.4189C96.4972 44.096 96.59 43.7564 96.59 43.4002V42.1978C96.5343 42.2646 96.4119 42.3258 96.2226 42.3815C96.037 42.4334 95.8218 42.4798 95.5768 42.5206C95.3356 42.5577 95.1 42.5911 94.8699 42.6208C94.6435 42.6468 94.4598 42.6691 94.3188 42.6876C93.9773 42.7322 93.6582 42.8045 93.3613 42.9047C93.0681 43.0012 92.8306 43.1478 92.6488 43.3445C92.4706 43.5375 92.3816 43.801 92.3816 44.135C92.3816 44.5914 92.5504 44.9366 92.8881 45.1704C93.2296 45.4005 93.6619 45.5155 94.1852 45.5155ZM107.026 37.9448V45.2706H108.229V49.2563H106.915V46.4952H100.302V37.9448H101.615V45.2706H105.712V37.9448H107.026ZM111.566 44.558L115.685 37.9448H117.199V46.4952H115.886V39.882L111.788 46.4952H110.252V37.9448H111.566V44.558ZM124.749 46.4952V39.1472H122.478C121.966 39.1472 121.563 39.266 121.27 39.5035C120.977 39.741 120.83 40.0676 120.83 40.4832C120.83 40.8914 120.962 41.2124 121.225 41.4462C121.493 41.68 121.858 41.7969 122.322 41.7969H125.083V43.0216H122.322C121.743 43.0216 121.244 42.9196 120.825 42.7155C120.405 42.5113 120.082 42.22 119.856 41.8415C119.63 41.4592 119.516 41.0065 119.516 40.4832C119.516 39.9562 119.635 39.5035 119.873 39.1249C120.11 38.7464 120.45 38.4551 120.891 38.251C121.337 38.0469 121.866 37.9448 122.478 37.9448H125.996V46.4952H124.749ZM119.049 46.4952L121.476 42.2423H122.901L120.474 46.4952H119.049ZM138.539 41.6188V42.8435H133.819V41.6188H138.539ZM134.13 37.9448V46.4952H132.817V37.9448H134.13ZM139.541 37.9448V46.4952H138.227V37.9448H139.541ZM144.457 46.6956C143.915 46.6956 143.423 46.5936 142.981 46.3895C142.54 46.1816 142.189 45.8829 141.929 45.4932C141.67 45.0999 141.54 44.6248 141.54 44.0682C141.54 43.5783 141.636 43.1812 141.829 42.8769C142.022 42.5689 142.28 42.3276 142.603 42.1532C142.926 41.9788 143.282 41.8489 143.672 41.7635C144.065 41.6745 144.46 41.604 144.857 41.552C145.377 41.4852 145.798 41.4351 146.121 41.4017C146.448 41.3646 146.685 41.3034 146.834 41.218C146.986 41.1327 147.062 40.9842 147.062 40.7727V40.7281C147.062 40.1789 146.912 39.7521 146.611 39.4478C146.314 39.1435 145.863 38.9913 145.258 38.9913C144.631 38.9913 144.139 39.1286 143.783 39.4033C143.427 39.6779 143.176 39.9711 143.032 40.2828L141.785 39.8375C142.007 39.3179 142.304 38.9134 142.675 38.6239C143.05 38.3308 143.458 38.1266 143.9 38.0116C144.345 37.8928 144.783 37.8335 145.214 37.8335C145.488 37.8335 145.804 37.8669 146.16 37.9337C146.52 37.9968 146.867 38.1285 147.201 38.3289C147.539 38.5293 147.819 38.8318 148.042 39.2363C148.264 39.6408 148.376 40.1826 148.376 40.8617V46.4952H147.062V45.3374H146.995C146.906 45.5229 146.757 45.7215 146.55 45.933C146.342 46.1445 146.065 46.3245 145.72 46.473C145.375 46.6214 144.954 46.6956 144.457 46.6956ZM144.657 45.5155C145.177 45.5155 145.614 45.4134 145.971 45.2093C146.331 45.0052 146.602 44.7417 146.783 44.4189C146.969 44.096 147.062 43.7564 147.062 43.4002V42.1978C147.006 42.2646 146.884 42.3258 146.694 42.3815C146.509 42.4334 146.294 42.4798 146.049 42.5206C145.807 42.5577 145.572 42.5911 145.342 42.6208C145.115 42.6468 144.932 42.6691 144.791 42.6876C144.449 42.7322 144.13 42.8045 143.833 42.9047C143.54 43.0012 143.302 43.1478 143.121 43.3445C142.942 43.5375 142.853 43.801 142.853 44.135C142.853 44.5914 143.022 44.9366 143.36 45.1704C143.701 45.4005 144.134 45.5155 144.657 45.5155ZM158.656 46.6734C157.884 46.6734 157.207 46.4897 156.624 46.1223C156.045 45.7549 155.592 45.2409 155.266 44.5803C154.943 43.9197 154.781 43.1478 154.781 42.2646C154.781 41.3739 154.943 40.5964 155.266 39.9321C155.592 39.2678 156.045 38.752 156.624 38.3846C157.207 38.0172 157.884 37.8335 158.656 37.8335C159.428 37.8335 160.103 38.0172 160.682 38.3846C161.265 38.752 161.718 39.2678 162.04 39.9321C162.367 40.5964 162.53 41.3739 162.53 42.2646C162.53 43.1478 162.367 43.9197 162.04 44.5803C161.718 45.2409 161.265 45.7549 160.682 46.1223C160.103 46.4897 159.428 46.6734 158.656 46.6734ZM158.656 45.4932C159.242 45.4932 159.725 45.3429 160.103 45.0423C160.482 44.7417 160.762 44.3465 160.944 43.8566C161.126 43.3668 161.217 42.8361 161.217 42.2646C161.217 41.693 161.126 41.1605 160.944 40.6669C160.762 40.1733 160.482 39.7744 160.103 39.4701C159.725 39.1658 159.242 39.0136 158.656 39.0136C158.069 39.0136 157.587 39.1658 157.209 39.4701C156.83 39.7744 156.55 40.1733 156.368 40.6669C156.186 41.1605 156.095 41.693 156.095 42.2646C156.095 42.8361 156.186 43.3668 156.368 43.8566C156.55 44.3465 156.83 44.7417 157.209 45.0423C157.587 45.3429 158.069 45.4932 158.656 45.4932ZM170.258 41.6188V42.8435H165.538V41.6188H170.258ZM165.849 37.9448V46.4952H164.536V37.9448H165.849ZM171.26 37.9448V46.4952H169.947V37.9448H171.26ZM172.902 46.4952V45.2706H173.214C173.47 45.2706 173.684 45.2205 173.854 45.1203C174.025 45.0164 174.162 44.8364 174.266 44.5803C174.374 44.3205 174.456 43.9605 174.511 43.5004C174.571 43.0365 174.613 42.4464 174.639 41.7301L174.795 37.9448H180.495V46.4952H179.182V39.1695H176.042L175.908 42.22C175.879 42.9214 175.816 43.5393 175.719 44.0737C175.626 44.6044 175.484 45.0498 175.291 45.4097C175.101 45.7697 174.849 46.0406 174.533 46.2225C174.218 46.4043 173.823 46.4952 173.348 46.4952H172.902ZM185.422 46.6956C184.88 46.6956 184.388 46.5936 183.947 46.3895C183.505 46.1816 183.154 45.8829 182.895 45.4932C182.635 45.0999 182.505 44.6248 182.505 44.0682C182.505 43.5783 182.601 43.1812 182.794 42.8769C182.987 42.5689 183.245 42.3276 183.568 42.1532C183.891 41.9788 184.247 41.8489 184.637 41.7635C185.03 41.6745 185.426 41.604 185.823 41.552C186.342 41.4852 186.763 41.4351 187.086 41.4017C187.413 41.3646 187.65 41.3034 187.799 41.218C187.951 41.1327 188.027 40.9842 188.027 40.7727V40.7281C188.027 40.1789 187.877 39.7521 187.576 39.4478C187.279 39.1435 186.828 38.9913 186.224 38.9913C185.596 38.9913 185.105 39.1286 184.748 39.4033C184.392 39.6779 184.142 39.9711 183.997 40.2828L182.75 39.8375C182.973 39.3179 183.269 38.9134 183.641 38.6239C184.015 38.3308 184.424 38.1266 184.865 38.0116C185.311 37.8928 185.748 37.8335 186.179 37.8335C186.454 37.8335 186.769 37.8669 187.125 37.9337C187.485 37.9968 187.832 38.1285 188.166 38.3289C188.504 38.5293 188.784 38.8318 189.007 39.2363C189.23 39.6408 189.341 40.1826 189.341 40.8617V46.4952H188.027V45.3374H187.96C187.871 45.5229 187.723 45.7215 187.515 45.933C187.307 46.1445 187.031 46.3245 186.686 46.473C186.34 46.6214 185.919 46.6956 185.422 46.6956ZM185.622 45.5155C186.142 45.5155 186.58 45.4134 186.936 45.2093C187.296 45.0052 187.567 44.7417 187.749 44.4189C187.934 44.096 188.027 43.7564 188.027 43.4002V42.1978C187.971 42.2646 187.849 42.3258 187.66 42.3815C187.474 42.4334 187.259 42.4798 187.014 42.5206C186.773 42.5577 186.537 42.5911 186.307 42.6208C186.081 42.6468 185.897 42.6691 185.756 42.6876C185.414 42.7322 185.095 42.8045 184.798 42.9047C184.505 43.0012 184.268 43.1478 184.086 43.3445C183.908 43.5375 183.819 43.801 183.819 44.135C183.819 44.5914 183.988 44.9366 184.325 45.1704C184.667 45.4005 185.099 45.5155 185.622 45.5155ZM193.052 44.558L197.172 37.9448H198.686V46.4952H197.372V39.882L193.275 46.4952H191.739V37.9448H193.052V44.558ZM196.303 35.0946H197.528C197.528 35.6959 197.32 36.1876 196.905 36.5698C196.489 36.9521 195.925 37.1432 195.212 37.1432C194.511 37.1432 193.952 36.9521 193.537 36.5698C193.125 36.1876 192.919 35.6959 192.919 35.0946H194.144C194.144 35.3841 194.223 35.6383 194.383 35.8573C194.546 36.0762 194.823 36.1857 195.212 36.1857C195.602 36.1857 195.88 36.0762 196.047 35.8573C196.218 35.6383 196.303 35.3841 196.303 35.0946ZM206.815 41.6188V42.8435H202.094V41.6188H206.815ZM202.406 37.9448V46.4952H201.092V37.9448H202.406ZM207.817 37.9448V46.4952H206.503V37.9448H207.817ZM215.115 40.9953V42.22H210.127V40.9953H215.115ZM222.102 44.7139L225.086 37.9448H226.333L222.637 46.4952H221.568L217.938 37.9448H219.163L222.102 44.7139ZM218.74 37.9448V46.4952H217.426V37.9448H218.74ZM225.465 46.4952V37.9448H226.778V46.4952H225.465ZM232.768 46.6734C231.944 46.6734 231.233 46.4915 230.636 46.1278C230.042 45.7604 229.584 45.2483 229.261 44.5914C228.942 43.9308 228.782 43.1626 228.782 42.2868C228.782 41.411 228.942 40.6391 229.261 39.9711C229.584 39.2994 230.033 38.7761 230.608 38.4013C231.187 38.0227 231.863 37.8335 232.634 37.8335C233.08 37.8335 233.52 37.9077 233.954 38.0561C234.388 38.2046 234.783 38.4458 235.139 38.7798C235.496 39.1101 235.78 39.548 235.991 40.0935C236.203 40.6391 236.308 41.3108 236.308 42.1087V42.6654H229.717V41.5297H234.972C234.972 41.0473 234.876 40.6168 234.683 40.2383C234.494 39.8597 234.223 39.561 233.87 39.342C233.521 39.1231 233.109 39.0136 232.634 39.0136C232.111 39.0136 231.658 39.1435 231.276 39.4033C230.898 39.6593 230.606 39.9933 230.402 40.4053C230.198 40.8172 230.096 41.2588 230.096 41.7301V42.4872C230.096 43.133 230.207 43.6803 230.43 44.1294C230.656 44.5747 230.97 44.9143 231.371 45.1481C231.772 45.3782 232.237 45.4932 232.768 45.4932C233.113 45.4932 233.425 45.445 233.703 45.3485C233.985 45.2483 234.228 45.0999 234.432 44.9032C234.637 44.7028 234.794 44.4541 234.906 44.1572L236.175 44.5135C236.041 44.944 235.817 45.3225 235.501 45.6491C235.186 45.972 234.796 46.2243 234.332 46.4062C233.868 46.5843 233.347 46.6734 232.768 46.6734ZM238.307 49.7017V37.9448H239.576V39.3031H239.732C239.828 39.1546 239.962 38.9654 240.133 38.7353C240.307 38.5015 240.556 38.2936 240.879 38.1118C241.205 37.9262 241.647 37.8335 242.204 37.8335C242.924 37.8335 243.558 38.0135 244.107 38.3734C244.657 38.7334 245.085 39.2437 245.393 39.9043C245.701 40.5649 245.855 41.3442 245.855 42.2423C245.855 43.1478 245.701 43.9327 245.393 44.597C245.085 45.2576 244.658 45.7697 244.113 46.1334C243.567 46.4934 242.938 46.6734 242.226 46.6734C241.677 46.6734 241.237 46.5825 240.907 46.4006C240.576 46.215 240.322 46.0054 240.144 45.7716C239.966 45.5341 239.828 45.3374 239.732 45.1815H239.621V49.7017H238.307ZM239.598 42.22C239.598 42.8658 239.693 43.4354 239.882 43.929C240.072 44.4189 240.348 44.803 240.712 45.0813C241.075 45.3559 241.521 45.4932 242.048 45.4932C242.597 45.4932 243.055 45.3485 243.423 45.059C243.794 44.7659 244.072 44.3725 244.258 43.8789C244.447 43.3816 244.542 42.8286 244.542 42.22C244.542 41.6188 244.449 41.077 244.263 40.5945C244.081 40.1084 243.805 39.7243 243.434 39.4422C243.066 39.1565 242.604 39.0136 242.048 39.0136C241.513 39.0136 241.064 39.1491 240.701 39.42C240.337 39.6872 240.062 40.062 239.877 40.5444C239.691 41.0232 239.598 41.5817 239.598 42.22ZM251.333 46.6734C250.561 46.6734 249.884 46.4897 249.301 46.1223C248.722 45.7549 248.269 45.2409 247.943 44.5803C247.62 43.9197 247.459 43.1478 247.459 42.2646C247.459 41.3739 247.62 40.5964 247.943 39.9321C248.269 39.2678 248.722 38.752 249.301 38.3846C249.884 38.0172 250.561 37.8335 251.333 37.8335C252.105 37.8335 252.78 38.0172 253.359 38.3846C253.942 38.752 254.395 39.2678 254.718 39.9321C255.044 40.5964 255.207 41.3739 255.207 42.2646C255.207 43.1478 255.044 43.9197 254.718 44.5803C254.395 45.2409 253.942 45.7549 253.359 46.1223C252.78 46.4897 252.105 46.6734 251.333 46.6734ZM251.333 45.4932C251.919 45.4932 252.402 45.3429 252.78 45.0423C253.159 44.7417 253.439 44.3465 253.621 43.8566C253.803 43.3668 253.894 42.8361 253.894 42.2646C253.894 41.693 253.803 41.1605 253.621 40.6669C253.439 40.1733 253.159 39.7744 252.78 39.4701C252.402 39.1658 251.919 39.0136 251.333 39.0136C250.747 39.0136 250.264 39.1658 249.886 39.4701C249.507 39.7744 249.227 40.1733 249.045 40.6669C248.863 41.1605 248.772 41.693 248.772 42.2646C248.772 42.8361 248.863 43.3668 249.045 43.8566C249.227 44.3465 249.507 44.7417 249.886 45.0423C250.264 45.3429 250.747 45.4932 251.333 45.4932ZM257.213 46.4952V37.9448H263.937V46.4952H262.624V39.1695H258.527V46.4952H257.213ZM266.337 49.7017V37.9448H267.606V39.3031H267.762C267.858 39.1546 267.992 38.9654 268.162 38.7353C268.337 38.5015 268.586 38.2936 268.908 38.1118C269.235 37.9262 269.677 37.8335 270.233 37.8335C270.953 37.8335 271.588 38.0135 272.137 38.3734C272.686 38.7334 273.115 39.2437 273.423 39.9043C273.731 40.5649 273.885 41.3442 273.885 42.2423C273.885 43.1478 273.731 43.9327 273.423 44.597C273.115 45.2576 272.688 45.7697 272.143 46.1334C271.597 46.4934 270.968 46.6734 270.256 46.6734C269.706 46.6734 269.267 46.5825 268.936 46.4006C268.606 46.215 268.352 46.0054 268.174 45.7716C267.995 45.5341 267.858 45.3374 267.762 45.1815H267.65V49.7017H266.337ZM267.628 42.22C267.628 42.8658 267.723 43.4354 267.912 43.929C268.101 44.4189 268.378 44.803 268.741 45.0813C269.105 45.3559 269.55 45.4932 270.077 45.4932C270.627 45.4932 271.085 45.3485 271.452 45.059C271.823 44.7659 272.102 44.3725 272.287 43.8789C272.477 43.3816 272.571 42.8286 272.571 42.22C272.571 41.6188 272.479 41.077 272.293 40.5945C272.111 40.1084 271.835 39.7243 271.464 39.4422C271.096 39.1565 270.634 39.0136 270.077 39.0136C269.543 39.0136 269.094 39.1491 268.73 39.42C268.367 39.6872 268.092 40.062 267.906 40.5444C267.721 41.0232 267.628 41.5817 267.628 42.22ZM277.203 44.558L281.322 37.9448H282.836V46.4952H281.523V39.882L277.425 46.4952H275.889V37.9448H277.203V44.558ZM290.386 46.4952V39.1472H288.115C287.603 39.1472 287.2 39.266 286.907 39.5035C286.614 39.741 286.467 40.0676 286.467 40.4832C286.467 40.8914 286.599 41.2124 286.862 41.4462C287.13 41.68 287.495 41.7969 287.959 41.7969H290.72V43.0216H287.959C287.38 43.0216 286.881 42.9196 286.462 42.7155C286.042 42.5113 285.719 42.22 285.493 41.8415C285.267 41.4592 285.153 41.0065 285.153 40.4832C285.153 39.9562 285.272 39.5035 285.51 39.1249C285.747 38.7464 286.087 38.4551 286.528 38.251C286.974 38.0469 287.503 37.9448 288.115 37.9448H291.633V46.4952H290.386ZM284.686 46.4952L287.113 42.2423H288.538L286.111 46.4952H284.686ZM292.881 39.1695V37.9448H299.829V39.1695H297.023V46.4952H295.709V39.1695H292.881ZM303.059 44.558L307.178 37.9448H308.692V46.4952H307.378V39.882L303.281 46.4952H301.745V37.9448H303.059V44.558ZM314.683 46.6734C313.859 46.6734 313.149 46.4915 312.551 46.1278C311.957 45.7604 311.499 45.2483 311.176 44.5914C310.857 43.9308 310.698 43.1626 310.698 42.2868C310.698 41.411 310.857 40.6391 311.176 39.9711C311.499 39.2994 311.948 38.7761 312.523 38.4013C313.102 38.0227 313.778 37.8335 314.55 37.8335C314.995 37.8335 315.435 37.9077 315.869 38.0561C316.303 38.2046 316.698 38.4458 317.055 38.7798C317.411 39.1101 317.695 39.548 317.906 40.0935C318.118 40.6391 318.224 41.3108 318.224 42.1087V42.6654H311.633V41.5297H316.888C316.888 41.0473 316.791 40.6168 316.598 40.2383C316.409 39.8597 316.138 39.561 315.786 39.342C315.437 39.1231 315.025 39.0136 314.55 39.0136C314.026 39.0136 313.574 39.1435 313.191 39.4033C312.813 39.6593 312.522 39.9933 312.317 40.4053C312.113 40.8172 312.011 41.2588 312.011 41.7301V42.4872C312.011 43.133 312.123 43.6803 312.345 44.1294C312.572 44.5747 312.885 44.9143 313.286 45.1481C313.687 45.3782 314.153 45.4932 314.683 45.4932C315.028 45.4932 315.34 45.445 315.619 45.3485C315.901 45.2483 316.144 45.0999 316.348 44.9032C316.552 44.7028 316.71 44.4541 316.821 44.1572L318.09 44.5135C317.957 44.944 317.732 45.3225 317.417 45.6491C317.101 45.972 316.711 46.2243 316.248 46.4062C315.784 46.5843 315.262 46.6734 314.683 46.6734ZM32.6899 69.2706H31.532L29.2831 65.9305V65.8192H30.5523L32.6899 69.2706ZM32.6899 62.4347L30.5523 65.886H29.2831V65.7747L31.532 62.4347H32.6899ZM35.54 69.2706H34.3822L32.1332 65.9305V65.8192H33.4024L35.54 69.2706ZM35.54 62.4347L33.4024 65.886H32.1332V65.7747L34.3822 62.4347H35.54ZM38.0826 59.0946H39.4409V68.0682H39.5522L45.7869 59.0946H47.1229V70.4952H45.7424V61.544H45.6311L39.4186 70.4952H38.0826V59.0946ZM55.4298 65.6188V66.8435H50.7093V65.6188H55.4298ZM51.021 61.9448V70.4952H49.7073V61.9448H51.021ZM56.4318 61.9448V70.4952H55.1181V61.9448H56.4318ZM62.3047 70.6734C61.5031 70.6734 60.8128 70.4841 60.2339 70.1056C59.655 69.727 59.2096 69.2056 58.8979 68.5413C58.5862 67.877 58.4303 67.1181 58.4303 66.2646C58.4303 65.3961 58.5899 64.6298 58.909 63.9655C59.2319 63.2975 59.6809 62.7761 60.2562 62.4013C60.8351 62.0227 61.5105 61.8335 62.2824 61.8335C62.8836 61.8335 63.4255 61.9448 63.9079 62.1675C64.3904 62.3901 64.7856 62.7019 65.0936 63.1027C65.4016 63.5035 65.5928 63.9711 65.667 64.5055H64.3533C64.2531 64.1158 64.0304 63.7707 63.6853 63.4701C63.3438 63.1658 62.8836 63.0136 62.3047 63.0136C61.7926 63.0136 61.3435 63.1472 60.9576 63.4144C60.5753 63.6779 60.2766 64.0509 60.0613 64.5333C59.8498 65.012 59.744 65.5743 59.744 66.22C59.744 66.8806 59.8479 67.4558 60.0558 67.9457C60.2673 68.4356 60.5642 68.816 60.9464 69.0869C61.3324 69.3578 61.7852 69.4932 62.3047 69.4932C62.6461 69.4932 62.956 69.4339 63.2344 69.3151C63.5127 69.1963 63.7483 69.0256 63.9413 68.803C64.1343 68.5803 64.2716 68.3131 64.3533 68.0014H65.667C65.5928 68.5061 65.4091 68.9607 65.1159 69.3652C64.8264 69.766 64.4423 70.0852 63.9636 70.3227C63.4886 70.5565 62.9356 70.6734 62.3047 70.6734ZM66.9139 63.1695V61.9448H73.8612V63.1695H71.0556V70.4952H69.7418V63.1695H66.9139ZM75.7775 73.7017V61.9448H77.0467V63.3031H77.2026C77.2991 63.1546 77.4327 62.9654 77.6034 62.7353C77.7778 62.5015 78.0265 62.2936 78.3493 62.1118C78.6759 61.9262 79.1175 61.8335 79.6742 61.8335C80.3942 61.8335 81.0288 62.0135 81.578 62.3734C82.1272 62.7334 82.5559 63.2437 82.8639 63.9043C83.1719 64.5649 83.3259 65.3442 83.3259 66.2423C83.3259 67.1478 83.1719 67.9327 82.8639 68.597C82.5559 69.2576 82.1291 69.7697 81.5836 70.1334C81.038 70.4934 80.409 70.6734 79.6965 70.6734C79.1472 70.6734 78.7074 70.5825 78.3772 70.4006C78.0469 70.215 77.7926 70.0054 77.6145 69.7716C77.4364 69.5341 77.2991 69.3374 77.2026 69.1815H77.0912V73.7017H75.7775ZM77.069 66.22C77.069 66.8658 77.1636 67.4354 77.3529 67.929C77.5421 68.4189 77.8186 68.803 78.1823 69.0813C78.546 69.3559 78.9913 69.4932 79.5183 69.4932C80.0676 69.4932 80.5259 69.3485 80.8933 69.059C81.2644 68.7659 81.5427 68.3725 81.7283 67.8789C81.9176 67.3816 82.0122 66.8286 82.0122 66.22C82.0122 65.6188 81.9194 65.077 81.7339 64.5945C81.552 64.1084 81.2755 63.7243 80.9044 63.4422C80.537 63.1565 80.075 63.0136 79.5183 63.0136C78.9839 63.0136 78.5349 63.1491 78.1712 63.42C77.8075 63.6872 77.5329 64.062 77.3473 64.5444C77.1618 65.0232 77.069 65.5817 77.069 66.22ZM85.8699 73.7017C85.6473 73.7017 85.4487 73.6831 85.2743 73.646C85.0999 73.6126 84.9793 73.5792 84.9125 73.5458L85.2465 72.3879C85.5656 72.4696 85.8477 72.4992 86.0926 72.477C86.3375 72.4547 86.5546 72.3452 86.7439 72.1485C86.9369 71.9556 87.1132 71.642 87.2727 71.2078L87.5177 70.5398L84.3558 61.9448H85.7809L88.1411 68.7584H88.2302L90.5905 61.9448H92.0156L88.3861 71.7422C88.2228 72.1838 88.0205 72.5493 87.7793 72.8388C87.5381 73.132 87.2579 73.3491 86.9387 73.4901C86.6233 73.6311 86.267 73.7017 85.8699 73.7017ZM93.7496 70.4952V61.9448H95.0633V65.6633H95.9317L99.0045 61.9448H100.697L97.2455 66.0642L100.741 70.4952H99.0491L96.2435 66.888H95.0633V70.4952H93.7496ZM101.679 63.1695V61.9448H108.627V63.1695H105.821V70.4952H104.507V63.1695H101.679ZM112.615 70.6956C112.073 70.6956 111.582 70.5936 111.14 70.3895C110.698 70.1816 110.348 69.8829 110.088 69.4932C109.828 69.0999 109.698 68.6248 109.698 68.0682C109.698 67.5783 109.795 67.1812 109.988 66.8769C110.181 66.5689 110.439 66.3276 110.761 66.1532C111.084 65.9788 111.441 65.8489 111.83 65.7635C112.224 65.6745 112.619 65.604 113.016 65.552C113.535 65.4852 113.957 65.4351 114.28 65.4017C114.606 65.3646 114.844 65.3034 114.992 65.218C115.144 65.1327 115.22 64.9842 115.22 64.7727V64.7281C115.22 64.1789 115.07 63.7521 114.769 63.4478C114.473 63.1435 114.022 62.9913 113.417 62.9913C112.79 62.9913 112.298 63.1286 111.942 63.4033C111.585 63.6779 111.335 63.9711 111.19 64.2828L109.943 63.8375C110.166 63.3179 110.463 62.9134 110.834 62.6239C111.209 62.3308 111.617 62.1266 112.058 62.0116C112.504 61.8928 112.942 61.8335 113.372 61.8335C113.647 61.8335 113.962 61.8669 114.319 61.9337C114.678 61.9968 115.025 62.1285 115.359 62.3289C115.697 62.5293 115.977 62.8318 116.2 63.2363C116.423 63.6408 116.534 64.1826 116.534 64.8617V70.4952H115.22V69.3374H115.154C115.064 69.5229 114.916 69.7215 114.708 69.933C114.5 70.1445 114.224 70.3245 113.879 70.473C113.534 70.6214 113.112 70.6956 112.615 70.6956ZM112.816 69.5155C113.335 69.5155 113.773 69.4134 114.129 69.2093C114.489 69.0052 114.76 68.7417 114.942 68.4189C115.128 68.096 115.22 67.7564 115.22 67.4002V66.1978C115.165 66.2646 115.042 66.3258 114.853 66.3815C114.667 66.4334 114.452 66.4798 114.207 66.5206C113.966 66.5577 113.73 66.5911 113.5 66.6208C113.274 66.6468 113.09 66.6691 112.949 66.6876C112.608 66.7322 112.289 66.8045 111.992 66.9047C111.698 67.0012 111.461 67.1478 111.279 67.3445C111.101 67.5375 111.012 67.801 111.012 68.135C111.012 68.5914 111.181 68.9366 111.518 69.1704C111.86 69.4005 112.292 69.5155 112.816 69.5155ZM118.398 70.4952L121.871 66.1532L118.442 61.9448H120.001L122.851 65.5965H123.563V61.9448H124.877V65.5965H125.567L128.418 61.9448H129.976L126.569 66.1532L130.021 70.4952H128.44L125.545 66.8212H124.877V70.4952H123.563V66.8212H122.895L119.978 70.4952H118.398ZM145.013 59.0946V70.4952H143.633V60.3193H137.888V70.4952H136.507V59.0946H145.013ZM157.417 64.7949C157.417 65.9974 157.2 67.0365 156.766 67.9123C156.332 68.7881 155.736 69.4635 154.979 69.9386C154.222 70.4136 153.357 70.6511 152.385 70.6511C151.413 70.6511 150.548 70.4136 149.791 69.9386C149.034 69.4635 148.438 68.7881 148.004 67.9123C147.57 67.0365 147.353 65.9974 147.353 64.7949C147.353 63.5925 147.57 62.5534 148.004 61.6776C148.438 60.8018 149.034 60.1263 149.791 59.6513C150.548 59.1763 151.413 58.9388 152.385 58.9388C153.357 58.9388 154.222 59.1763 154.979 59.6513C155.736 60.1263 156.332 60.8018 156.766 61.6776C157.2 62.5534 157.417 63.5925 157.417 64.7949ZM156.081 64.7949C156.081 63.8078 155.916 62.9746 155.586 62.2955C155.259 61.6164 154.816 61.1024 154.255 60.7535C153.699 60.4047 153.075 60.2303 152.385 60.2303C151.695 60.2303 151.069 60.4047 150.509 60.7535C149.952 61.1024 149.509 61.6164 149.179 62.2955C148.852 62.9746 148.689 63.8078 148.689 64.7949C148.689 65.7821 148.852 66.6153 149.179 67.2944C149.509 67.9735 149.952 68.4875 150.509 68.8364C151.069 69.1852 151.695 69.3596 152.385 69.3596C153.075 69.3596 153.699 69.1852 154.255 68.8364C154.816 68.4875 155.259 67.9735 155.586 67.2944C155.916 66.6153 156.081 65.7821 156.081 64.7949ZM158.759 73.2563V69.2706H159.494C159.746 69.0405 159.984 68.7158 160.206 68.2964C160.433 67.8733 160.624 67.3092 160.78 66.6041C160.939 65.8953 161.045 64.9953 161.097 63.9043L161.342 59.0946H168.111V69.2706H169.425V73.2341H168.111V70.4952H160.073V73.2563H158.759ZM161.141 69.2706H166.797V60.3193H162.589L162.411 63.9043C162.366 64.7356 162.288 65.4889 162.177 66.1644C162.065 66.8361 161.923 67.4317 161.748 67.9513C161.574 68.4671 161.371 68.9069 161.141 69.2706ZM175.363 58.5602L171.689 72.2098H170.486L174.16 58.5602H175.363ZM181.017 60.4529H182.821C183.667 60.4529 184.419 60.6422 185.075 61.0207C185.732 61.3993 186.248 61.9262 186.623 62.6017C186.998 63.2771 187.185 64.0601 187.185 64.9508C187.185 65.8415 186.998 66.6264 186.623 67.3055C186.248 67.9847 185.732 68.5154 185.075 68.8976C184.419 69.2798 183.667 69.471 182.821 69.471H181.017C180.171 69.471 179.42 69.2817 178.763 68.9032C178.106 68.5246 177.59 67.9976 177.215 67.3222C176.84 66.6468 176.653 65.8637 176.653 64.9731C176.653 64.0824 176.84 63.2975 177.215 62.6184C177.59 61.9392 178.106 61.4085 178.763 61.0263C179.42 60.644 180.171 60.4529 181.017 60.4529ZM181.017 61.6776C180.372 61.6776 179.826 61.8131 179.381 62.084C178.939 62.3549 178.603 62.7371 178.373 63.2307C178.147 63.7243 178.034 64.3051 178.034 64.9731C178.034 65.6337 178.147 66.2089 178.373 66.6988C178.603 67.1886 178.939 67.569 179.381 67.8399C179.826 68.1108 180.372 68.2463 181.017 68.2463H182.821C183.467 68.2463 184.01 68.1108 184.452 67.8399C184.897 67.569 185.233 67.1868 185.459 66.6932C185.69 66.1996 185.805 65.6188 185.805 64.9508C185.805 64.2902 185.69 63.715 185.459 63.2251C185.233 62.7353 184.897 62.3549 184.452 62.084C184.01 61.8131 183.467 61.6776 182.821 61.6776H181.017ZM182.62 58.8942V70.9628H181.24V58.8942H182.62ZM188.4 60.3193V59.0946H196.951V60.3193H193.366V70.4952H191.985V60.3193H188.4ZM201.693 58.5602L198.019 72.2098H196.817L200.491 58.5602H201.693ZM207.348 60.4529H209.151C209.997 60.4529 210.749 60.6422 211.406 61.0207C212.063 61.3993 212.579 61.9262 212.953 62.6017C213.328 63.2771 213.516 64.0601 213.516 64.9508C213.516 65.8415 213.328 66.6264 212.953 67.3055C212.579 67.9847 212.063 68.5154 211.406 68.8976C210.749 69.2798 209.997 69.471 209.151 69.471H207.348C206.502 69.471 205.75 69.2817 205.093 68.9032C204.436 68.5246 203.92 67.9976 203.546 67.3222C203.171 66.6468 202.983 65.8637 202.983 64.9731C202.983 64.0824 203.171 63.2975 203.546 62.6184C203.92 61.9392 204.436 61.4085 205.093 61.0263C205.75 60.644 206.502 60.4529 207.348 60.4529ZM207.348 61.6776C206.702 61.6776 206.156 61.8131 205.711 62.084C205.269 62.3549 204.934 62.7371 204.704 63.2307C204.477 63.7243 204.364 64.3051 204.364 64.9731C204.364 65.6337 204.477 66.2089 204.704 66.6988C204.934 67.1886 205.269 67.569 205.711 67.8399C206.156 68.1108 206.702 68.2463 207.348 68.2463H209.151C209.797 68.2463 210.341 68.1108 210.782 67.8399C211.228 67.569 211.564 67.1868 211.79 66.6932C212.02 66.1996 212.135 65.6188 212.135 64.9508C212.135 64.2902 212.02 63.715 211.79 63.2251C211.564 62.7353 211.228 62.3549 210.782 62.084C210.341 61.8131 209.797 61.6776 209.151 61.6776H207.348ZM208.951 58.8942V70.9628H207.57V58.8942H208.951ZM215.829 70.4952V59.0946H219.681C220.575 59.0946 221.306 59.2561 221.874 59.579C222.446 59.8981 222.869 60.3305 223.143 60.876C223.418 61.4215 223.555 62.0302 223.555 62.7019C223.555 63.3736 223.418 63.9841 223.143 64.5333C222.872 65.0826 222.453 65.5205 221.885 65.847C221.317 66.1699 220.59 66.3314 219.703 66.3314H216.942V65.1067H219.658C220.271 65.1067 220.763 65.0009 221.134 64.7894C221.505 64.5778 221.774 64.2921 221.941 63.9321C222.112 63.5684 222.197 63.1583 222.197 62.7019C222.197 62.2454 222.112 61.8372 221.941 61.4772C221.774 61.1172 221.503 60.8352 221.128 60.6311C220.753 60.4232 220.256 60.3193 219.636 60.3193H217.209V70.4952H215.829ZM235.398 64.7949C235.398 65.9974 235.181 67.0365 234.747 67.9123C234.313 68.7881 233.717 69.4635 232.96 69.9386C232.203 70.4136 231.338 70.6511 230.366 70.6511C229.394 70.6511 228.529 70.4136 227.772 69.9386C227.015 69.4635 226.419 68.7881 225.985 67.9123C225.551 67.0365 225.334 65.9974 225.334 64.7949C225.334 63.5925 225.551 62.5534 225.985 61.6776C226.419 60.8018 227.015 60.1263 227.772 59.6513C228.529 59.1763 229.394 58.9388 230.366 58.9388C231.338 58.9388 232.203 59.1763 232.96 59.6513C233.717 60.1263 234.313 60.8018 234.747 61.6776C235.181 62.5534 235.398 63.5925 235.398 64.7949ZM234.062 64.7949C234.062 63.8078 233.897 62.9746 233.567 62.2955C233.24 61.6164 232.797 61.1024 232.236 60.7535C231.68 60.4047 231.056 60.2303 230.366 60.2303C229.676 60.2303 229.05 60.4047 228.49 60.7535C227.933 61.1024 227.49 61.6164 227.16 62.2955C226.833 62.9746 226.67 63.8078 226.67 64.7949C226.67 65.7821 226.833 66.6153 227.16 67.2944C227.49 67.9735 227.933 68.4875 228.49 68.8364C229.05 69.1852 229.676 69.3596 230.366 69.3596C231.056 69.3596 231.68 69.1852 232.236 68.8364C232.797 68.4875 233.24 67.9735 233.567 67.2944C233.897 66.6153 234.062 65.7821 234.062 64.7949ZM237.72 59.0946H239.367L243.242 68.558H243.375L247.25 59.0946H248.898V70.4952H247.606V61.8335H247.495L243.932 70.4952H242.685L239.122 61.8335H239.011V70.4952H237.72V59.0946ZM252.267 70.6511V69.3596H252.979C253.254 69.3596 253.484 69.3058 253.67 69.1982C253.859 69.0906 254.015 68.9514 254.137 68.7807C254.263 68.61 254.367 68.4319 254.449 68.2463L254.627 67.8232L250.686 59.0946H252.178L255.317 66.1755L258.19 59.0946H259.659L255.718 68.6471C255.562 69.0034 255.384 69.3337 255.184 69.638C254.987 69.9423 254.718 70.1872 254.377 70.3728C254.039 70.5583 253.581 70.6511 253.002 70.6511H252.267ZM260.134 69.2706L262.272 65.8192H263.541V65.9305L261.292 69.2706H260.134ZM260.134 62.4347H261.292L263.541 65.7747V65.886H262.272L260.134 62.4347ZM262.984 69.2706L265.122 65.8192H266.391V65.9305L264.142 69.2706H262.984ZM262.984 62.4347H264.142L266.391 65.7747V65.886H265.122L262.984 62.4347Z" fill="black"/>
<path d="M50.2534 131.303L46.3345 126.07H44.9317V131.303H43.5511V119.902H44.9317V124.845H45.5329L50.0976 119.902H51.7453L47.1361 124.912L51.9012 131.303H50.2534ZM56.3531 131.481C55.5812 131.481 54.9039 131.297 54.3213 130.93C53.7424 130.562 53.2896 130.048 52.963 129.388C52.6402 128.727 52.4787 127.955 52.4787 127.072C52.4787 126.181 52.6402 125.404 52.963 124.74C53.2896 124.075 53.7424 123.559 54.3213 123.192C54.9039 122.825 55.5812 122.641 56.3531 122.641C57.1251 122.641 57.8005 122.825 58.3794 123.192C58.9621 123.559 59.4148 124.075 59.7377 124.74C60.0643 125.404 60.2276 126.181 60.2276 127.072C60.2276 127.955 60.0643 128.727 59.7377 129.388C59.4148 130.048 58.9621 130.562 58.3794 130.93C57.8005 131.297 57.1251 131.481 56.3531 131.481ZM56.3531 130.301C56.9395 130.301 57.4219 130.15 57.8005 129.85C58.179 129.549 58.4592 129.154 58.6411 128.664C58.8229 128.174 58.9138 127.644 58.9138 127.072C58.9138 126.501 58.8229 125.968 58.6411 125.474C58.4592 124.981 58.179 124.582 57.8005 124.278C57.4219 123.973 56.9395 123.821 56.3531 123.821C55.7668 123.821 55.2843 123.973 54.9058 124.278C54.5273 124.582 54.2471 124.981 54.0652 125.474C53.8834 125.968 53.7925 126.501 53.7925 127.072C53.7925 127.644 53.8834 128.174 54.0652 128.664C54.2471 129.154 54.5273 129.549 54.9058 129.85C55.2843 130.15 55.7668 130.301 56.3531 130.301ZM61.4759 131.303V130.078H61.7876C62.0437 130.078 62.2571 130.028 62.4278 129.928C62.5985 129.824 62.7358 129.644 62.8397 129.388C62.9474 129.128 63.029 128.768 63.0847 128.308C63.144 127.844 63.1867 127.254 63.2127 126.538L63.3686 122.752H69.0689V131.303H67.7551V123.977H64.6155L64.4819 127.028C64.4522 127.729 64.3891 128.347 64.2926 128.881C64.1999 129.412 64.057 129.857 63.864 130.217C63.6747 130.577 63.4224 130.848 63.1069 131.03C62.7915 131.212 62.3962 131.303 61.9212 131.303H61.4759ZM72.793 129.366L76.9123 122.752H78.4265V131.303H77.1127V124.69L73.0156 131.303H71.4792V122.752H72.793V129.366ZM87.4236 122.752V131.303H86.1099V122.752H87.4236ZM86.9115 126.827V128.052C86.6146 128.163 86.3196 128.261 86.0264 128.347C85.7332 128.428 85.4252 128.493 85.1023 128.542C84.7795 128.586 84.4251 128.608 84.0391 128.608C83.0705 128.608 82.293 128.347 81.7066 127.824C81.124 127.3 80.8327 126.515 80.8327 125.469V122.73H82.1464V125.469C82.1464 125.907 82.2299 126.267 82.3969 126.549C82.5639 126.831 82.7903 127.041 83.0761 127.178C83.3618 127.315 83.6828 127.384 84.0391 127.384C84.5958 127.384 85.0986 127.334 85.5477 127.233C86.0004 127.13 86.455 126.994 86.9115 126.827ZM93.419 131.481C92.5951 131.481 91.8844 131.299 91.2869 130.935C90.6931 130.568 90.2348 130.056 89.912 129.399C89.5928 128.738 89.4332 127.97 89.4332 127.094C89.4332 126.218 89.5928 125.447 89.912 124.779C90.2348 124.107 90.6839 123.584 91.2591 123.209C91.838 122.83 92.5135 122.641 93.2854 122.641C93.7307 122.641 94.1705 122.715 94.6047 122.864C95.0389 123.012 95.4341 123.253 95.7904 123.587C96.1467 123.918 96.4306 124.355 96.6421 124.901C96.8536 125.447 96.9594 126.118 96.9594 126.916V127.473H90.3684V126.337H95.6234C95.6234 125.855 95.5269 125.424 95.3339 125.046C95.1446 124.667 94.8737 124.368 94.5212 124.15C94.1723 123.931 93.7604 123.821 93.2854 123.821C92.7621 123.821 92.3093 123.951 91.9271 124.211C91.5486 124.467 91.2572 124.801 91.0531 125.213C90.849 125.625 90.747 126.066 90.747 126.538V127.295C90.747 127.94 90.8583 128.488 91.081 128.937C91.3073 129.382 91.6209 129.722 92.0217 129.956C92.4225 130.186 92.8883 130.301 93.419 130.301C93.7641 130.301 94.0758 130.252 94.3542 130.156C94.6362 130.056 94.8793 129.907 95.0834 129.711C95.2875 129.51 95.4452 129.262 95.5566 128.965L96.8258 129.321C96.6922 129.751 96.4677 130.13 96.1522 130.457C95.8368 130.779 95.4471 131.032 94.9832 131.214C94.5193 131.392 93.9979 131.481 93.419 131.481ZM102.431 131.481C101.63 131.481 100.94 131.292 100.361 130.913C99.7817 130.535 99.3364 130.013 99.0246 129.349C98.7129 128.685 98.557 127.926 98.557 127.072C98.557 126.204 98.7166 125.437 99.0358 124.773C99.3586 124.105 99.8077 123.584 100.383 123.209C100.962 122.83 101.637 122.641 102.409 122.641C103.01 122.641 103.552 122.752 104.035 122.975C104.517 123.198 104.912 123.509 105.22 123.91C105.528 124.311 105.72 124.779 105.794 125.313H104.48C104.38 124.923 104.157 124.578 103.812 124.278C103.471 123.973 103.01 123.821 102.431 123.821C101.919 123.821 101.47 123.955 101.084 124.222C100.702 124.485 100.403 124.858 100.188 125.341C99.9765 125.82 99.8708 126.382 99.8708 127.028C99.8708 127.688 99.9747 128.263 100.183 128.753C100.394 129.243 100.691 129.623 101.073 129.894C101.459 130.165 101.912 130.301 102.431 130.301C102.773 130.301 103.083 130.241 103.361 130.123C103.639 130.004 103.875 129.833 104.068 129.61C104.261 129.388 104.398 129.121 104.48 128.809H105.794C105.72 129.314 105.536 129.768 105.243 130.173C104.953 130.573 104.569 130.893 104.09 131.13C103.615 131.364 103.062 131.481 102.431 131.481ZM107.041 123.977V122.752H113.988V123.977H111.182V131.303H109.869V123.977H107.041ZM115.904 131.303V122.752H119.4C120.32 122.752 121.052 122.96 121.593 123.376C122.135 123.791 122.406 124.341 122.406 125.024C122.406 125.543 122.252 125.946 121.944 126.231C121.636 126.514 121.241 126.705 120.758 126.805C121.074 126.849 121.38 126.961 121.677 127.139C121.978 127.317 122.226 127.562 122.423 127.874C122.62 128.182 122.718 128.56 122.718 129.009C122.718 129.447 122.607 129.839 122.384 130.184C122.161 130.529 121.842 130.802 121.426 131.002C121.011 131.203 120.513 131.303 119.935 131.303H115.904ZM117.151 130.1H119.935C120.387 130.1 120.742 129.993 120.998 129.777C121.254 129.562 121.382 129.269 121.382 128.898C121.382 128.456 121.254 128.109 120.998 127.857C120.742 127.601 120.387 127.473 119.935 127.473H117.151V130.1ZM117.151 126.337H119.4C119.753 126.337 120.055 126.289 120.308 126.193C120.56 126.092 120.753 125.951 120.886 125.769C121.024 125.584 121.092 125.365 121.092 125.113C121.092 124.753 120.942 124.471 120.642 124.266C120.341 124.059 119.927 123.955 119.4 123.955H117.151V126.337ZM128.18 131.481C127.408 131.481 126.731 131.297 126.148 130.93C125.569 130.562 125.117 130.048 124.79 129.388C124.467 128.727 124.306 127.955 124.306 127.072C124.306 126.181 124.467 125.404 124.79 124.74C125.117 124.075 125.569 123.559 126.148 123.192C126.731 122.825 127.408 122.641 128.18 122.641C128.952 122.641 129.628 122.825 130.206 123.192C130.789 123.559 131.242 124.075 131.565 124.74C131.891 125.404 132.055 126.181 132.055 127.072C132.055 127.955 131.891 128.727 131.565 129.388C131.242 130.048 130.789 130.562 130.206 130.93C129.628 131.297 128.952 131.481 128.18 131.481ZM128.18 130.301C128.767 130.301 129.249 130.15 129.628 129.85C130.006 129.549 130.286 129.154 130.468 128.664C130.65 128.174 130.741 127.644 130.741 127.072C130.741 126.501 130.65 125.968 130.468 125.474C130.286 124.981 130.006 124.582 129.628 124.278C129.249 123.973 128.767 123.821 128.18 123.821C127.594 123.821 127.111 123.973 126.733 124.278C126.354 124.582 126.074 124.981 125.892 125.474C125.71 125.968 125.62 126.501 125.62 127.072C125.62 127.644 125.71 128.174 125.892 128.664C126.074 129.154 126.354 129.549 126.733 129.85C127.111 130.15 127.594 130.301 128.18 130.301ZM139.315 134.509C139.092 134.509 138.894 134.491 138.719 134.453C138.545 134.42 138.424 134.387 138.358 134.353L138.692 133.195C139.011 133.277 139.293 133.307 139.538 133.284C139.783 133.262 140 133.153 140.189 132.956C140.382 132.763 140.558 132.449 140.718 132.015L140.963 131.347L137.801 122.752H139.226L141.586 129.566H141.675L144.036 122.752H145.461L141.831 132.55C141.668 132.991 141.466 133.357 141.224 133.646C140.983 133.939 140.703 134.157 140.384 134.298C140.068 134.439 139.712 134.509 139.315 134.509ZM153.525 122.752V131.303H152.212V122.752H153.525ZM153.013 126.827V128.052C152.716 128.163 152.421 128.261 152.128 128.347C151.835 128.428 151.527 128.493 151.204 128.542C150.881 128.586 150.527 128.608 150.141 128.608C149.172 128.608 148.395 128.347 147.808 127.824C147.226 127.3 146.934 126.515 146.934 125.469V122.73H148.248V125.469C148.248 125.907 148.332 126.267 148.499 126.549C148.666 126.831 148.892 127.041 149.178 127.178C149.464 127.315 149.785 127.384 150.141 127.384C150.697 127.384 151.2 127.334 151.649 127.233C152.102 127.13 152.557 126.994 153.013 126.827ZM158.452 131.503C157.91 131.503 157.418 131.401 156.977 131.197C156.535 130.989 156.184 130.69 155.925 130.301C155.665 129.907 155.535 129.432 155.535 128.876C155.535 128.386 155.631 127.989 155.824 127.684C156.017 127.376 156.275 127.135 156.598 126.961C156.921 126.786 157.277 126.656 157.667 126.571C158.06 126.482 158.456 126.411 158.853 126.36C159.372 126.293 159.793 126.243 160.116 126.209C160.443 126.172 160.68 126.111 160.829 126.026C160.981 125.94 161.057 125.792 161.057 125.58V125.536C161.057 124.986 160.907 124.56 160.606 124.255C160.309 123.951 159.858 123.799 159.253 123.799C158.626 123.799 158.135 123.936 157.778 124.211C157.422 124.485 157.172 124.779 157.027 125.09L155.78 124.645C156.003 124.125 156.299 123.721 156.671 123.431C157.045 123.138 157.454 122.934 157.895 122.819C158.341 122.7 158.778 122.641 159.209 122.641C159.484 122.641 159.799 122.674 160.155 122.741C160.515 122.804 160.862 122.936 161.196 123.136C161.534 123.337 161.814 123.639 162.037 124.044C162.26 124.448 162.371 124.99 162.371 125.669V131.303H161.057V130.145H160.99C160.901 130.33 160.753 130.529 160.545 130.74C160.337 130.952 160.061 131.132 159.716 131.28C159.37 131.429 158.949 131.503 158.452 131.503ZM158.652 130.323C159.172 130.323 159.61 130.221 159.966 130.017C160.326 129.813 160.597 129.549 160.779 129.226C160.964 128.903 161.057 128.564 161.057 128.208V127.005C161.001 127.072 160.879 127.133 160.69 127.189C160.504 127.241 160.289 127.287 160.044 127.328C159.803 127.365 159.567 127.399 159.337 127.428C159.111 127.454 158.927 127.477 158.786 127.495C158.444 127.54 158.125 127.612 157.828 127.712C157.535 127.809 157.298 127.955 157.116 128.152C156.938 128.345 156.849 128.608 156.849 128.942C156.849 129.399 157.018 129.744 157.355 129.978C157.697 130.208 158.129 130.323 158.652 130.323ZM168.242 131.481C167.441 131.481 166.75 131.292 166.171 130.913C165.593 130.535 165.147 130.013 164.835 129.349C164.524 128.685 164.368 127.926 164.368 127.072C164.368 126.204 164.527 125.437 164.847 124.773C165.169 124.105 165.619 123.584 166.194 123.209C166.773 122.83 167.448 122.641 168.22 122.641C168.821 122.641 169.363 122.752 169.846 122.975C170.328 123.198 170.723 123.509 171.031 123.91C171.339 124.311 171.53 124.779 171.605 125.313H170.291C170.191 124.923 169.968 124.578 169.623 124.278C169.281 123.973 168.821 123.821 168.242 123.821C167.73 123.821 167.281 123.955 166.895 124.222C166.513 124.485 166.214 124.858 165.999 125.341C165.787 125.82 165.682 126.382 165.682 127.028C165.682 127.688 165.786 128.263 165.993 128.753C166.205 129.243 166.502 129.623 166.884 129.894C167.27 130.165 167.723 130.301 168.242 130.301C168.584 130.301 168.894 130.241 169.172 130.123C169.45 130.004 169.686 129.833 169.879 129.61C170.072 129.388 170.209 129.121 170.291 128.809H171.605C171.53 129.314 171.347 129.768 171.053 130.173C170.764 130.573 170.38 130.893 169.901 131.13C169.426 131.364 168.873 131.481 168.242 131.481ZM172.852 123.977V122.752H179.799V123.977H176.993V131.303H175.679V123.977H172.852ZM187.438 126.426V127.651H182.717V126.426H187.438ZM183.029 122.752V131.303H181.715V122.752H183.029ZM188.44 122.752V131.303H187.126V122.752H188.44ZM192.153 129.366L196.272 122.752H197.786V131.303H196.472V124.69L192.375 131.303H190.839V122.752H192.153V129.366ZM200.192 131.303V122.752H201.506V126.471H202.374L205.447 122.752H207.14L203.688 126.872L207.184 131.303H205.492L202.686 127.696H201.506V131.303H200.192ZM211.734 131.481C210.962 131.481 210.284 131.297 209.702 130.93C209.123 130.562 208.67 130.048 208.343 129.388C208.021 128.727 207.859 127.955 207.859 127.072C207.859 126.181 208.021 125.404 208.343 124.74C208.67 124.075 209.123 123.559 209.702 123.192C210.284 122.825 210.962 122.641 211.734 122.641C212.505 122.641 213.181 122.825 213.76 123.192C214.342 123.559 214.795 124.075 215.118 124.74C215.445 125.404 215.608 126.181 215.608 127.072C215.608 127.955 215.445 128.727 215.118 129.388C214.795 130.048 214.342 130.562 213.76 130.93C213.181 131.297 212.505 131.481 211.734 131.481ZM211.734 130.301C212.32 130.301 212.802 130.15 213.181 129.85C213.559 129.549 213.84 129.154 214.021 128.664C214.203 128.174 214.294 127.644 214.294 127.072C214.294 126.501 214.203 125.968 214.021 125.474C213.84 124.981 213.559 124.582 213.181 124.278C212.802 123.973 212.32 123.821 211.734 123.821C211.147 123.821 210.665 123.973 210.286 124.278C209.908 124.582 209.627 124.981 209.446 125.474C209.264 125.968 209.173 126.501 209.173 127.072C209.173 127.644 209.264 128.174 209.446 128.664C209.627 129.154 209.908 129.549 210.286 129.85C210.665 130.15 211.147 130.301 211.734 130.301ZM217.613 131.303V122.752H221.109C222.03 122.752 222.761 122.96 223.302 123.376C223.844 123.791 224.115 124.341 224.115 125.024C224.115 125.543 223.961 125.946 223.653 126.231C223.345 126.514 222.95 126.705 222.467 126.805C222.783 126.849 223.089 126.961 223.386 127.139C223.687 127.317 223.935 127.562 224.132 127.874C224.329 128.182 224.427 128.56 224.427 129.009C224.427 129.447 224.316 129.839 224.093 130.184C223.87 130.529 223.551 130.802 223.135 131.002C222.72 131.203 222.223 131.303 221.644 131.303H217.613ZM218.86 130.1H221.644C222.096 130.1 222.451 129.993 222.707 129.777C222.963 129.562 223.091 129.269 223.091 128.898C223.091 128.456 222.963 128.109 222.707 127.857C222.451 127.601 222.096 127.473 221.644 127.473H218.86V130.1ZM218.86 126.337H221.109C221.462 126.337 221.764 126.289 222.017 126.193C222.269 126.092 222.462 125.951 222.596 125.769C222.733 125.584 222.801 125.365 222.801 125.113C222.801 124.753 222.651 124.471 222.351 124.266C222.05 124.059 221.636 123.955 221.109 123.955H218.86V126.337Z" fill="#5D647D"/>
<rect x="28.672" y="99.9306" width="391.024" height="51.3818" rx="6.53159" stroke="#CFD7DC" stroke-width="0.870878"/>
<rect x="28.2365" y="173.748" width="391.895" height="52.2527" rx="6.96703" fill="#DCF7F4"/>
<path d="M199.991 208.124V203.688H200.753C201.009 203.484 201.249 203.196 201.471 202.825C201.694 202.454 201.883 201.945 202.039 201.3C202.195 200.654 202.303 199.819 202.362 198.795L202.663 193.974H209.949V203.688H211.219V208.113H209.237V205.374H201.972V208.124H199.991ZM203.158 203.688H207.968V195.705H204.522L204.344 198.795C204.296 199.57 204.218 200.264 204.11 200.877C204.002 201.489 203.867 202.029 203.704 202.496C203.54 202.96 203.358 203.357 203.158 203.688ZM215.273 205.547C214.731 205.547 214.243 205.45 213.809 205.257C213.378 205.061 213.037 204.771 212.784 204.389C212.536 204.007 212.411 203.536 212.411 202.975C212.411 202.493 212.5 202.094 212.679 201.778C212.857 201.463 213.1 201.211 213.408 201.021C213.716 200.832 214.063 200.689 214.449 200.593C214.838 200.492 215.241 200.42 215.657 200.375C216.158 200.324 216.564 200.277 216.876 200.236C217.188 200.192 217.414 200.125 217.555 200.036C217.7 199.943 217.772 199.8 217.772 199.607V199.574C217.772 199.155 217.648 198.83 217.399 198.6C217.15 198.37 216.792 198.255 216.325 198.255C215.831 198.255 215.44 198.362 215.15 198.577C214.864 198.793 214.671 199.047 214.571 199.34L212.69 199.073C212.838 198.553 213.083 198.119 213.424 197.77C213.766 197.418 214.183 197.154 214.677 196.98C215.171 196.802 215.716 196.713 216.314 196.713C216.725 196.713 217.136 196.761 217.544 196.857C217.952 196.954 218.325 197.113 218.663 197.336C219 197.555 219.271 197.854 219.475 198.232C219.683 198.611 219.787 199.084 219.787 199.652V205.374H217.85V204.2H217.783C217.661 204.437 217.488 204.66 217.265 204.868C217.047 205.072 216.77 205.237 216.436 205.363C216.106 205.486 215.718 205.547 215.273 205.547ZM215.796 204.066C216.2 204.066 216.551 203.986 216.848 203.827C217.145 203.664 217.373 203.448 217.533 203.181C217.696 202.914 217.778 202.623 217.778 202.307V201.3C217.715 201.352 217.607 201.4 217.455 201.444C217.306 201.489 217.139 201.528 216.954 201.561C216.768 201.595 216.584 201.624 216.403 201.65C216.221 201.676 216.063 201.699 215.929 201.717C215.629 201.758 215.36 201.825 215.122 201.917C214.885 202.01 214.697 202.14 214.56 202.307C214.423 202.47 214.354 202.682 214.354 202.942C214.354 203.313 214.49 203.593 214.76 203.782C215.031 203.972 215.377 204.066 215.796 204.066ZM221.223 205.374L221.212 203.716H221.507C221.73 203.716 221.917 203.665 222.07 203.565C222.222 203.465 222.348 203.298 222.448 203.064C222.548 202.827 222.626 202.508 222.682 202.107C222.738 201.706 222.776 201.207 222.799 200.609L222.949 196.824H229.184V205.374H227.235V198.477H224.781L224.647 201.233C224.614 201.945 224.534 202.563 224.408 203.086C224.285 203.606 224.111 204.035 223.884 204.372C223.662 204.71 223.381 204.962 223.044 205.129C222.706 205.293 222.307 205.374 221.847 205.374H221.223ZM234.998 205.541C234.141 205.541 233.401 205.363 232.777 205.007C232.157 204.647 231.68 204.139 231.346 203.482C231.012 202.821 230.845 202.044 230.845 201.149C230.845 200.27 231.012 199.498 231.346 198.834C231.684 198.166 232.155 197.646 232.76 197.275C233.365 196.9 234.076 196.713 234.892 196.713C235.419 196.713 235.917 196.798 236.384 196.969C236.856 197.136 237.271 197.395 237.631 197.748C237.995 198.101 238.281 198.55 238.488 199.095C238.696 199.637 238.8 200.283 238.8 201.032V201.65H231.792V200.292H236.869C236.865 199.906 236.781 199.563 236.618 199.262C236.455 198.958 236.227 198.718 235.933 198.544C235.644 198.37 235.306 198.282 234.92 198.282C234.508 198.282 234.146 198.383 233.835 198.583C233.523 198.78 233.28 199.039 233.105 199.362C232.935 199.682 232.848 200.032 232.844 200.414V201.6C232.844 202.097 232.935 202.524 233.117 202.881C233.298 203.233 233.553 203.504 233.879 203.693C234.206 203.879 234.588 203.972 235.026 203.972C235.319 203.972 235.585 203.931 235.822 203.849C236.06 203.764 236.266 203.639 236.44 203.476C236.614 203.313 236.746 203.111 236.835 202.869L238.717 203.081C238.598 203.578 238.372 204.012 238.038 204.384C237.707 204.751 237.284 205.037 236.768 205.241C236.253 205.441 235.662 205.541 234.998 205.541ZM244.29 205.541C243.433 205.541 242.693 205.363 242.069 205.007C241.45 204.647 240.973 204.139 240.639 203.482C240.305 202.821 240.138 202.044 240.138 201.149C240.138 200.27 240.305 199.498 240.639 198.834C240.976 198.166 241.448 197.646 242.053 197.275C242.657 196.9 243.368 196.713 244.185 196.713C244.712 196.713 245.209 196.798 245.676 196.969C246.148 197.136 246.563 197.395 246.923 197.748C247.287 198.101 247.573 198.55 247.781 199.095C247.989 199.637 248.092 200.283 248.092 201.032V201.65H241.084V200.292H246.161C246.157 199.906 246.074 199.563 245.91 199.262C245.747 198.958 245.519 198.718 245.226 198.544C244.936 198.37 244.598 198.282 244.212 198.282C243.801 198.282 243.439 198.383 243.127 198.583C242.815 198.78 242.572 199.039 242.398 199.362C242.227 199.682 242.14 200.032 242.136 200.414V201.6C242.136 202.097 242.227 202.524 242.409 202.881C242.591 203.233 242.845 203.504 243.171 203.693C243.498 203.879 243.88 203.972 244.318 203.972C244.611 203.972 244.877 203.931 245.114 203.849C245.352 203.764 245.558 203.639 245.732 203.476C245.907 203.313 246.038 203.111 246.127 202.869L248.009 203.081C247.89 203.578 247.664 204.012 247.33 204.384C247 204.751 246.576 205.037 246.061 205.241C245.545 205.441 244.955 205.541 244.29 205.541Z" fill="#27ACA1"/>
<path d="M396.455 37.9114L412.055 53.5117" stroke="#5D647D" stroke-width="1.37889" stroke-linecap="round"/>
<path d="M412.055 37.9114L396.455 53.5117" stroke="#5D647D" stroke-width="1.37889" stroke-linecap="round"/>
</svg>
