<svg width="512" height="246" viewBox="0 0 512 246" fill="none" xmlns="http://www.w3.org/2000/svg">
<g clip-path="url(#clip0_1_752)">
<rect width="512" height="246" rx="16" fill="#F6F8FA"/>
<rect x="32.3684" y="32.626" width="447.632" height="264.747" rx="8" fill="white"/>
<path d="M61.6171 78.4952V67.0946H65.4692C66.3636 67.0946 67.0947 67.2561 67.6625 67.579C68.234 67.8981 68.6571 68.3305 68.9317 68.876C69.2063 69.4215 69.3437 70.0302 69.3437 70.7019C69.3437 71.3736 69.2063 71.9841 68.9317 72.5333C68.6608 73.0826 68.2414 73.5205 67.6736 73.847C67.1058 74.1699 66.3785 74.3314 65.4915 74.3314H62.7304V73.1067H65.447C66.0593 73.1067 66.551 73.0009 66.9221 72.7894C67.2933 72.5778 67.5623 72.2921 67.7293 71.9321C67.9 71.5684 67.9854 71.1583 67.9854 70.7019C67.9854 70.2454 67.9 69.8372 67.7293 69.4772C67.5623 69.1172 67.2914 68.8352 66.9166 68.6311C66.5418 68.4232 66.0445 68.3193 65.4247 68.3193H62.9976V78.4952H61.6171ZM74.8825 78.6734C74.0586 78.6734 73.348 78.4915 72.7505 78.1278C72.1567 77.7604 71.6984 77.2483 71.3755 76.5914C71.0563 75.9308 70.8968 75.1626 70.8968 74.2868C70.8968 73.411 71.0563 72.6391 71.3755 71.9711C71.6984 71.2994 72.1474 70.7761 72.7226 70.4013C73.3016 70.0227 73.977 69.8335 74.7489 69.8335C75.1943 69.8335 75.634 69.9077 76.0682 70.0561C76.5024 70.2046 76.8977 70.4458 77.2539 70.7798C77.6102 71.1101 77.8941 71.548 78.1056 72.0935C78.3172 72.6391 78.4229 73.3108 78.4229 74.1087V74.6654H71.832V73.5297H77.0869C77.0869 73.0473 76.9904 72.6168 76.7975 72.2383C76.6082 71.8597 76.3373 71.561 75.9847 71.342C75.6359 71.1231 75.2239 71.0136 74.7489 71.0136C74.2256 71.0136 73.7729 71.1435 73.3906 71.4033C73.0121 71.6593 72.7208 71.9933 72.5167 72.4053C72.3126 72.8172 72.2105 73.2588 72.2105 73.7301V74.4872C72.2105 75.133 72.3218 75.6803 72.5445 76.1294C72.7709 76.5747 73.0845 76.9143 73.4853 77.1481C73.8861 77.3782 74.3518 77.4932 74.8825 77.4932C75.2277 77.4932 75.5394 77.445 75.8177 77.3485C76.0998 77.2483 76.3428 77.0999 76.547 76.9032C76.7511 76.7028 76.9088 76.4541 77.0201 76.1572L78.2893 76.5135C78.1557 76.944 77.9312 77.3225 77.6158 77.6491C77.3003 77.972 76.9106 78.2243 76.4468 78.4062C75.9829 78.5843 75.4615 78.6734 74.8825 78.6734ZM85.6986 69.9448V71.1695H81.7351V78.4952H80.4214V69.9448H85.6986ZM88.9301 76.558L93.0494 69.9448H94.5636V78.4952H93.2498V71.882L89.1527 78.4952H87.6163V69.9448H88.9301V76.558ZM100.443 78.6734C99.6418 78.6734 98.9515 78.4841 98.3726 78.1056C97.7936 77.727 97.3483 77.2056 97.0366 76.5413C96.7248 75.877 96.569 75.1181 96.569 74.2646C96.569 73.3961 96.7285 72.6298 97.0477 71.9655C97.3706 71.2975 97.8196 70.7761 98.3948 70.4013C98.9738 70.0227 99.6492 69.8335 100.421 69.8335C101.022 69.8335 101.564 69.9448 102.047 70.1675C102.529 70.3901 102.924 70.7019 103.232 71.1027C103.54 71.5035 103.731 71.9711 103.806 72.5055H102.492C102.392 72.1158 102.169 71.7707 101.824 71.4701C101.483 71.1658 101.022 71.0136 100.443 71.0136C99.9312 71.0136 99.4822 71.1472 99.0962 71.4144C98.714 71.6779 98.4153 72.0509 98.2 72.5333C97.9885 73.012 97.8827 73.5743 97.8827 74.22C97.8827 74.8806 97.9866 75.4558 98.1944 75.9457C98.406 76.4356 98.7029 76.816 99.0851 77.0869C99.4711 77.3578 99.9238 77.4932 100.443 77.4932C100.785 77.4932 101.095 77.4339 101.373 77.3151C101.651 77.1963 101.887 77.0256 102.08 76.803C102.273 76.5803 102.41 76.3131 102.492 76.0014H103.806C103.731 76.5061 103.548 76.9607 103.255 77.3652C102.965 77.766 102.581 78.0852 102.102 78.3227C101.627 78.5565 101.074 78.6734 100.443 78.6734ZM105.053 71.1695V69.9448H112V71.1695H109.194V78.4952H107.88V71.1695H105.053ZM113.916 81.7017V69.9448H115.185V71.3031H115.341C115.438 71.1546 115.571 70.9654 115.742 70.7353C115.916 70.5015 116.165 70.2936 116.488 70.1118C116.815 69.9262 117.256 69.8335 117.813 69.8335C118.533 69.8335 119.167 70.0135 119.717 70.3734C120.266 70.7334 120.695 71.2437 121.003 71.9043C121.311 72.5649 121.465 73.3442 121.465 74.2423C121.465 75.1478 121.311 75.9327 121.003 76.597C120.695 77.2576 120.268 77.7697 119.722 78.1334C119.177 78.4934 118.548 78.6734 117.835 78.6734C117.286 78.6734 116.846 78.5825 116.516 78.4006C116.186 78.215 115.931 78.0054 115.753 77.7716C115.575 77.5341 115.438 77.3374 115.341 77.1815H115.23V81.7017H113.916ZM115.208 74.22C115.208 74.8658 115.302 75.4354 115.492 75.929C115.681 76.4189 115.957 76.803 116.321 77.0813C116.685 77.3559 117.13 77.4932 117.657 77.4932C118.206 77.4932 118.665 77.3485 119.032 77.059C119.403 76.7659 119.681 76.3725 119.867 75.8789C120.056 75.3816 120.151 74.8286 120.151 74.22C120.151 73.6188 120.058 73.077 119.873 72.5945C119.691 72.1084 119.414 71.7243 119.043 71.4422C118.676 71.1565 118.214 71.0136 117.657 71.0136C117.123 71.0136 116.674 71.1491 116.31 71.42C115.946 71.6872 115.672 72.062 115.486 72.5444C115.3 73.0232 115.208 73.5817 115.208 74.22ZM125.985 78.6956C125.443 78.6956 124.951 78.5936 124.51 78.3895C124.068 78.1816 123.717 77.8829 123.457 77.4932C123.198 77.0999 123.068 76.6248 123.068 76.0682C123.068 75.5783 123.164 75.1812 123.357 74.8769C123.55 74.5689 123.808 74.3276 124.131 74.1532C124.454 73.9788 124.81 73.8489 125.2 73.7635C125.593 73.6745 125.988 73.604 126.386 73.552C126.905 73.4852 127.326 73.4351 127.649 73.4017C127.976 73.3646 128.213 73.3034 128.362 73.218C128.514 73.1327 128.59 72.9842 128.59 72.7727V72.7281C128.59 72.1789 128.44 71.7521 128.139 71.4478C127.842 71.1435 127.391 70.9913 126.786 70.9913C126.159 70.9913 125.667 71.1286 125.311 71.4033C124.955 71.6779 124.704 71.9711 124.56 72.2828L123.313 71.8375C123.535 71.3179 123.832 70.9134 124.203 70.6239C124.578 70.3308 124.986 70.1266 125.428 70.0116C125.873 69.8928 126.311 69.8335 126.742 69.8335C127.016 69.8335 127.332 69.8669 127.688 69.9337C128.048 69.9968 128.395 70.1285 128.729 70.3289C129.067 70.5293 129.347 70.8318 129.57 71.2363C129.792 71.6408 129.904 72.1826 129.904 72.8617V78.4952H128.59V77.3374H128.523C128.434 77.5229 128.286 77.7215 128.078 77.933C127.87 78.1445 127.594 78.3245 127.248 78.473C126.903 78.6214 126.482 78.6956 125.985 78.6956ZM126.185 77.5155C126.705 77.5155 127.143 77.4134 127.499 77.2093C127.859 77.0052 128.13 76.7417 128.312 76.4189C128.497 76.096 128.59 75.7564 128.59 75.4002V74.1978C128.534 74.2646 128.412 74.3258 128.223 74.3815C128.037 74.4334 127.822 74.4798 127.577 74.5206C127.336 74.5577 127.1 74.5911 126.87 74.6208C126.643 74.6468 126.46 74.6691 126.319 74.6876C125.977 74.7322 125.658 74.8045 125.361 74.9047C125.068 75.0012 124.831 75.1478 124.649 75.3445C124.471 75.5375 124.382 75.801 124.382 76.135C124.382 76.5914 124.55 76.9366 124.888 77.1704C125.23 77.4005 125.662 77.5155 126.185 77.5155ZM139.026 69.9448V77.2706H140.229V81.2563H138.915V78.4952H132.302V69.9448H133.615V77.2706H137.712V69.9448H139.026ZM143.566 76.558L147.685 69.9448H149.199V78.4952H147.886V71.882L143.788 78.4952H142.252V69.9448H143.566V76.558ZM156.749 78.4952V71.1472H154.478C153.966 71.1472 153.563 71.266 153.27 71.5035C152.977 71.741 152.83 72.0676 152.83 72.4832C152.83 72.8914 152.962 73.2124 153.225 73.4462C153.493 73.68 153.858 73.7969 154.322 73.7969H157.083V75.0216H154.322C153.743 75.0216 153.244 74.9196 152.825 74.7155C152.405 74.5113 152.082 74.22 151.856 73.8415C151.63 73.4592 151.516 73.0065 151.516 72.4832C151.516 71.9562 151.635 71.5035 151.873 71.1249C152.11 70.7464 152.45 70.4551 152.891 70.251C153.337 70.0469 153.866 69.9448 154.478 69.9448H157.996V78.4952H156.749ZM151.049 78.4952L153.476 74.2423H154.901L152.474 78.4952H151.049ZM170.539 73.6188V74.8435H165.819V73.6188H170.539ZM166.13 69.9448V78.4952H164.817V69.9448H166.13ZM171.541 69.9448V78.4952H170.227V69.9448H171.541ZM176.457 78.6956C175.915 78.6956 175.423 78.5936 174.981 78.3895C174.54 78.1816 174.189 77.8829 173.929 77.4932C173.67 77.0999 173.54 76.6248 173.54 76.0682C173.54 75.5783 173.636 75.1812 173.829 74.8769C174.022 74.5689 174.28 74.3276 174.603 74.1532C174.926 73.9788 175.282 73.8489 175.672 73.7635C176.065 73.6745 176.46 73.604 176.857 73.552C177.377 73.4852 177.798 73.4351 178.121 73.4017C178.448 73.3646 178.685 73.3034 178.834 73.218C178.986 73.1327 179.062 72.9842 179.062 72.7727V72.7281C179.062 72.1789 178.912 71.7521 178.611 71.4478C178.314 71.1435 177.863 70.9913 177.258 70.9913C176.631 70.9913 176.139 71.1286 175.783 71.4033C175.427 71.6779 175.176 71.9711 175.032 72.2828L173.785 71.8375C174.007 71.3179 174.304 70.9134 174.675 70.6239C175.05 70.3308 175.458 70.1266 175.9 70.0116C176.345 69.8928 176.783 69.8335 177.214 69.8335C177.488 69.8335 177.804 69.8669 178.16 69.9337C178.52 69.9968 178.867 70.1285 179.201 70.3289C179.539 70.5293 179.819 70.8318 180.042 71.2363C180.264 71.6408 180.376 72.1826 180.376 72.8617V78.4952H179.062V77.3374H178.995C178.906 77.5229 178.757 77.7215 178.55 77.933C178.342 78.1445 178.065 78.3245 177.72 78.473C177.375 78.6214 176.954 78.6956 176.457 78.6956ZM176.657 77.5155C177.177 77.5155 177.614 77.4134 177.971 77.2093C178.331 77.0052 178.602 76.7417 178.783 76.4189C178.969 76.096 179.062 75.7564 179.062 75.4002V74.1978C179.006 74.2646 178.884 74.3258 178.694 74.3815C178.509 74.4334 178.294 74.4798 178.049 74.5206C177.807 74.5577 177.572 74.5911 177.342 74.6208C177.115 74.6468 176.932 74.6691 176.791 74.6876C176.449 74.7322 176.13 74.8045 175.833 74.9047C175.54 75.0012 175.302 75.1478 175.121 75.3445C174.942 75.5375 174.853 75.801 174.853 76.135C174.853 76.5914 175.022 76.9366 175.36 77.1704C175.701 77.4005 176.134 77.5155 176.657 77.5155ZM190.656 78.6734C189.884 78.6734 189.207 78.4897 188.624 78.1223C188.045 77.7549 187.592 77.2409 187.266 76.5803C186.943 75.9197 186.781 75.1478 186.781 74.2646C186.781 73.3739 186.943 72.5964 187.266 71.9321C187.592 71.2678 188.045 70.752 188.624 70.3846C189.207 70.0172 189.884 69.8335 190.656 69.8335C191.428 69.8335 192.103 70.0172 192.682 70.3846C193.265 70.752 193.718 71.2678 194.04 71.9321C194.367 72.5964 194.53 73.3739 194.53 74.2646C194.53 75.1478 194.367 75.9197 194.04 76.5803C193.718 77.2409 193.265 77.7549 192.682 78.1223C192.103 78.4897 191.428 78.6734 190.656 78.6734ZM190.656 77.4932C191.242 77.4932 191.725 77.3429 192.103 77.0423C192.482 76.7417 192.762 76.3465 192.944 75.8566C193.126 75.3668 193.217 74.8361 193.217 74.2646C193.217 73.693 193.126 73.1605 192.944 72.6669C192.762 72.1733 192.482 71.7744 192.103 71.4701C191.725 71.1658 191.242 71.0136 190.656 71.0136C190.069 71.0136 189.587 71.1658 189.209 71.4701C188.83 71.7744 188.55 72.1733 188.368 72.6669C188.186 73.1605 188.095 73.693 188.095 74.2646C188.095 74.8361 188.186 75.3668 188.368 75.8566C188.55 76.3465 188.83 76.7417 189.209 77.0423C189.587 77.3429 190.069 77.4932 190.656 77.4932ZM202.258 73.6188V74.8435H197.538V73.6188H202.258ZM197.849 69.9448V78.4952H196.536V69.9448H197.849ZM203.26 69.9448V78.4952H201.947V69.9448H203.26ZM204.902 78.4952V77.2706H205.214C205.47 77.2706 205.684 77.2205 205.854 77.1203C206.025 77.0164 206.162 76.8364 206.266 76.5803C206.374 76.3205 206.456 75.9605 206.511 75.5004C206.571 75.0365 206.613 74.4464 206.639 73.7301L206.795 69.9448H212.495V78.4952H211.182V71.1695H208.042L207.908 74.22C207.879 74.9214 207.816 75.5393 207.719 76.0737C207.626 76.6044 207.484 77.0498 207.291 77.4097C207.101 77.7697 206.849 78.0406 206.533 78.2225C206.218 78.4043 205.823 78.4952 205.348 78.4952H204.902ZM217.422 78.6956C216.88 78.6956 216.388 78.5936 215.947 78.3895C215.505 78.1816 215.154 77.8829 214.895 77.4932C214.635 77.0999 214.505 76.6248 214.505 76.0682C214.505 75.5783 214.601 75.1812 214.794 74.8769C214.987 74.5689 215.245 74.3276 215.568 74.1532C215.891 73.9788 216.247 73.8489 216.637 73.7635C217.03 73.6745 217.426 73.604 217.823 73.552C218.342 73.4852 218.763 73.4351 219.086 73.4017C219.413 73.3646 219.65 73.3034 219.799 73.218C219.951 73.1327 220.027 72.9842 220.027 72.7727V72.7281C220.027 72.1789 219.877 71.7521 219.576 71.4478C219.279 71.1435 218.828 70.9913 218.224 70.9913C217.596 70.9913 217.105 71.1286 216.748 71.4033C216.392 71.6779 216.142 71.9711 215.997 72.2828L214.75 71.8375C214.973 71.3179 215.269 70.9134 215.641 70.6239C216.015 70.3308 216.424 70.1266 216.865 70.0116C217.311 69.8928 217.748 69.8335 218.179 69.8335C218.454 69.8335 218.769 69.8669 219.125 69.9337C219.485 69.9968 219.832 70.1285 220.166 70.3289C220.504 70.5293 220.784 70.8318 221.007 71.2363C221.23 71.6408 221.341 72.1826 221.341 72.8617V78.4952H220.027V77.3374H219.96C219.871 77.5229 219.723 77.7215 219.515 77.933C219.307 78.1445 219.031 78.3245 218.686 78.473C218.34 78.6214 217.919 78.6956 217.422 78.6956ZM217.622 77.5155C218.142 77.5155 218.58 77.4134 218.936 77.2093C219.296 77.0052 219.567 76.7417 219.749 76.4189C219.934 76.096 220.027 75.7564 220.027 75.4002V74.1978C219.971 74.2646 219.849 74.3258 219.66 74.3815C219.474 74.4334 219.259 74.4798 219.014 74.5206C218.773 74.5577 218.537 74.5911 218.307 74.6208C218.081 74.6468 217.897 74.6691 217.756 74.6876C217.414 74.7322 217.095 74.8045 216.798 74.9047C216.505 75.0012 216.268 75.1478 216.086 75.3445C215.908 75.5375 215.819 75.801 215.819 76.135C215.819 76.5914 215.988 76.9366 216.325 77.1704C216.667 77.4005 217.099 77.5155 217.622 77.5155ZM225.052 76.558L229.172 69.9448H230.686V78.4952H229.372V71.882L225.275 78.4952H223.739V69.9448H225.052V76.558ZM228.303 67.0946H229.528C229.528 67.6959 229.32 68.1876 228.905 68.5698C228.489 68.9521 227.925 69.1432 227.212 69.1432C226.511 69.1432 225.952 68.9521 225.537 68.5698C225.125 68.1876 224.919 67.6959 224.919 67.0946H226.144C226.144 67.3841 226.223 67.6383 226.383 67.8573C226.546 68.0762 226.823 68.1857 227.212 68.1857C227.602 68.1857 227.88 68.0762 228.047 67.8573C228.218 67.6383 228.303 67.3841 228.303 67.0946ZM238.815 73.6188V74.8435H234.094V73.6188H238.815ZM234.406 69.9448V78.4952H233.092V69.9448H234.406ZM239.817 69.9448V78.4952H238.503V69.9448H239.817ZM247.115 72.9953V74.22H242.127V72.9953H247.115ZM254.102 76.7139L257.086 69.9448H258.333L254.637 78.4952H253.568L249.938 69.9448H251.163L254.102 76.7139ZM250.74 69.9448V78.4952H249.426V69.9448H250.74ZM257.465 78.4952V69.9448H258.778V78.4952H257.465ZM264.768 78.6734C263.944 78.6734 263.233 78.4915 262.636 78.1278C262.042 77.7604 261.584 77.2483 261.261 76.5914C260.942 75.9308 260.782 75.1626 260.782 74.2868C260.782 73.411 260.942 72.6391 261.261 71.9711C261.584 71.2994 262.033 70.7761 262.608 70.4013C263.187 70.0227 263.863 69.8335 264.634 69.8335C265.08 69.8335 265.52 69.9077 265.954 70.0561C266.388 70.2046 266.783 70.4458 267.139 70.7798C267.496 71.1101 267.78 71.548 267.991 72.0935C268.203 72.6391 268.308 73.3108 268.308 74.1087V74.6654H261.717V73.5297H266.972C266.972 73.0473 266.876 72.6168 266.683 72.2383C266.494 71.8597 266.223 71.561 265.87 71.342C265.521 71.1231 265.109 71.0136 264.634 71.0136C264.111 71.0136 263.658 71.1435 263.276 71.4033C262.898 71.6593 262.606 71.9933 262.402 72.4053C262.198 72.8172 262.096 73.2588 262.096 73.7301V74.4872C262.096 75.133 262.207 75.6803 262.43 76.1294C262.656 76.5747 262.97 76.9143 263.371 77.1481C263.772 77.3782 264.237 77.4932 264.768 77.4932C265.113 77.4932 265.425 77.445 265.703 77.3485C265.985 77.2483 266.228 77.0999 266.432 76.9032C266.637 76.7028 266.794 76.4541 266.906 76.1572L268.175 76.5135C268.041 76.944 267.817 77.3225 267.501 77.6491C267.186 77.972 266.796 78.2243 266.332 78.4062C265.868 78.5843 265.347 78.6734 264.768 78.6734ZM270.307 81.7017V69.9448H271.576V71.3031H271.732C271.828 71.1546 271.962 70.9654 272.133 70.7353C272.307 70.5015 272.556 70.2936 272.879 70.1118C273.205 69.9262 273.647 69.8335 274.204 69.8335C274.924 69.8335 275.558 70.0135 276.107 70.3734C276.657 70.7334 277.085 71.2437 277.393 71.9043C277.701 72.5649 277.855 73.3442 277.855 74.2423C277.855 75.1478 277.701 75.9327 277.393 76.597C277.085 77.2576 276.658 77.7697 276.113 78.1334C275.567 78.4934 274.938 78.6734 274.226 78.6734C273.677 78.6734 273.237 78.5825 272.907 78.4006C272.576 78.215 272.322 78.0054 272.144 77.7716C271.966 77.5341 271.828 77.3374 271.732 77.1815H271.621V81.7017H270.307ZM271.598 74.22C271.598 74.8658 271.693 75.4354 271.882 75.929C272.072 76.4189 272.348 76.803 272.712 77.0813C273.075 77.3559 273.521 77.4932 274.048 77.4932C274.597 77.4932 275.055 77.3485 275.423 77.059C275.794 76.7659 276.072 76.3725 276.258 75.8789C276.447 75.3816 276.542 74.8286 276.542 74.22C276.542 73.6188 276.449 73.077 276.263 72.5945C276.081 72.1084 275.805 71.7243 275.434 71.4422C275.066 71.1565 274.604 71.0136 274.048 71.0136C273.513 71.0136 273.064 71.1491 272.701 71.42C272.337 71.6872 272.062 72.062 271.877 72.5444C271.691 73.0232 271.598 73.5817 271.598 74.22ZM283.333 78.6734C282.561 78.6734 281.884 78.4897 281.301 78.1223C280.722 77.7549 280.269 77.2409 279.943 76.5803C279.62 75.9197 279.459 75.1478 279.459 74.2646C279.459 73.3739 279.62 72.5964 279.943 71.9321C280.269 71.2678 280.722 70.752 281.301 70.3846C281.884 70.0172 282.561 69.8335 283.333 69.8335C284.105 69.8335 284.78 70.0172 285.359 70.3846C285.942 70.752 286.395 71.2678 286.718 71.9321C287.044 72.5964 287.207 73.3739 287.207 74.2646C287.207 75.1478 287.044 75.9197 286.718 76.5803C286.395 77.2409 285.942 77.7549 285.359 78.1223C284.78 78.4897 284.105 78.6734 283.333 78.6734ZM283.333 77.4932C283.919 77.4932 284.402 77.3429 284.78 77.0423C285.159 76.7417 285.439 76.3465 285.621 75.8566C285.803 75.3668 285.894 74.8361 285.894 74.2646C285.894 73.693 285.803 73.1605 285.621 72.6669C285.439 72.1733 285.159 71.7744 284.78 71.4701C284.402 71.1658 283.919 71.0136 283.333 71.0136C282.747 71.0136 282.264 71.1658 281.886 71.4701C281.507 71.7744 281.227 72.1733 281.045 72.6669C280.863 73.1605 280.772 73.693 280.772 74.2646C280.772 74.8361 280.863 75.3668 281.045 75.8566C281.227 76.3465 281.507 76.7417 281.886 77.0423C282.264 77.3429 282.747 77.4932 283.333 77.4932ZM289.213 78.4952V69.9448H295.937V78.4952H294.624V71.1695H290.527V78.4952H289.213ZM298.337 81.7017V69.9448H299.606V71.3031H299.762C299.858 71.1546 299.992 70.9654 300.162 70.7353C300.337 70.5015 300.586 70.2936 300.908 70.1118C301.235 69.9262 301.677 69.8335 302.233 69.8335C302.953 69.8335 303.588 70.0135 304.137 70.3734C304.686 70.7334 305.115 71.2437 305.423 71.9043C305.731 72.5649 305.885 73.3442 305.885 74.2423C305.885 75.1478 305.731 75.9327 305.423 76.597C305.115 77.2576 304.688 77.7697 304.143 78.1334C303.597 78.4934 302.968 78.6734 302.256 78.6734C301.706 78.6734 301.267 78.5825 300.936 78.4006C300.606 78.215 300.352 78.0054 300.174 77.7716C299.995 77.5341 299.858 77.3374 299.762 77.1815H299.65V81.7017H298.337ZM299.628 74.22C299.628 74.8658 299.723 75.4354 299.912 75.929C300.101 76.4189 300.378 76.803 300.741 77.0813C301.105 77.3559 301.55 77.4932 302.077 77.4932C302.627 77.4932 303.085 77.3485 303.452 77.059C303.823 76.7659 304.102 76.3725 304.287 75.8789C304.477 75.3816 304.571 74.8286 304.571 74.22C304.571 73.6188 304.479 73.077 304.293 72.5945C304.111 72.1084 303.835 71.7243 303.464 71.4422C303.096 71.1565 302.634 71.0136 302.077 71.0136C301.543 71.0136 301.094 71.1491 300.73 71.42C300.367 71.6872 300.092 72.062 299.906 72.5444C299.721 73.0232 299.628 73.5817 299.628 74.22ZM309.203 76.558L313.322 69.9448H314.836V78.4952H313.523V71.882L309.425 78.4952H307.889V69.9448H309.203V76.558ZM322.386 78.4952V71.1472H320.115C319.603 71.1472 319.2 71.266 318.907 71.5035C318.614 71.741 318.467 72.0676 318.467 72.4832C318.467 72.8914 318.599 73.2124 318.862 73.4462C319.13 73.68 319.495 73.7969 319.959 73.7969H322.72V75.0216H319.959C319.38 75.0216 318.881 74.9196 318.462 74.7155C318.042 74.5113 317.719 74.22 317.493 73.8415C317.267 73.4592 317.153 73.0065 317.153 72.4832C317.153 71.9562 317.272 71.5035 317.51 71.1249C317.747 70.7464 318.087 70.4551 318.528 70.251C318.974 70.0469 319.503 69.9448 320.115 69.9448H323.633V78.4952H322.386ZM316.686 78.4952L319.113 74.2423H320.538L318.111 78.4952H316.686ZM324.881 71.1695V69.9448H331.829V71.1695H329.023V78.4952H327.709V71.1695H324.881ZM335.059 76.558L339.178 69.9448H340.692V78.4952H339.378V71.882L335.281 78.4952H333.745V69.9448H335.059V76.558ZM346.683 78.6734C345.859 78.6734 345.149 78.4915 344.551 78.1278C343.957 77.7604 343.499 77.2483 343.176 76.5914C342.857 75.9308 342.698 75.1626 342.698 74.2868C342.698 73.411 342.857 72.6391 343.176 71.9711C343.499 71.2994 343.948 70.7761 344.523 70.4013C345.102 70.0227 345.778 69.8335 346.55 69.8335C346.995 69.8335 347.435 69.9077 347.869 70.0561C348.303 70.2046 348.698 70.4458 349.055 70.7798C349.411 71.1101 349.695 71.548 349.906 72.0935C350.118 72.6391 350.224 73.3108 350.224 74.1087V74.6654H343.633V73.5297H348.888C348.888 73.0473 348.791 72.6168 348.598 72.2383C348.409 71.8597 348.138 71.561 347.786 71.342C347.437 71.1231 347.025 71.0136 346.55 71.0136C346.026 71.0136 345.574 71.1435 345.191 71.4033C344.813 71.6593 344.522 71.9933 344.317 72.4053C344.113 72.8172 344.011 73.2588 344.011 73.7301V74.4872C344.011 75.133 344.123 75.6803 344.345 76.1294C344.572 76.5747 344.885 76.9143 345.286 77.1481C345.687 77.3782 346.153 77.4932 346.683 77.4932C347.028 77.4932 347.34 77.445 347.619 77.3485C347.901 77.2483 348.144 77.0999 348.348 76.9032C348.552 76.7028 348.71 76.4541 348.821 76.1572L350.09 76.5135C349.957 76.944 349.732 77.3225 349.417 77.6491C349.101 77.972 348.711 78.2243 348.248 78.4062C347.784 78.5843 347.262 78.6734 346.683 78.6734ZM64.6899 101.271H63.532L61.2831 97.9305V97.8192H62.5523L64.6899 101.271ZM64.6899 94.4347L62.5523 97.886H61.2831V97.7747L63.532 94.4347H64.6899ZM67.54 101.271H66.3822L64.1332 97.9305V97.8192H65.4024L67.54 101.271ZM67.54 94.4347L65.4024 97.886H64.1332V97.7747L66.3822 94.4347H67.54ZM70.0826 91.0946H71.4409V100.068H71.5522L77.7869 91.0946H79.1229V102.495H77.7424V93.544H77.6311L71.4186 102.495H70.0826V91.0946ZM87.4298 97.6188V98.8435H82.7093V97.6188H87.4298ZM83.021 93.9448V102.495H81.7073V93.9448H83.021ZM88.4318 93.9448V102.495H87.1181V93.9448H88.4318ZM94.3047 102.673C93.5031 102.673 92.8128 102.484 92.2339 102.106C91.655 101.727 91.2096 101.206 90.8979 100.541C90.5862 99.877 90.4303 99.1181 90.4303 98.2646C90.4303 97.3961 90.5899 96.6298 90.909 95.9655C91.2319 95.2975 91.6809 94.7761 92.2562 94.4013C92.8351 94.0227 93.5105 93.8335 94.2824 93.8335C94.8836 93.8335 95.4255 93.9448 95.9079 94.1675C96.3904 94.3901 96.7856 94.7019 97.0936 95.1027C97.4016 95.5035 97.5928 95.9711 97.667 96.5055H96.3533C96.2531 96.1158 96.0304 95.7707 95.6853 95.4701C95.3438 95.1658 94.8836 95.0136 94.3047 95.0136C93.7926 95.0136 93.3435 95.1472 92.9576 95.4144C92.5753 95.6779 92.2766 96.0509 92.0613 96.5333C91.8498 97.012 91.744 97.5743 91.744 98.22C91.744 98.8806 91.8479 99.4558 92.0558 99.9457C92.2673 100.436 92.5642 100.816 92.9464 101.087C93.3324 101.358 93.7852 101.493 94.3047 101.493C94.6461 101.493 94.956 101.434 95.2344 101.315C95.5127 101.196 95.7483 101.026 95.9413 100.803C96.1343 100.58 96.2716 100.313 96.3533 100.001H97.667C97.5928 100.506 97.4091 100.961 97.1159 101.365C96.8264 101.766 96.4423 102.085 95.9636 102.323C95.4886 102.556 94.9356 102.673 94.3047 102.673ZM98.9139 95.1695V93.9448H105.861V95.1695H103.056V102.495H101.742V95.1695H98.9139ZM107.778 105.702V93.9448H109.047V95.3031H109.203C109.299 95.1546 109.433 94.9654 109.603 94.7353C109.778 94.5015 110.026 94.2936 110.349 94.1118C110.676 93.9262 111.118 93.8335 111.674 93.8335C112.394 93.8335 113.029 94.0135 113.578 94.3734C114.127 94.7334 114.556 95.2437 114.864 95.9043C115.172 96.5649 115.326 97.3442 115.326 98.2423C115.326 99.1478 115.172 99.9327 114.864 100.597C114.556 101.258 114.129 101.77 113.584 102.133C113.038 102.493 112.409 102.673 111.696 102.673C111.147 102.673 110.707 102.582 110.377 102.401C110.047 102.215 109.793 102.005 109.615 101.772C109.436 101.534 109.299 101.337 109.203 101.181H109.091V105.702H107.778ZM109.069 98.22C109.069 98.8658 109.164 99.4354 109.353 99.929C109.542 100.419 109.819 100.803 110.182 101.081C110.546 101.356 110.991 101.493 111.518 101.493C112.068 101.493 112.526 101.349 112.893 101.059C113.264 100.766 113.543 100.372 113.728 99.8789C113.918 99.3816 114.012 98.8286 114.012 98.22C114.012 97.6188 113.919 97.077 113.734 96.5945C113.552 96.1084 113.276 95.7243 112.904 95.4422C112.537 95.1565 112.075 95.0136 111.518 95.0136C110.984 95.0136 110.535 95.1491 110.171 95.42C109.807 95.6872 109.533 96.062 109.347 96.5444C109.162 97.0232 109.069 97.5817 109.069 98.22ZM117.87 105.702C117.647 105.702 117.449 105.683 117.274 105.646C117.1 105.613 116.979 105.579 116.912 105.546L117.246 104.388C117.566 104.47 117.848 104.499 118.093 104.477C118.338 104.455 118.555 104.345 118.744 104.149C118.937 103.956 119.113 103.642 119.273 103.208L119.518 102.54L116.356 93.9448H117.781L120.141 100.758H120.23L122.59 93.9448H124.016L120.386 103.742C120.223 104.184 120.021 104.549 119.779 104.839C119.538 105.132 119.258 105.349 118.939 105.49C118.623 105.631 118.267 105.702 117.87 105.702ZM125.75 102.495V93.9448H127.063V97.6633H127.932L131.005 93.9448H132.697L129.245 98.0642L132.741 102.495H131.049L128.243 98.888H127.063V102.495H125.75ZM133.679 95.1695V93.9448H140.627V95.1695H137.821V102.495H136.507V95.1695H133.679ZM144.615 102.696C144.073 102.696 143.582 102.594 143.14 102.389C142.698 102.182 142.348 101.883 142.088 101.493C141.828 101.1 141.698 100.625 141.698 100.068C141.698 99.5783 141.795 99.1812 141.988 98.8769C142.181 98.5689 142.439 98.3276 142.761 98.1532C143.084 97.9788 143.441 97.8489 143.83 97.7635C144.224 97.6745 144.619 97.604 145.016 97.552C145.535 97.4852 145.957 97.4351 146.28 97.4017C146.606 97.3646 146.844 97.3034 146.992 97.218C147.144 97.1327 147.22 96.9842 147.22 96.7727V96.7281C147.22 96.1789 147.07 95.7521 146.769 95.4478C146.473 95.1435 146.022 94.9913 145.417 94.9913C144.79 94.9913 144.298 95.1286 143.942 95.4033C143.585 95.6779 143.335 95.9711 143.19 96.2828L141.943 95.8375C142.166 95.3179 142.463 94.9134 142.834 94.6239C143.209 94.3308 143.617 94.1266 144.058 94.0116C144.504 93.8928 144.942 93.8335 145.372 93.8335C145.647 93.8335 145.962 93.8669 146.319 93.9337C146.678 93.9968 147.025 94.1285 147.359 94.3289C147.697 94.5293 147.977 94.8318 148.2 95.2363C148.423 95.6408 148.534 96.1826 148.534 96.8617V102.495H147.22V101.337H147.154C147.064 101.523 146.916 101.721 146.708 101.933C146.5 102.145 146.224 102.325 145.879 102.473C145.534 102.621 145.112 102.696 144.615 102.696ZM144.816 101.516C145.335 101.516 145.773 101.413 146.129 101.209C146.489 101.005 146.76 100.742 146.942 100.419C147.128 100.096 147.22 99.7564 147.22 99.4002V98.1978C147.165 98.2646 147.042 98.3258 146.853 98.3815C146.667 98.4334 146.452 98.4798 146.207 98.5206C145.966 98.5577 145.73 98.5911 145.5 98.6208C145.274 98.6468 145.09 98.6691 144.949 98.6876C144.608 98.7322 144.289 98.8045 143.992 98.9047C143.698 99.0012 143.461 99.1478 143.279 99.3445C143.101 99.5375 143.012 99.801 143.012 100.135C143.012 100.591 143.181 100.937 143.518 101.17C143.86 101.4 144.292 101.516 144.816 101.516ZM150.398 102.495L153.871 98.1532L150.442 93.9448H152.001L154.851 97.5965H155.563V93.9448H156.877V97.5965H157.567L160.418 93.9448H161.976L158.569 98.1532L162.021 102.495H160.44L157.545 98.8212H156.877V102.495H155.563V98.8212H154.895L151.978 102.495H150.398ZM177.013 91.0946V102.495H175.633V92.3193H169.888V102.495H168.507V91.0946H177.013ZM189.417 96.7949C189.417 97.9974 189.2 99.0365 188.766 99.9123C188.332 100.788 187.736 101.464 186.979 101.939C186.222 102.414 185.357 102.651 184.385 102.651C183.413 102.651 182.548 102.414 181.791 101.939C181.034 101.464 180.438 100.788 180.004 99.9123C179.57 99.0365 179.353 97.9974 179.353 96.7949C179.353 95.5925 179.57 94.5534 180.004 93.6776C180.438 92.8018 181.034 92.1263 181.791 91.6513C182.548 91.1763 183.413 90.9388 184.385 90.9388C185.357 90.9388 186.222 91.1763 186.979 91.6513C187.736 92.1263 188.332 92.8018 188.766 93.6776C189.2 94.5534 189.417 95.5925 189.417 96.7949ZM188.081 96.7949C188.081 95.8078 187.916 94.9746 187.586 94.2955C187.259 93.6164 186.816 93.1024 186.255 92.7535C185.699 92.4047 185.075 92.2303 184.385 92.2303C183.695 92.2303 183.069 92.4047 182.509 92.7535C181.952 93.1024 181.509 93.6164 181.179 94.2955C180.852 94.9746 180.689 95.8078 180.689 96.7949C180.689 97.7821 180.852 98.6153 181.179 99.2944C181.509 99.9735 181.952 100.488 182.509 100.836C183.069 101.185 183.695 101.36 184.385 101.36C185.075 101.36 185.699 101.185 186.255 100.836C186.816 100.488 187.259 99.9735 187.586 99.2944C187.916 98.6153 188.081 97.7821 188.081 96.7949ZM190.759 105.256V101.271H191.494C191.746 101.04 191.984 100.716 192.206 100.296C192.433 99.8733 192.624 99.3092 192.78 98.6041C192.939 97.8953 193.045 96.9953 193.097 95.9043L193.342 91.0946H200.111V101.271H201.425V105.234H200.111V102.495H192.073V105.256H190.759ZM193.141 101.271H198.797V92.3193H194.589L194.411 95.9043C194.366 96.7356 194.288 97.4889 194.177 98.1644C194.065 98.8361 193.923 99.4317 193.748 99.9513C193.574 100.467 193.371 100.907 193.141 101.271ZM207.363 90.5602L203.689 104.21H202.486L206.16 90.5602H207.363ZM213.017 92.4529H214.821C215.667 92.4529 216.419 92.6422 217.075 93.0207C217.732 93.3993 218.248 93.9262 218.623 94.6017C218.998 95.2771 219.185 96.0601 219.185 96.9508C219.185 97.8415 218.998 98.6264 218.623 99.3055C218.248 99.9847 217.732 100.515 217.075 100.898C216.419 101.28 215.667 101.471 214.821 101.471H213.017C212.171 101.471 211.42 101.282 210.763 100.903C210.106 100.525 209.59 99.9976 209.215 99.3222C208.84 98.6468 208.653 97.8637 208.653 96.9731C208.653 96.0824 208.84 95.2975 209.215 94.6184C209.59 93.9392 210.106 93.4085 210.763 93.0263C211.42 92.644 212.171 92.4529 213.017 92.4529ZM213.017 93.6776C212.372 93.6776 211.826 93.8131 211.381 94.084C210.939 94.3549 210.603 94.7371 210.373 95.2307C210.147 95.7243 210.034 96.3051 210.034 96.9731C210.034 97.6337 210.147 98.2089 210.373 98.6988C210.603 99.1886 210.939 99.569 211.381 99.8399C211.826 100.111 212.372 100.246 213.017 100.246H214.821C215.467 100.246 216.01 100.111 216.452 99.8399C216.897 99.569 217.233 99.1868 217.459 98.6932C217.69 98.1996 217.805 97.6188 217.805 96.9508C217.805 96.2902 217.69 95.715 217.459 95.2251C217.233 94.7353 216.897 94.3549 216.452 94.084C216.01 93.8131 215.467 93.6776 214.821 93.6776H213.017ZM214.62 90.8942V102.963H213.24V90.8942H214.62ZM220.4 92.3193V91.0946H228.951V92.3193H225.366V102.495H223.985V92.3193H220.4ZM233.693 90.5602L230.019 104.21H228.817L232.491 90.5602H233.693ZM239.348 92.4529H241.151C241.997 92.4529 242.749 92.6422 243.406 93.0207C244.063 93.3993 244.579 93.9262 244.953 94.6017C245.328 95.2771 245.516 96.0601 245.516 96.9508C245.516 97.8415 245.328 98.6264 244.953 99.3055C244.579 99.9847 244.063 100.515 243.406 100.898C242.749 101.28 241.997 101.471 241.151 101.471H239.348C238.502 101.471 237.75 101.282 237.093 100.903C236.436 100.525 235.92 99.9976 235.546 99.3222C235.171 98.6468 234.983 97.8637 234.983 96.9731C234.983 96.0824 235.171 95.2975 235.546 94.6184C235.92 93.9392 236.436 93.4085 237.093 93.0263C237.75 92.644 238.502 92.4529 239.348 92.4529ZM239.348 93.6776C238.702 93.6776 238.156 93.8131 237.711 94.084C237.269 94.3549 236.934 94.7371 236.704 95.2307C236.477 95.7243 236.364 96.3051 236.364 96.9731C236.364 97.6337 236.477 98.2089 236.704 98.6988C236.934 99.1886 237.269 99.569 237.711 99.8399C238.156 100.111 238.702 100.246 239.348 100.246H241.151C241.797 100.246 242.341 100.111 242.782 99.8399C243.228 99.569 243.564 99.1868 243.79 98.6932C244.02 98.1996 244.135 97.6188 244.135 96.9508C244.135 96.2902 244.02 95.715 243.79 95.2251C243.564 94.7353 243.228 94.3549 242.782 94.084C242.341 93.8131 241.797 93.6776 241.151 93.6776H239.348ZM240.951 90.8942V102.963H239.57V90.8942H240.951ZM247.829 102.495V91.0946H251.681C252.575 91.0946 253.306 91.2561 253.874 91.579C254.446 91.8981 254.869 92.3305 255.143 92.876C255.418 93.4215 255.555 94.0302 255.555 94.7019C255.555 95.3736 255.418 95.9841 255.143 96.5333C254.872 97.0826 254.453 97.5205 253.885 97.847C253.317 98.1699 252.59 98.3314 251.703 98.3314H248.942V97.1067H251.658C252.271 97.1067 252.763 97.0009 253.134 96.7894C253.505 96.5778 253.774 96.2921 253.941 95.9321C254.112 95.5684 254.197 95.1583 254.197 94.7019C254.197 94.2454 254.112 93.8372 253.941 93.4772C253.774 93.1172 253.503 92.8352 253.128 92.6311C252.753 92.4232 252.256 92.3193 251.636 92.3193H249.209V102.495H247.829ZM267.398 96.7949C267.398 97.9974 267.181 99.0365 266.747 99.9123C266.313 100.788 265.717 101.464 264.96 101.939C264.203 102.414 263.338 102.651 262.366 102.651C261.394 102.651 260.529 102.414 259.772 101.939C259.015 101.464 258.419 100.788 257.985 99.9123C257.551 99.0365 257.334 97.9974 257.334 96.7949C257.334 95.5925 257.551 94.5534 257.985 93.6776C258.419 92.8018 259.015 92.1263 259.772 91.6513C260.529 91.1763 261.394 90.9388 262.366 90.9388C263.338 90.9388 264.203 91.1763 264.96 91.6513C265.717 92.1263 266.313 92.8018 266.747 93.6776C267.181 94.5534 267.398 95.5925 267.398 96.7949ZM266.062 96.7949C266.062 95.8078 265.897 94.9746 265.567 94.2955C265.24 93.6164 264.797 93.1024 264.236 92.7535C263.68 92.4047 263.056 92.2303 262.366 92.2303C261.676 92.2303 261.05 92.4047 260.49 92.7535C259.933 93.1024 259.49 93.6164 259.16 94.2955C258.833 94.9746 258.67 95.8078 258.67 96.7949C258.67 97.7821 258.833 98.6153 259.16 99.2944C259.49 99.9735 259.933 100.488 260.49 100.836C261.05 101.185 261.676 101.36 262.366 101.36C263.056 101.36 263.68 101.185 264.236 100.836C264.797 100.488 265.24 99.9735 265.567 99.2944C265.897 98.6153 266.062 97.7821 266.062 96.7949ZM269.72 91.0946H271.367L275.242 100.558H275.375L279.25 91.0946H280.898V102.495H279.606V93.8335H279.495L275.932 102.495H274.685L271.122 93.8335H271.011V102.495H269.72V91.0946ZM284.267 102.651V101.36H284.979C285.254 101.36 285.484 101.306 285.67 101.198C285.859 101.091 286.015 100.951 286.137 100.781C286.263 100.61 286.367 100.432 286.449 100.246L286.627 99.8232L282.686 91.0946H284.178L287.317 98.1755L290.19 91.0946H291.659L287.718 100.647C287.562 101.003 287.384 101.334 287.184 101.638C286.987 101.942 286.718 102.187 286.377 102.373C286.039 102.558 285.581 102.651 285.002 102.651H284.267ZM292.134 101.271L294.272 97.8192H295.541V97.9305L293.292 101.271H292.134ZM292.134 94.4347H293.292L295.541 97.7747V97.886H294.272L292.134 94.4347ZM294.984 101.271L297.122 97.8192H298.391V97.9305L296.142 101.271H294.984ZM294.984 94.4347H296.142L298.391 97.7747V97.886H297.122L294.984 94.4347Z" fill="black"/>
<path d="M82.2534 163.303L78.3345 158.07H76.9317V163.303H75.5511V151.902H76.9317V156.845H77.5329L82.0976 151.902H83.7453L79.1361 156.912L83.9012 163.303H82.2534ZM88.3531 163.481C87.5812 163.481 86.9039 163.297 86.3213 162.93C85.7424 162.562 85.2896 162.048 84.963 161.388C84.6402 160.727 84.4787 159.955 84.4787 159.072C84.4787 158.181 84.6402 157.404 84.963 156.74C85.2896 156.075 85.7424 155.559 86.3213 155.192C86.9039 154.825 87.5812 154.641 88.3531 154.641C89.1251 154.641 89.8005 154.825 90.3794 155.192C90.9621 155.559 91.4148 156.075 91.7377 156.74C92.0643 157.404 92.2276 158.181 92.2276 159.072C92.2276 159.955 92.0643 160.727 91.7377 161.388C91.4148 162.048 90.9621 162.562 90.3794 162.93C89.8005 163.297 89.1251 163.481 88.3531 163.481ZM88.3531 162.301C88.9395 162.301 89.4219 162.15 89.8005 161.85C90.179 161.549 90.4592 161.154 90.6411 160.664C90.8229 160.174 90.9138 159.644 90.9138 159.072C90.9138 158.501 90.8229 157.968 90.6411 157.474C90.4592 156.981 90.179 156.582 89.8005 156.278C89.4219 155.973 88.9395 155.821 88.3531 155.821C87.7668 155.821 87.2843 155.973 86.9058 156.278C86.5273 156.582 86.2471 156.981 86.0652 157.474C85.8834 157.968 85.7925 158.501 85.7925 159.072C85.7925 159.644 85.8834 160.174 86.0652 160.664C86.2471 161.154 86.5273 161.549 86.9058 161.85C87.2843 162.15 87.7668 162.301 88.3531 162.301ZM93.4759 163.303V162.078H93.7876C94.0437 162.078 94.2571 162.028 94.4278 161.928C94.5985 161.824 94.7358 161.644 94.8397 161.388C94.9474 161.128 95.029 160.768 95.0847 160.308C95.144 159.844 95.1867 159.254 95.2127 158.538L95.3686 154.752H101.069V163.303H99.7551V155.977H96.6155L96.4819 159.028C96.4522 159.729 96.3891 160.347 96.2926 160.881C96.1999 161.412 96.057 161.857 95.864 162.217C95.6747 162.577 95.4224 162.848 95.1069 163.03C94.7915 163.212 94.3962 163.303 93.9212 163.303H93.4759ZM104.793 161.366L108.912 154.752H110.426V163.303H109.113V156.69L105.016 163.303H103.479V154.752H104.793V161.366ZM119.424 154.752V163.303H118.11V154.752H119.424ZM118.912 158.827V160.052C118.615 160.163 118.32 160.261 118.026 160.347C117.733 160.428 117.425 160.493 117.102 160.542C116.779 160.586 116.425 160.608 116.039 160.608C115.07 160.608 114.293 160.347 113.707 159.824C113.124 159.3 112.833 158.515 112.833 157.469V154.73H114.146V157.469C114.146 157.907 114.23 158.267 114.397 158.549C114.564 158.831 114.79 159.041 115.076 159.178C115.362 159.315 115.683 159.384 116.039 159.384C116.596 159.384 117.099 159.334 117.548 159.233C118 159.13 118.455 158.994 118.912 158.827ZM125.419 163.481C124.595 163.481 123.884 163.299 123.287 162.935C122.693 162.568 122.235 162.056 121.912 161.399C121.593 160.738 121.433 159.97 121.433 159.094C121.433 158.218 121.593 157.447 121.912 156.779C122.235 156.107 122.684 155.584 123.259 155.209C123.838 154.83 124.513 154.641 125.285 154.641C125.731 154.641 126.17 154.715 126.605 154.864C127.039 155.012 127.434 155.253 127.79 155.587C128.147 155.918 128.431 156.355 128.642 156.901C128.854 157.447 128.959 158.118 128.959 158.916V159.473H122.368V158.337H127.623C127.623 157.855 127.527 157.424 127.334 157.046C127.145 156.667 126.874 156.368 126.521 156.15C126.172 155.931 125.76 155.821 125.285 155.821C124.762 155.821 124.309 155.951 123.927 156.211C123.549 156.467 123.257 156.801 123.053 157.213C122.849 157.625 122.747 158.066 122.747 158.538V159.295C122.747 159.94 122.858 160.488 123.081 160.937C123.307 161.382 123.621 161.722 124.022 161.956C124.423 162.186 124.888 162.301 125.419 162.301C125.764 162.301 126.076 162.252 126.354 162.156C126.636 162.056 126.879 161.907 127.083 161.711C127.288 161.51 127.445 161.262 127.557 160.965L128.826 161.321C128.692 161.751 128.468 162.13 128.152 162.457C127.837 162.779 127.447 163.032 126.983 163.214C126.519 163.392 125.998 163.481 125.419 163.481ZM134.431 163.481C133.63 163.481 132.94 163.292 132.361 162.913C131.782 162.535 131.336 162.013 131.025 161.349C130.713 160.685 130.557 159.926 130.557 159.072C130.557 158.204 130.717 157.437 131.036 156.773C131.359 156.105 131.808 155.584 132.383 155.209C132.962 154.83 133.637 154.641 134.409 154.641C135.01 154.641 135.552 154.752 136.035 154.975C136.517 155.198 136.912 155.509 137.22 155.91C137.528 156.311 137.72 156.779 137.794 157.313H136.48C136.38 156.923 136.157 156.578 135.812 156.278C135.471 155.973 135.01 155.821 134.431 155.821C133.919 155.821 133.47 155.955 133.084 156.222C132.702 156.485 132.403 156.858 132.188 157.341C131.977 157.82 131.871 158.382 131.871 159.028C131.871 159.688 131.975 160.263 132.183 160.753C132.394 161.243 132.691 161.623 133.073 161.894C133.459 162.165 133.912 162.301 134.431 162.301C134.773 162.301 135.083 162.241 135.361 162.123C135.639 162.004 135.875 161.833 136.068 161.61C136.261 161.388 136.398 161.121 136.48 160.809H137.794C137.72 161.314 137.536 161.768 137.243 162.173C136.953 162.573 136.569 162.893 136.09 163.13C135.615 163.364 135.062 163.481 134.431 163.481ZM139.041 155.977V154.752H145.988V155.977H143.182V163.303H141.869V155.977H139.041ZM147.904 163.303V154.752H151.4C152.32 154.752 153.052 154.96 153.593 155.376C154.135 155.791 154.406 156.341 154.406 157.024C154.406 157.543 154.252 157.946 153.944 158.231C153.636 158.514 153.241 158.705 152.758 158.805C153.074 158.849 153.38 158.961 153.677 159.139C153.978 159.317 154.226 159.562 154.423 159.874C154.62 160.182 154.718 160.56 154.718 161.009C154.718 161.447 154.607 161.839 154.384 162.184C154.161 162.529 153.842 162.802 153.426 163.002C153.011 163.203 152.513 163.303 151.935 163.303H147.904ZM149.151 162.1H151.935C152.387 162.1 152.742 161.993 152.998 161.777C153.254 161.562 153.382 161.269 153.382 160.898C153.382 160.456 153.254 160.109 152.998 159.857C152.742 159.601 152.387 159.473 151.935 159.473H149.151V162.1ZM149.151 158.337H151.4C151.753 158.337 152.055 158.289 152.308 158.193C152.56 158.092 152.753 157.951 152.886 157.769C153.024 157.584 153.092 157.365 153.092 157.113C153.092 156.753 152.942 156.471 152.642 156.266C152.341 156.059 151.927 155.955 151.4 155.955H149.151V158.337ZM160.18 163.481C159.408 163.481 158.731 163.297 158.148 162.93C157.569 162.562 157.117 162.048 156.79 161.388C156.467 160.727 156.306 159.955 156.306 159.072C156.306 158.181 156.467 157.404 156.79 156.74C157.117 156.075 157.569 155.559 158.148 155.192C158.731 154.825 159.408 154.641 160.18 154.641C160.952 154.641 161.628 154.825 162.206 155.192C162.789 155.559 163.242 156.075 163.565 156.74C163.891 157.404 164.055 158.181 164.055 159.072C164.055 159.955 163.891 160.727 163.565 161.388C163.242 162.048 162.789 162.562 162.206 162.93C161.628 163.297 160.952 163.481 160.18 163.481ZM160.18 162.301C160.767 162.301 161.249 162.15 161.628 161.85C162.006 161.549 162.286 161.154 162.468 160.664C162.65 160.174 162.741 159.644 162.741 159.072C162.741 158.501 162.65 157.968 162.468 157.474C162.286 156.981 162.006 156.582 161.628 156.278C161.249 155.973 160.767 155.821 160.18 155.821C159.594 155.821 159.111 155.973 158.733 156.278C158.354 156.582 158.074 156.981 157.892 157.474C157.71 157.968 157.62 158.501 157.62 159.072C157.62 159.644 157.71 160.174 157.892 160.664C158.074 161.154 158.354 161.549 158.733 161.85C159.111 162.15 159.594 162.301 160.18 162.301ZM171.315 166.509C171.092 166.509 170.894 166.491 170.719 166.453C170.545 166.42 170.424 166.387 170.358 166.353L170.692 165.195C171.011 165.277 171.293 165.307 171.538 165.284C171.783 165.262 172 165.153 172.189 164.956C172.382 164.763 172.558 164.449 172.718 164.015L172.963 163.347L169.801 154.752H171.226L173.586 161.566H173.675L176.036 154.752H177.461L173.831 164.55C173.668 164.991 173.466 165.357 173.224 165.646C172.983 165.939 172.703 166.157 172.384 166.298C172.068 166.439 171.712 166.509 171.315 166.509ZM185.525 154.752V163.303H184.212V154.752H185.525ZM185.013 158.827V160.052C184.716 160.163 184.421 160.261 184.128 160.347C183.835 160.428 183.527 160.493 183.204 160.542C182.881 160.586 182.527 160.608 182.141 160.608C181.172 160.608 180.395 160.347 179.808 159.824C179.226 159.3 178.934 158.515 178.934 157.469V154.73H180.248V157.469C180.248 157.907 180.332 158.267 180.499 158.549C180.666 158.831 180.892 159.041 181.178 159.178C181.464 159.315 181.785 159.384 182.141 159.384C182.697 159.384 183.2 159.334 183.649 159.233C184.102 159.13 184.557 158.994 185.013 158.827ZM190.452 163.503C189.91 163.503 189.418 163.401 188.977 163.197C188.535 162.989 188.184 162.69 187.925 162.301C187.665 161.907 187.535 161.432 187.535 160.876C187.535 160.386 187.631 159.989 187.824 159.684C188.017 159.376 188.275 159.135 188.598 158.961C188.921 158.786 189.277 158.656 189.667 158.571C190.06 158.482 190.456 158.411 190.853 158.36C191.372 158.293 191.793 158.243 192.116 158.209C192.443 158.172 192.68 158.111 192.829 158.026C192.981 157.94 193.057 157.792 193.057 157.58V157.536C193.057 156.986 192.907 156.56 192.606 156.255C192.309 155.951 191.858 155.799 191.253 155.799C190.626 155.799 190.135 155.936 189.778 156.211C189.422 156.485 189.172 156.779 189.027 157.09L187.78 156.645C188.003 156.125 188.299 155.721 188.671 155.431C189.045 155.138 189.454 154.934 189.895 154.819C190.341 154.7 190.778 154.641 191.209 154.641C191.484 154.641 191.799 154.674 192.155 154.741C192.515 154.804 192.862 154.936 193.196 155.136C193.534 155.337 193.814 155.639 194.037 156.044C194.26 156.448 194.371 156.99 194.371 157.669V163.303H193.057V162.145H192.99C192.901 162.33 192.753 162.529 192.545 162.74C192.337 162.952 192.061 163.132 191.716 163.28C191.37 163.429 190.949 163.503 190.452 163.503ZM190.652 162.323C191.172 162.323 191.61 162.221 191.966 162.017C192.326 161.813 192.597 161.549 192.779 161.226C192.964 160.903 193.057 160.564 193.057 160.208V159.005C193.001 159.072 192.879 159.133 192.69 159.189C192.504 159.241 192.289 159.287 192.044 159.328C191.803 159.365 191.567 159.399 191.337 159.428C191.111 159.454 190.927 159.477 190.786 159.495C190.444 159.54 190.125 159.612 189.828 159.712C189.535 159.809 189.298 159.955 189.116 160.152C188.938 160.345 188.849 160.608 188.849 160.942C188.849 161.399 189.018 161.744 189.355 161.978C189.697 162.208 190.129 162.323 190.652 162.323ZM200.242 163.481C199.441 163.481 198.75 163.292 198.171 162.913C197.593 162.535 197.147 162.013 196.835 161.349C196.524 160.685 196.368 159.926 196.368 159.072C196.368 158.204 196.527 157.437 196.847 156.773C197.169 156.105 197.619 155.584 198.194 155.209C198.773 154.83 199.448 154.641 200.22 154.641C200.821 154.641 201.363 154.752 201.846 154.975C202.328 155.198 202.723 155.509 203.031 155.91C203.339 156.311 203.53 156.779 203.605 157.313H202.291C202.191 156.923 201.968 156.578 201.623 156.278C201.281 155.973 200.821 155.821 200.242 155.821C199.73 155.821 199.281 155.955 198.895 156.222C198.513 156.485 198.214 156.858 197.999 157.341C197.787 157.82 197.682 158.382 197.682 159.028C197.682 159.688 197.786 160.263 197.993 160.753C198.205 161.243 198.502 161.623 198.884 161.894C199.27 162.165 199.723 162.301 200.242 162.301C200.584 162.301 200.894 162.241 201.172 162.123C201.45 162.004 201.686 161.833 201.879 161.61C202.072 161.388 202.209 161.121 202.291 160.809H203.605C203.53 161.314 203.347 161.768 203.053 162.173C202.764 162.573 202.38 162.893 201.901 163.13C201.426 163.364 200.873 163.481 200.242 163.481ZM204.852 155.977V154.752H211.799V155.977H208.993V163.303H207.679V155.977H204.852ZM219.438 158.426V159.651H214.717V158.426H219.438ZM215.029 154.752V163.303H213.715V154.752H215.029ZM220.44 154.752V163.303H219.126V154.752H220.44ZM224.153 161.366L228.272 154.752H229.786V163.303H228.472V156.69L224.375 163.303H222.839V154.752H224.153V161.366ZM232.192 163.303V154.752H233.506V158.471H234.374L237.447 154.752H239.14L235.688 158.872L239.184 163.303H237.492L234.686 159.696H233.506V163.303H232.192ZM243.734 163.481C242.962 163.481 242.284 163.297 241.702 162.93C241.123 162.562 240.67 162.048 240.343 161.388C240.021 160.727 239.859 159.955 239.859 159.072C239.859 158.181 240.021 157.404 240.343 156.74C240.67 156.075 241.123 155.559 241.702 155.192C242.284 154.825 242.962 154.641 243.734 154.641C244.505 154.641 245.181 154.825 245.76 155.192C246.342 155.559 246.795 156.075 247.118 156.74C247.445 157.404 247.608 158.181 247.608 159.072C247.608 159.955 247.445 160.727 247.118 161.388C246.795 162.048 246.342 162.562 245.76 162.93C245.181 163.297 244.505 163.481 243.734 163.481ZM243.734 162.301C244.32 162.301 244.802 162.15 245.181 161.85C245.559 161.549 245.84 161.154 246.021 160.664C246.203 160.174 246.294 159.644 246.294 159.072C246.294 158.501 246.203 157.968 246.021 157.474C245.84 156.981 245.559 156.582 245.181 156.278C244.802 155.973 244.32 155.821 243.734 155.821C243.147 155.821 242.665 155.973 242.286 156.278C241.908 156.582 241.627 156.981 241.446 157.474C241.264 157.968 241.173 158.501 241.173 159.072C241.173 159.644 241.264 160.174 241.446 160.664C241.627 161.154 241.908 161.549 242.286 161.85C242.665 162.15 243.147 162.301 243.734 162.301ZM249.613 163.303V154.752H253.109C254.03 154.752 254.761 154.96 255.302 155.376C255.844 155.791 256.115 156.341 256.115 157.024C256.115 157.543 255.961 157.946 255.653 158.231C255.345 158.514 254.95 158.705 254.467 158.805C254.783 158.849 255.089 158.961 255.386 159.139C255.687 159.317 255.935 159.562 256.132 159.874C256.329 160.182 256.427 160.56 256.427 161.009C256.427 161.447 256.316 161.839 256.093 162.184C255.87 162.529 255.551 162.802 255.135 163.002C254.72 163.203 254.223 163.303 253.644 163.303H249.613ZM250.86 162.1H253.644C254.096 162.1 254.451 161.993 254.707 161.777C254.963 161.562 255.091 161.269 255.091 160.898C255.091 160.456 254.963 160.109 254.707 159.857C254.451 159.601 254.096 159.473 253.644 159.473H250.86V162.1ZM250.86 158.337H253.109C253.462 158.337 253.764 158.289 254.017 158.193C254.269 158.092 254.462 157.951 254.596 157.769C254.733 157.584 254.801 157.365 254.801 157.113C254.801 156.753 254.651 156.471 254.351 156.266C254.05 156.059 253.636 155.955 253.109 155.955H250.86V158.337Z" fill="#5D647D"/>
<rect x="60.672" y="131.931" width="391.024" height="51.3818" rx="6.53159" stroke="#CFD7DC" stroke-width="0.870878"/>
<rect x="60.2365" y="205.748" width="391.895" height="52.2527" rx="6.96703" fill="#DCF7F4"/>
<path d="M231.991 240.124V235.688H232.753C233.009 235.484 233.249 235.196 233.471 234.825C233.694 234.454 233.883 233.945 234.039 233.3C234.195 232.654 234.303 231.819 234.362 230.795L234.663 225.974H241.949V235.688H243.219V240.113H241.237V237.374H233.972V240.124H231.991ZM235.158 235.688H239.968V227.705H236.522L236.344 230.795C236.296 231.57 236.218 232.264 236.11 232.877C236.002 233.489 235.867 234.029 235.704 234.496C235.54 234.96 235.358 235.357 235.158 235.688ZM247.273 237.547C246.731 237.547 246.243 237.45 245.809 237.257C245.378 237.061 245.037 236.771 244.784 236.389C244.536 236.007 244.411 235.536 244.411 234.975C244.411 234.493 244.5 234.094 244.679 233.778C244.857 233.463 245.1 233.211 245.408 233.021C245.716 232.832 246.063 232.689 246.449 232.593C246.838 232.492 247.241 232.42 247.657 232.375C248.158 232.324 248.564 232.277 248.876 232.236C249.188 232.192 249.414 232.125 249.555 232.036C249.7 231.943 249.772 231.8 249.772 231.607V231.574C249.772 231.155 249.648 230.83 249.399 230.6C249.15 230.37 248.792 230.255 248.325 230.255C247.831 230.255 247.44 230.362 247.15 230.577C246.864 230.793 246.671 231.047 246.571 231.34L244.69 231.073C244.838 230.553 245.083 230.119 245.424 229.77C245.766 229.418 246.183 229.154 246.677 228.98C247.171 228.802 247.716 228.713 248.314 228.713C248.725 228.713 249.136 228.761 249.544 228.857C249.952 228.954 250.325 229.113 250.663 229.336C251 229.555 251.271 229.854 251.475 230.232C251.683 230.611 251.787 231.084 251.787 231.652V237.374H249.85V236.2H249.783C249.661 236.437 249.488 236.66 249.265 236.868C249.047 237.072 248.77 237.237 248.436 237.363C248.106 237.486 247.718 237.547 247.273 237.547ZM247.796 236.066C248.2 236.066 248.551 235.986 248.848 235.827C249.145 235.664 249.373 235.448 249.533 235.181C249.696 234.914 249.778 234.623 249.778 234.307V233.3C249.715 233.352 249.607 233.4 249.455 233.444C249.306 233.489 249.139 233.528 248.954 233.561C248.768 233.595 248.584 233.624 248.403 233.65C248.221 233.676 248.063 233.699 247.929 233.717C247.629 233.758 247.36 233.825 247.122 233.917C246.885 234.01 246.697 234.14 246.56 234.307C246.423 234.47 246.354 234.682 246.354 234.942C246.354 235.313 246.49 235.593 246.76 235.782C247.031 235.972 247.377 236.066 247.796 236.066ZM253.223 237.374L253.212 235.716H253.507C253.73 235.716 253.917 235.665 254.07 235.565C254.222 235.465 254.348 235.298 254.448 235.064C254.548 234.827 254.626 234.508 254.682 234.107C254.738 233.706 254.776 233.207 254.799 232.609L254.949 228.824H261.184V237.374H259.235V230.477H256.781L256.647 233.233C256.614 233.945 256.534 234.563 256.408 235.086C256.285 235.606 256.111 236.035 255.884 236.372C255.662 236.71 255.381 236.962 255.044 237.129C254.706 237.293 254.307 237.374 253.847 237.374H253.223ZM266.998 237.541C266.141 237.541 265.401 237.363 264.777 237.007C264.157 236.647 263.68 236.139 263.346 235.482C263.012 234.821 262.845 234.044 262.845 233.149C262.845 232.27 263.012 231.498 263.346 230.834C263.684 230.166 264.155 229.646 264.76 229.275C265.365 228.9 266.076 228.713 266.892 228.713C267.419 228.713 267.917 228.798 268.384 228.969C268.856 229.136 269.271 229.395 269.631 229.748C269.995 230.101 270.281 230.55 270.488 231.095C270.696 231.637 270.8 232.283 270.8 233.032V233.65H263.792V232.292H268.869C268.865 231.906 268.781 231.563 268.618 231.262C268.455 230.958 268.227 230.718 267.933 230.544C267.644 230.37 267.306 230.282 266.92 230.282C266.508 230.282 266.146 230.383 265.835 230.583C265.523 230.78 265.28 231.039 265.105 231.362C264.935 231.682 264.848 232.032 264.844 232.414V233.6C264.844 234.097 264.935 234.524 265.117 234.881C265.298 235.233 265.553 235.504 265.879 235.693C266.206 235.879 266.588 235.972 267.026 235.972C267.319 235.972 267.585 235.931 267.822 235.849C268.06 235.764 268.266 235.639 268.44 235.476C268.614 235.313 268.746 235.111 268.835 234.869L270.717 235.081C270.598 235.578 270.372 236.012 270.038 236.384C269.707 236.751 269.284 237.037 268.768 237.241C268.253 237.441 267.662 237.541 266.998 237.541ZM276.29 237.541C275.433 237.541 274.693 237.363 274.069 237.007C273.45 236.647 272.973 236.139 272.639 235.482C272.305 234.821 272.138 234.044 272.138 233.149C272.138 232.27 272.305 231.498 272.639 230.834C272.976 230.166 273.448 229.646 274.053 229.275C274.657 228.9 275.368 228.713 276.185 228.713C276.712 228.713 277.209 228.798 277.676 228.969C278.148 229.136 278.563 229.395 278.923 229.748C279.287 230.101 279.573 230.55 279.781 231.095C279.989 231.637 280.092 232.283 280.092 233.032V233.65H273.084V232.292H278.161C278.157 231.906 278.074 231.563 277.91 231.262C277.747 230.958 277.519 230.718 277.226 230.544C276.936 230.37 276.598 230.282 276.212 230.282C275.801 230.282 275.439 230.383 275.127 230.583C274.815 230.78 274.572 231.039 274.398 231.362C274.227 231.682 274.14 232.032 274.136 232.414V233.6C274.136 234.097 274.227 234.524 274.409 234.881C274.591 235.233 274.845 235.504 275.171 235.693C275.498 235.879 275.88 235.972 276.318 235.972C276.611 235.972 276.877 235.931 277.114 235.849C277.352 235.764 277.558 235.639 277.732 235.476C277.907 235.313 278.038 235.111 278.127 234.869L280.009 235.081C279.89 235.578 279.664 236.012 279.33 236.384C279 236.751 278.576 237.037 278.061 237.241C277.545 237.441 276.955 237.541 276.29 237.541Z" fill="#27ACA1"/>
<path d="M428.455 69.9114L444.055 85.5117" stroke="#5D647D" stroke-width="1.37889" stroke-linecap="round"/>
<path d="M444.055 69.9114L428.455 85.5117" stroke="#5D647D" stroke-width="1.37889" stroke-linecap="round"/>
</g>
<defs>
<clipPath id="clip0_1_752">
<rect width="512" height="246" rx="16" fill="white"/>
</clipPath>
</defs>
</svg>
